<?xml version="1.0" standalone="no"?>
<!DOCTYPE svg PUBLIC "-//W3C//DTD SVG 20010904//EN"
 "http://www.w3.org/TR/2001/REC-SVG-20010904/DTD/svg10.dtd">
<svg version="1.0" xmlns="http://www.w3.org/2000/svg"
 width="768.000000pt" height="768.000000pt" viewBox="0 0 768.000000 768.000000"
 preserveAspectRatio="xMidYMid meet">
<metadata>
Created by potrace 1.14, written by Peter Selinger 2001-2017
</metadata>
<g transform="translate(0.000000,768.000000) scale(0.100000,-0.100000)"
fill="#000000" stroke="none">
<path d="M6575 7634 c-10 -16 -21 -42 -25 -59 -3 -16 -13 -31 -21 -33 -9 -2
-44 16 -77 39 -55 38 -64 41 -87 31 -38 -17 -63 -15 -97 10 -25 17 -34 19 -49
10 -10 -7 -26 -12 -34 -12 -8 0 -15 -9 -15 -19 0 -24 -32 -36 -59 -22 -11 6
-27 8 -35 5 -9 -3 -26 0 -39 8 -12 8 -39 18 -59 22 -21 4 -38 11 -38 16 0 16
-31 11 -65 -10 -18 -11 -48 -20 -66 -19 -19 0 -53 -2 -76 -6 -37 -7 -47 -4
-78 20 -29 21 -39 24 -50 15 -8 -7 -26 -9 -39 -6 -18 4 -33 -1 -56 -20 -30
-26 -32 -26 -93 -14 -34 6 -66 14 -71 17 -5 3 -38 7 -74 9 -35 1 -69 7 -74 12
-7 7 -18 2 -32 -15 -21 -24 -24 -25 -62 -13 -21 7 -56 21 -77 32 -32 16 -41
17 -54 6 -11 -9 -51 -13 -129 -13 -62 -1 -116 -4 -120 -8 -4 -4 -27 -7 -51 -7
-37 0 -45 -4 -52 -24 -15 -38 -77 -50 -102 -20 -16 19 -83 54 -105 54 -9 0
-27 -9 -41 -20 -34 -26 -59 -25 -118 4 -36 19 -53 22 -67 15 -10 -5 -18 -13
-18 -17 0 -12 -39 -52 -50 -52 -6 0 -10 9 -10 20 0 11 -7 20 -15 20 -8 0 -15
5 -15 11 0 8 -24 9 -79 4 -63 -5 -85 -4 -110 10 -46 23 -124 17 -130 -10 -7
-41 -38 -45 -79 -10 -34 29 -52 31 -91 11 -24 -13 -32 -12 -70 5 -52 23 -59
23 -98 4 -27 -13 -35 -13 -73 0 -58 20 -73 19 -97 -9 -12 -14 -37 -26 -63 -30
-29 -4 -44 -12 -47 -25 -6 -23 -43 -41 -83 -41 -23 0 -30 5 -30 19 0 29 -11
51 -25 51 -7 0 -15 5 -17 10 -2 7 -20 6 -53 -1 -87 -20 -132 -15 -182 20 -40
29 -48 31 -78 21 -18 -6 -94 -11 -170 -11 -108 0 -143 -4 -162 -16 -17 -11
-37 -14 -71 -10 -41 5 -50 3 -61 -14 -16 -27 -55 -21 -59 9 -2 12 -10 22 -18
22 -8 0 -14 7 -14 15 0 17 -11 20 -26 5 -5 -5 -43 -12 -84 -16 -41 -3 -90 -13
-109 -21 -32 -14 -37 -14 -78 6 -24 11 -49 21 -55 21 -6 0 -20 8 -30 17 -14
13 -21 14 -30 5 -7 -7 -27 -12 -44 -12 -18 0 -36 -4 -39 -10 -3 -5 -17 -10
-29 -10 -13 0 -40 -13 -61 -30 -47 -37 -64 -38 -106 -1 -31 28 -35 29 -51 14
-15 -14 -20 -14 -35 -2 -10 8 -22 19 -26 26 -6 9 -13 7 -27 -7 -11 -11 -29
-20 -40 -20 -10 0 -36 -11 -56 -25 -28 -19 -50 -25 -92 -25 -50 0 -54 2 -49
21 4 14 -1 23 -16 29 -12 5 -17 9 -12 10 26 2 -24 20 -56 20 -31 0 -38 -4 -43
-24 -8 -32 -33 -40 -63 -21 -16 11 -43 15 -84 14 -46 -2 -66 2 -87 18 -43 31
-63 35 -77 17 -7 -10 -26 -17 -44 -17 -23 0 -31 -5 -31 -17 0 -40 -71 -55 -78
-17 -2 11 -11 28 -20 38 -16 19 -17 19 -22 -18 -4 -30 -10 -39 -28 -41 -13 -2
-29 2 -37 8 -9 7 -49 10 -112 8 -54 -2 -106 1 -116 6 -17 8 -18 5 -12 -28 6
-28 4 -37 -8 -42 -11 -4 -15 -14 -11 -33 4 -19 0 -32 -16 -46 -18 -16 -50 -75
-50 -91 0 -2 7 -4 15 -4 9 0 12 -6 9 -15 -5 -11 1 -15 20 -15 14 0 26 -4 26
-10 0 -5 -4 -10 -8 -10 -5 0 -16 -6 -26 -13 -18 -13 -18 -15 -1 -40 15 -23 16
-34 7 -69 -7 -26 -7 -48 -1 -59 5 -10 9 -29 9 -44 0 -14 7 -28 15 -31 8 -4 15
-12 15 -19 0 -8 8 -15 18 -18 12 -2 8 -8 -18 -20 -19 -8 -43 -18 -53 -21 -20
-6 -18 -34 6 -104 11 -31 9 -35 -13 -52 l-24 -18 25 -26 c18 -20 34 -26 67
-26 61 0 50 -24 -12 -28 -33 -2 -49 -8 -53 -20 -3 -9 -11 -23 -17 -30 -5 -8
-9 -33 -7 -55 3 -44 31 -81 61 -82 25 0 23 -41 -4 -70 -30 -32 -41 -80 -32
-134 4 -30 1 -44 -14 -64 -24 -30 -26 -57 -5 -57 8 0 15 -4 15 -10 0 -5 7 -10
16 -10 16 0 16 -11 -1 -52 -4 -11 -3 -18 3 -18 6 0 23 -11 37 -24 27 -25 26
-46 0 -46 -22 0 -27 -18 -12 -40 21 -31 8 -83 -23 -90 -22 -6 -25 -11 -22 -49
2 -26 -2 -51 -12 -65 -13 -21 -13 -28 1 -72 9 -27 23 -64 32 -82 15 -31 15
-35 -5 -70 l-21 -36 20 -28 c20 -26 20 -29 4 -79 -22 -65 -21 -94 0 -130 17
-29 17 -31 -3 -69 l-22 -39 24 -22 c29 -27 32 -74 5 -90 -18 -12 -18 -12 0
-30 11 -11 23 -19 29 -19 15 0 50 -38 50 -54 0 -8 -19 -25 -43 -39 -23 -14
-50 -34 -60 -45 -18 -20 -18 -21 2 -43 25 -27 26 -37 4 -90 -13 -33 -14 -46
-5 -60 19 -30 15 -67 -8 -74 -11 -3 -20 -10 -20 -13 0 -4 9 -15 20 -25 13 -11
20 -29 20 -51 0 -29 -4 -36 -32 -45 l-33 -12 34 -28 c31 -26 33 -32 26 -70 -4
-27 -3 -41 4 -41 16 0 14 -48 -3 -57 -7 -4 -17 -19 -21 -32 -6 -20 -4 -23 9
-18 11 5 16 1 16 -13 0 -15 6 -19 22 -17 33 3 36 -38 6 -70 -16 -18 -19 -27
-10 -30 19 -7 14 -44 -10 -70 l-21 -23 21 0 c15 0 20 -5 16 -15 -5 -12 2 -15
28 -15 33 0 34 -1 44 -55 8 -44 7 -58 -3 -67 -17 -14 -16 -44 3 -72 11 -17 12
-26 4 -31 -6 -4 -15 -18 -20 -31 -6 -14 -19 -28 -31 -32 -20 -8 -20 -8 6 -34
22 -22 25 -30 15 -47 -7 -14 -21 -21 -41 -21 -38 0 -47 -22 -20 -56 30 -39 26
-73 -14 -119 -19 -22 -35 -43 -35 -47 0 -3 17 -20 37 -37 38 -32 40 -39 7 -44
-22 -3 -26 -12 -17 -46 7 -28 37 -61 57 -61 24 0 39 -26 26 -49 -8 -15 -21
-21 -45 -21 -24 0 -35 -5 -35 -14 0 -8 -3 -21 -6 -30 -4 -10 -1 -16 9 -16 29
0 37 -84 9 -101 -30 -19 -18 -105 19 -144 39 -42 38 -92 -2 -107 -21 -8 -32
-48 -13 -48 8 0 14 -7 14 -15 0 -8 6 -15 13 -15 6 0 20 -16 29 -36 16 -32 17
-37 2 -59 -8 -13 -31 -31 -50 -40 -19 -9 -34 -18 -34 -20 0 -3 23 -30 51 -61
60 -66 59 -78 -4 -98 -17 -6 -16 -10 13 -43 l33 -37 -27 -23 c-15 -13 -34 -23
-42 -23 -8 0 -14 -10 -14 -23 0 -13 -5 -28 -12 -35 -9 -9 -6 -16 12 -32 13
-11 28 -20 33 -20 6 0 3 -8 -5 -17 -25 -28 -32 -63 -14 -63 9 0 16 -4 16 -9 0
-5 9 -11 20 -14 26 -7 28 -65 3 -74 -40 -14 -44 -24 -19 -53 22 -27 23 -31 11
-76 -7 -28 -20 -53 -31 -59 -10 -5 -21 -11 -23 -12 -2 -2 2 -9 9 -18 7 -8 10
-27 7 -42 -3 -16 3 -44 13 -68 26 -57 40 -115 34 -140 -3 -13 1 -27 10 -34 38
-31 11 -70 -54 -78 -22 -3 -40 -7 -40 -9 0 -11 42 -44 55 -44 16 0 30 -42 21
-65 -6 -17 -51 -20 -61 -5 -5 8 -11 7 -21 -1 -12 -10 -9 -17 16 -46 35 -39 35
-40 14 -92 -15 -38 -15 -39 11 -65 27 -27 30 -53 10 -98 -5 -13 -3 -18 9 -18
9 0 16 -7 16 -15 0 -8 9 -15 20 -15 16 0 20 -7 20 -35 0 -27 -6 -38 -27 -52
-16 -9 -29 -18 -31 -19 -2 -1 6 -12 17 -23 28 -28 26 -37 -6 -58 -16 -9 -29
-18 -31 -19 -2 -1 4 -14 13 -28 16 -25 16 -27 -9 -70 -29 -50 -33 -76 -11 -76
8 0 15 -4 15 -10 0 -5 7 -10 16 -10 12 0 14 -10 12 -52 -3 -50 -5 -54 -37 -64
l-34 -11 51 -39 c29 -21 52 -42 52 -46 0 -4 -9 -13 -20 -21 -19 -13 -18 -15
26 -60 25 -26 50 -47 55 -47 5 0 19 11 31 25 28 32 38 31 108 -6 l58 -31 21
21 c25 25 22 24 111 10 l69 -12 30 32 c36 38 99 45 108 11 3 -11 10 -20 16
-20 5 0 15 -7 21 -15 10 -13 22 -14 84 -5 l73 10 30 -30 c32 -31 53 -38 65
-19 4 8 37 9 107 4 98 -7 100 -7 95 13 -3 12 -1 28 6 35 13 18 146 33 146 17
0 -5 7 -10 15 -10 8 0 15 -4 15 -10 0 -15 31 -12 50 5 13 12 23 13 44 6 14 -6
26 -15 26 -21 0 -17 68 -11 107 10 55 29 131 27 161 -4 12 -14 43 -32 67 -41
41 -16 47 -16 95 0 36 12 67 15 100 11 36 -5 50 -3 60 9 16 20 100 20 126 0
26 -20 34 -19 34 5 0 30 41 35 95 11 29 -13 69 -21 101 -21 29 0 56 -5 59 -10
9 -15 45 -12 51 5 8 20 53 19 94 -1 27 -14 52 -16 151 -10 97 5 124 4 148 -9
38 -19 41 -19 41 5 0 38 33 41 81 9 53 -35 71 -38 41 -6 -19 20 -20 26 -9 42
10 12 21 16 38 12 13 -3 53 -13 88 -21 57 -15 72 -15 140 -2 42 8 84 18 94 21
13 5 17 2 17 -13 0 -27 17 -37 23 -15 4 14 5 13 6 -4 1 -27 21 -41 21 -15 0
27 28 36 56 17 31 -20 44 -19 44 4 0 32 35 35 83 7 36 -22 51 -25 97 -20 30 3
64 9 75 14 38 16 168 19 210 4 60 -21 122 -18 142 6 24 28 62 24 103 -10 39
-34 55 -37 68 -13 14 25 91 22 130 -5 39 -29 67 -28 104 3 46 39 87 33 144
-20 34 -32 42 -31 55 1 9 26 11 27 79 22 53 -4 73 -2 81 9 8 9 29 13 58 12 25
-1 56 3 68 9 29 16 86 15 126 -1 18 -8 48 -12 67 -10 21 3 49 -3 71 -14 31
-17 46 -18 120 -10 46 5 103 18 126 28 57 25 72 24 141 -9 58 -28 59 -28 71
-9 11 17 20 19 84 12 39 -3 87 -13 108 -22 35 -14 39 -13 57 5 20 20 52 20 78
1 6 -5 19 1 32 16 26 30 37 31 94 5 33 -14 78 -21 179 -26 l134 -7 14 26 c20
37 43 41 84 17 28 -17 40 -19 56 -11 28 15 97 14 134 -3 51 -23 103 -25 116
-4 14 22 33 23 74 1 20 -10 51 -15 85 -14 31 1 60 -3 68 -10 11 -9 18 -9 26
-1 17 17 59 15 85 -3 34 -24 151 -4 176 30 10 14 24 25 31 25 7 0 17 10 23 22
8 18 6 29 -8 48 -30 41 -33 75 -10 97 11 10 24 31 30 46 10 25 7 30 -27 62
-42 39 -39 57 16 84 17 9 32 20 32 24 0 5 -13 22 -30 39 -36 36 -37 43 -5 64
29 19 34 64 10 84 -26 21 -14 54 20 60 27 5 30 9 27 40 -2 19 -11 46 -21 60
-20 29 -41 85 -41 111 0 12 10 21 25 25 21 5 24 11 19 28 -3 11 -10 25 -15 30
-5 6 -9 29 -9 52 0 33 -5 45 -25 58 -32 21 -32 39 0 63 32 23 47 93 21 93 -9
0 -19 7 -22 15 -4 9 -19 15 -35 15 -22 0 -29 5 -29 20 0 14 11 22 38 29 20 6
43 11 50 11 6 0 12 11 12 25 0 16 -6 25 -15 25 -8 0 -15 5 -15 10 0 6 -7 10
-16 10 -13 0 -16 7 -11 39 4 30 0 42 -15 55 -27 23 -19 38 28 51 52 14 57 45
16 89 -59 62 -61 96 -7 96 18 0 39 7 46 16 11 14 7 21 -29 51 -59 49 -53 97
14 117 20 6 21 10 11 36 -10 25 -8 31 13 48 l23 19 -21 21 c-23 23 -31 86 -12
97 8 5 7 11 0 20 -7 8 -10 34 -9 58 2 31 -2 50 -14 61 -22 22 -21 32 3 49 l20
14 -20 18 c-25 23 -25 41 0 55 24 13 26 45 5 66 -8 9 -15 24 -15 34 0 27 -24
67 -54 91 -14 11 -26 25 -26 30 0 5 18 18 41 29 40 21 40 22 34 63 -4 23 -13
49 -21 58 -24 27 -18 76 14 96 53 33 72 56 66 77 -8 26 -43 55 -66 56 -22 0
-23 13 -3 30 8 7 15 20 15 29 0 20 -34 51 -56 51 -31 0 -9 35 31 48 22 7 42
18 46 24 8 12 -7 54 -28 79 -21 26 -16 58 12 71 24 11 24 12 8 30 -15 17 -15
20 10 46 35 36 34 61 -3 115 -36 53 -36 55 -9 83 17 19 19 25 8 42 -10 16 -10
23 0 36 14 17 6 76 -11 76 -13 0 -38 26 -38 40 0 6 15 17 34 25 19 8 38 20 42
27 15 23 7 166 -10 190 -9 12 -16 30 -16 39 0 9 -7 22 -15 29 -23 19 -20 87 5
100 19 10 19 11 0 30 -27 27 -25 44 5 68 28 23 32 37 10 46 -21 8 -19 50 5 71
11 10 20 24 20 30 0 7 7 18 15 25 8 7 15 20 15 30 0 10 -7 20 -15 24 -8 3 -15
16 -15 29 0 14 -7 30 -15 37 -20 16 -19 27 5 58 l20 25 -21 24 c-21 21 -21 24
-6 40 8 10 17 31 19 47 3 24 -3 31 -34 48 -33 18 -38 24 -38 57 0 30 5 40 30
55 l31 18 -26 20 c-29 22 -32 44 -9 69 14 16 14 19 -5 38 -23 23 -28 70 -10
88 8 8 8 13 0 17 -20 13 -11 45 17 60 15 8 21 15 14 16 -7 0 -22 9 -33 19 -27
25 -11 57 34 69 27 7 32 13 35 43 2 19 8 38 13 43 12 13 11 36 -2 36 -18 0
-41 30 -35 45 3 8 13 15 22 15 12 0 15 6 10 23 -3 12 -9 40 -12 62 -10 77 -14
85 -34 85 -11 0 -20 7 -20 15 0 8 -4 15 -10 15 -16 0 -11 25 10 53 18 22 19
29 8 54 -7 15 -25 40 -40 55 -16 14 -28 36 -28 48 0 12 -5 30 -11 42 -9 16 -7
24 10 42 13 13 19 30 16 39 -4 8 -2 24 4 35 8 16 5 23 -19 41 -37 27 -38 45
-5 76 l26 23 -26 26 c-18 19 -25 36 -25 66 0 38 1 40 31 40 35 0 114 43 89 48
-9 1 -21 11 -28 22 -10 17 -9 23 10 42 23 23 25 52 6 75 -5 7 -7 21 -3 33 4
14 2 20 -9 20 -8 0 -20 9 -26 20 -9 16 -6 22 15 36 25 17 25 17 5 31 -11 8
-20 21 -20 29 0 8 -7 14 -15 14 -21 0 -37 34 -23 48 7 7 17 12 24 12 6 0 14 9
17 20 3 11 12 20 21 20 23 0 20 27 -4 40 -21 11 -27 54 -9 65 6 4 8 13 5 21
-3 7 6 27 20 44 21 24 23 30 9 30 -17 0 -45 22 -45 36 0 4 8 13 18 20 16 13
16 13 0 14 -26 0 -58 31 -58 55 0 11 9 26 20 32 18 12 18 15 4 49 -8 20 -14
52 -12 72 3 33 6 38 36 42 18 3 33 9 34 15 1 5 -17 25 -41 42 -33 26 -52 33
-87 33 -48 0 -57 11 -21 28 22 10 22 11 -5 11 -20 1 -26 5 -22 16 9 23 -93 20
-156 -5 -46 -18 -53 -19 -80 -5 -16 8 -32 19 -35 25 -3 5 -19 10 -34 10 -15 0
-36 6 -47 14 -17 13 -21 12 -42 -12 -16 -18 -25 -23 -28 -14 -3 6 -12 12 -20
12 -8 0 -14 5 -14 10 0 17 -49 11 -69 -9 -42 -42 -280 -22 -317 27 -8 12 -14
9 -29 -14z m-2651 -2524 c218 -190 403 -345 411 -345 8 0 105 81 215 180 111
99 206 179 211 177 12 -3 1429 -1291 1429 -1298 0 -3 -28 17 -62 44 -440 347
-1181 922 -1185 918 -3 -2 3 -50 13 -105 10 -56 15 -104 11 -107 -3 -3 -120
10 -259 29 -139 19 -255 32 -258 30 -3 -3 14 -22 38 -42 l43 -37 87 3 87 4
154 -136 c85 -74 156 -133 159 -131 2 3 -1 28 -8 55 -6 28 -10 55 -8 60 1 5
135 -65 296 -156 161 -91 291 -167 290 -168 -2 -2 -144 13 -315 34 -172 20
-313 34 -313 31 0 -4 91 -92 203 -197 111 -105 211 -201 222 -214 25 -29 85
-79 -984 813 l-896 747 -85 -82 c-47 -45 -172 -165 -278 -266 -105 -102 -190
-186 -189 -188 2 -2 124 53 272 123 147 69 271 122 275 117 11 -12 120 -273
120 -288 0 -7 -41 -62 -91 -121 -50 -60 -93 -115 -96 -121 -3 -7 61 -115 141
-239 80 -124 144 -229 142 -233 -3 -4 -66 -50 -140 -102 -75 -52 -136 -96
-136 -99 0 -3 44 -16 98 -29 290 -72 489 -154 952 -392 259 -134 535 -220 783
-245 61 -6 67 -5 67 12 0 10 28 47 63 82 l62 63 -44 -16 c-24 -8 -47 -15 -51
-15 -4 0 2 48 14 106 21 106 22 107 71 151 51 46 51 46 -17 27 -22 -6 -21 -12
-3 78 11 51 22 78 38 91 18 14 19 16 3 10 -17 -5 -18 -3 -13 23 3 16 14 73 23
127 10 53 20 97 24 97 3 0 19 -66 35 -147 15 -82 30 -156 33 -165 3 -14 -2
-18 -24 -18 l-29 -1 31 -13 c27 -12 32 -21 42 -72 19 -90 18 -94 -25 -94 l-38
-1 45 -22 c37 -18 46 -28 51 -57 4 -19 12 -61 19 -94 l12 -58 44 43 c44 43 46
61 4 39 -12 -6 -24 -9 -27 -7 -2 3 3 43 12 89 15 73 22 87 54 115 l36 32 -31
-5 -32 -6 11 53 c5 30 16 61 24 70 8 10 10 18 4 20 -8 4 22 185 33 196 1 2 14
-54 28 -124 20 -107 22 -130 11 -139 -11 -9 -10 -12 5 -16 14 -4 21 -18 26
-53 4 -26 10 -54 13 -61 4 -10 -4 -14 -28 -15 l-34 -1 36 -15 c34 -14 37 -18
48 -81 7 -37 15 -77 18 -89 5 -21 2 -23 -38 -23 l-44 0 45 -26 c25 -14 49 -32
53 -40 14 -25 24 -15 31 28 4 26 18 54 34 71 17 18 21 27 12 25 -9 -1 -17 0
-19 5 -9 19 12 94 31 114 17 18 18 23 6 23 -13 0 -13 13 5 101 11 56 23 95 27
87 12 -22 32 -137 25 -147 -3 -5 -1 -11 4 -13 4 -1 11 -20 15 -40 6 -32 4 -38
-11 -39 -15 0 -15 -2 3 -9 14 -6 23 -21 27 -47 11 -63 9 -73 -14 -73 -18 0
-15 -5 17 -27 l39 -26 125 43 c168 58 326 126 499 216 79 41 146 73 148 71 2
-2 -25 -36 -59 -75 -258 -292 -663 -524 -1093 -625 -189 -45 -332 -60 -545
-60 -445 1 -786 103 -1154 347 -298 197 -514 307 -848 430 -33 12 -48 24 -52
41 -4 16 -23 33 -54 50 -81 42 -83 46 -22 43 32 -2 55 1 54 7 -8 64 -39 203
-48 212 -6 7 -29 19 -51 27 l-40 15 43 0 c47 1 47 -1 30 89 -11 58 -15 66 -42
78 -25 10 -27 13 -10 14 11 0 23 2 26 5 5 5 -47 286 -59 315 -3 8 -16 -34 -29
-95 -28 -138 -29 -146 -6 -139 13 4 11 1 -5 -13 -16 -12 -27 -41 -38 -92 -8
-41 -14 -76 -12 -78 3 -2 16 1 31 7 50 19 51 10 1 -34 -49 -43 -50 -44 -71
-150 -12 -58 -18 -106 -14 -106 4 0 27 7 51 15 l44 16 -61 -62 -61 -61 -67 7
c-61 7 -68 10 -77 34 -6 14 -22 36 -37 48 -25 20 -25 22 -4 16 24 -6 27 3 16
70 -5 27 -14 42 -33 52 -25 14 -25 14 -3 15 19 0 22 4 16 28 -3 15 -8 34 -11
42 -3 8 -7 26 -8 40 -1 14 -8 52 -15 85 l-13 60 -14 -59 c-7 -33 -11 -61 -8
-64 3 -3 1 -10 -4 -16 -4 -6 -11 -26 -14 -43 -5 -27 -3 -33 11 -33 15 0 14 -3
-4 -18 -13 -10 -25 -37 -31 -70 -10 -50 -9 -53 8 -49 26 7 24 -5 -5 -33 -14
-12 -28 -34 -31 -49 l-5 -26 -163 -2 c-369 -5 -827 -89 -1317 -242 -35 -11
-66 -18 -68 -16 -5 5 211 113 290 145 62 25 61 24 79 120 11 60 16 70 72 128
34 34 59 62 55 62 -3 0 -25 -7 -48 -15 -23 -8 -44 -15 -45 -15 -1 0 8 49 20
110 22 106 24 111 66 149 l44 40 -39 -6 c-34 -5 -38 -4 -33 13 3 10 11 45 17
76 8 39 18 63 33 73 19 13 20 15 3 15 -15 0 -17 5 -13 28 3 15 13 69 23 120
10 50 21 92 24 92 3 0 19 -66 34 -147 16 -82 31 -153 33 -160 3 -7 -7 -13 -24
-16 l-28 -3 31 -13 c28 -11 32 -18 42 -75 19 -100 19 -100 -30 -92 -50 8 -43
-3 15 -24 l41 -15 18 -90 c10 -50 20 -100 23 -112 5 -20 1 -22 -47 -25 l-52
-3 51 -27 c28 -16 62 -28 76 -28 27 0 31 7 43 75 9 56 19 73 78 133 l51 53
-44 -16 c-24 -8 -46 -13 -48 -11 -3 2 5 51 16 108 20 101 22 104 68 146 l48
43 -37 -6 c-44 -8 -44 -9 -24 83 8 37 21 69 32 77 16 12 17 14 3 15 -14 0 -13
14 9 125 14 69 27 124 28 122 5 -5 64 -296 64 -313 0 -7 -10 -14 -22 -17 -22
-3 -22 -4 4 -15 15 -6 30 -22 33 -34 33 -147 34 -142 -15 -135 -49 6 -45 -5 9
-23 37 -12 41 -17 50 -62 6 -27 11 -57 12 -66 0 -11 5 -7 13 11 7 15 37 52 66
82 56 57 56 63 1 44 -18 -6 -34 -9 -37 -7 -2 3 5 52 17 109 20 101 22 105 68
147 25 24 39 42 31 39 -8 -2 -25 -7 -37 -11 -27 -9 -28 -4 -12 80 7 34 19 66
30 76 20 17 26 34 9 23 -6 -3 -10 4 -10 17 0 29 42 240 46 235 6 -5 64 -297
64 -319 0 -12 -8 -18 -22 -19 -21 -1 -20 -2 5 -11 15 -5 29 -19 32 -31 32
-144 33 -137 -17 -138 -24 0 -36 -3 -28 -6 8 -3 33 -14 55 -25 l40 -18 575
575 c316 316 578 574 581 573 3 -2 184 -158 403 -348z m471 -755 c127 -98 236
-183 242 -189 7 -7 20 -63 28 -126 8 -62 19 -116 23 -119 5 -3 104 -68 221
-145 116 -76 210 -140 209 -142 -4 -4 -589 180 -605 189 -6 4 -32 60 -58 124
-26 65 -50 122 -54 126 -5 5 -11 -19 -15 -52 -4 -34 -10 -61 -13 -61 -15 0
-243 154 -243 165 0 6 12 22 26 36 14 13 34 36 45 50 l18 26 -69 174 c-39 95
-70 177 -70 182 0 5 19 -6 43 -25 23 -19 146 -114 272 -213z m-1946 -760 c409
-60 747 -222 1251 -600 462 -346 705 -475 1012 -537 156 -32 436 -31 612 1 66
11 121 20 123 18 6 -6 -204 -84 -297 -110 -146 -42 -225 -52 -405 -51 -139 0
-187 4 -264 22 -269 64 -465 169 -936 502 -566 400 -884 556 -1302 639 -217
44 -351 54 -621 49 -206 -4 -230 -3 -187 9 78 20 339 62 450 72 134 13 435 5
564 -14z"/>
<path d="M5595 3175 c48 -30 51 -30 58 -6 3 15 -2 20 -25 25 -65 13 -75 7 -33
-19z"/>
</g>
</svg>
