<svg id="Layer_3" data-name="Layer 3" xmlns="http://www.w3.org/2000/svg" width="50.79mm" height="50.53mm" viewBox="0 0 143.96 143.23">
  <defs>
    <style>
      .cls-1 {
        fill: #42ba87;
      }

      .cls-1, .cls-2 {
        fill-rule: evenodd;
      }

      .cls-2 {
        fill: #fffeff;
      }
    </style>
  </defs>
  <g>
    <path id="path2172" class="cls-1" d="M272,431.06a1.41,1.41,0,0,1-.34-.28,2.25,2.25,0,0,0-1.43-.28,2.44,2.44,0,0,0-1.09.12,3.81,3.81,0,0,1-1.37.11c-1.23-.06-1.91-.17-2.19-.45a1.32,1.32,0,0,0-.81-.22c-.35,0-.62.11-.69.44-.07.17-.07.17-.34.17s-.34,0-.41-.11c-.14-.28-.41-.28-1.5-.28h-1c-.06-.11-.2-.17-.27-.22a1,1,0,0,0-.41-.23,1.28,1.28,0,0,1-.41-.17,2,2,0,0,0-.61-.05c-.34,0-.41,0-.62.17s-.2.16-.13.44,0,.28-.21.28-.13-.05-.13-.11-.21-.33-.55-.5a2.68,2.68,0,0,0-.82-.06h-.82a1.3,1.3,0,0,0-.68.62c-.07.22-.14.22-.28.11s-.61-.28-1.23-.28-.54,0-.75.11-.27.17-.34.17a.83.83,0,0,0-.34.06l-.48.16a1,1,0,0,1-.61,0,3.67,3.67,0,0,1-1.37-.56,1.39,1.39,0,0,0-.48-.67c-.27-.17-.27-.17-1.22-.17a2.67,2.67,0,0,0-1.37.17,2.1,2.1,0,0,0-.61.34c-.21.17-.21.17-1,.17h-.75c-.07-.06-.07-.12-.07-.23a.62.62,0,0,0-.61-.45,1,1,0,0,0-.82.45c-.14.17-.14.23-.41.17s-.28,0-.34-.22a.66.66,0,0,0-.55-.56c-.41-.12-.62-.12-.82,0s-.34.11-1,.16-.75,0-.88.17a.43.43,0,0,0-.21.45,1.1,1.1,0,0,0,.07.5.92.92,0,0,1,.14.17,6.89,6.89,0,0,1-.89.06,2.56,2.56,0,0,1-1-.11c-.13-.12-.27-.12-.95-.12s-1,0-1.23.28a1.07,1.07,0,0,1-.41.12c-.14,0-.21,0-.21-.17s-.27-.67-.47-.84a3.32,3.32,0,0,0-1.1-.06c-.75,0-1,0-1.16.11a2.34,2.34,0,0,1-.75.12c-.54,0-.61-.06-.61-.4s-.21-.67-.48-.78a1.86,1.86,0,0,0-1.84.17.93.93,0,0,0-.55.78c0,.17-.14.17-.34.06a2.68,2.68,0,0,0-.82-.06,2.28,2.28,0,0,1-.82-.11,2,2,0,0,0-.68-.11c-.69-.06-1.16.22-1.16.61,0,.17-.14.28-.21.17s-.14-.11-.27-.11a.5.5,0,0,1-.28-.22c-.06-.12-.27-.23-.68-.4a2.13,2.13,0,0,1-.68-.33.89.89,0,0,0-.48-.11.45.45,0,0,0-.48.11c-.2.17-.27.22-.27.39s0,.17-.21.22a1,1,0,0,1-.47.12c-.21,0-.28-.06-.48-.45a5.28,5.28,0,0,1-.34-.51c-.07,0-.14-.11-.21-.16l-.2-.17a.83.83,0,0,1,.27-.11c.41-.17.55-.34.55-.62a.68.68,0,0,0-.14-.39,2.09,2.09,0,0,0-.75-.28c-.07,0-.21-.17-.41-.28a2.6,2.6,0,0,0-.55-.39c-.2-.11-.06-.28.41-.34s.55-.05.75-.39a2.35,2.35,0,0,0,.14-1.06,3.41,3.41,0,0,1-.07-.84c0-.06-.07-.12-.13-.17a1.15,1.15,0,0,0-.69-.11h-.41c0-.12.07-.17.07-.23a1.07,1.07,0,0,0,.14-.45.42.42,0,0,1,.2-.39,1.46,1.46,0,0,0,.28-.45,2.56,2.56,0,0,1,.27-.44,1,1,0,0,0-.14-.79,1.4,1.4,0,0,1-.34-.28.91.91,0,0,1-.27-.16c.2-.06.34-.12.54-.17.48-.23.82-.51.82-.73a1.37,1.37,0,0,0-.54-.78.83.83,0,0,1-.28-.23c0-.05.14-.11.35-.17.75-.16.95-.5.95-1.34,0-.34,0-.45-.13-.62a1.43,1.43,0,0,0-1.1-.39h-.34c.07-.05.07-.11.14-.17a.73.73,0,0,0,.13-.28.53.53,0,0,1,.07-.28c.21-.16.21-.67.14-1a2.56,2.56,0,0,0-.89-.9.21.21,0,0,1-.13-.06.89.89,0,0,1,.13-.28,2,2,0,0,0,.41-.78c0-.11,0-.28.07-.33a.53.53,0,0,0,.07-.28c.07-.23-.28-.68-.75-1.07a1.34,1.34,0,0,1-.34-.33c0-.12.13-.17.2-.23A.4.4,0,0,1,217,410a1.05,1.05,0,0,1,.27.11.68.68,0,0,0,1,.06c.21-.17.21-.12.07-1-.14-.56-.41-.84-1-.84a1.1,1.1,0,0,0-.4-.05v-.23c0-.05-.07-.11-.07-.16h.41c.88,0,1.57-.28,1.64-.68a.86.86,0,0,0-.35-1c-.2-.12-.2-.17-.13-.34a1.35,1.35,0,0,0,0-1,2,2,0,0,1-.14-.67.86.86,0,0,0-.34-.73.69.69,0,0,1-.21-.56.46.46,0,0,0-.2-.39c-.07-.05-.14-.11-.14-.17a.43.43,0,0,1,.14-.22.63.63,0,0,0,.14-.5.77.77,0,0,0-.35-.79c-.27-.17-.27-.17.07-.22a.89.89,0,0,0,.48-.23c.21-.16.27-.22.27-.44a2.84,2.84,0,0,1,.14-.68,1.07,1.07,0,0,0,.14-1.06,1.53,1.53,0,0,0-.48-.39c-.27-.11-.27-.17-.27-.28s.27-.39.61-.51.55-.22.48-.84-.07-.83-.48-1a2.36,2.36,0,0,0-.61-.06c-.21,0-.28-.05-.21-.11a2.12,2.12,0,0,0,.21-.62c0-.11.13-.22.2-.33a.5.5,0,0,0,.07-.84,1,1,0,0,0-.41-.11,1.11,1.11,0,0,1-.61-.28.13.13,0,0,1,.13-.12.65.65,0,0,0,.41-.67c0-.17,0-.39.07-.45s.2-.11.34-.11c.48-.11,1-.45,1-.73s-.14-.44-.69-.95a1.75,1.75,0,0,1-.47-.5,2.4,2.4,0,0,0,.47-.06c.35,0,.48,0,.62-.11.55-.39.34-1.12-.34-1.4-.14-.06-.14-.06-.14-.22a1.1,1.1,0,0,0-.61-.62c-.21-.05-.28-.11-.28-.22a.69.69,0,0,0-.07-.34c0-.05-.06-.11-.06-.17a.59.59,0,0,1,.34-.11l.68-.39a2,2,0,0,0,.75-.9c.07-.22.07-.28-.13-.5a2,2,0,0,0-.28-.34c-.07-.05-.07-.16-.07-.33a.65.65,0,0,0-.2-.45.86.86,0,0,0-.68-.34c-.14,0-.28-.05-.21-.05a.82.82,0,0,1,.07-.28.46.46,0,0,0,.14-.39c0-.17.06-.17.27-.17a.66.66,0,0,0,.41-.17c.14-.17.14-.22.14-.78,0-.9,0-1-.62-1.29-.14-.11-.27-.17-.41-.28a2.22,2.22,0,0,1-.07-.67,3.23,3.23,0,0,0-.07-1c-.13-.28-.13-.28-.06-.34a.71.71,0,0,0,.54-.28c.14-.22.14-.33.21-.84,0-.72-.07-.84-.55-.95a.85.85,0,0,1-.27-.05l.13-.23a.49.49,0,0,0,.07-.45v-.33H218c.55,0,.82-.06,1-.34a1.31,1.31,0,0,0-.06-1.12,2.6,2.6,0,0,0-1.1-.45c-.34,0-.41-.05-.41-.33a1.17,1.17,0,0,0-.07-.51c-.06-.11-.13-.28-.2-.39v-.22c.07,0,.2.05.34.05a1,1,0,0,0,.62-.16c.41-.39.13-.9-.55-.95-.34-.06-.41-.06-.61-.34s-.28-.34-.14-.34a.71.71,0,0,0,.54-.39c0-.11.14-.28.35-.39a1.14,1.14,0,0,0,.54-1.12,1.18,1.18,0,0,0-.13-.73,1.93,1.93,0,0,1-.41-.39c-.21-.11-.21-.11-.21-.45a.29.29,0,0,1,0-.33,1,1,0,0,1,.41-.06c.82,0,1.09-.17,1.16-.67.07-.28,0-.34-.13-.56a2,2,0,0,0-.55-.45c-.21-.11-.34-.22-.34-.28h.34a1.27,1.27,0,0,0,.55-.17.52.52,0,0,0,.13-.61c0-.12,0-.12.21-.17s.47-.34.47-.5a.94.94,0,0,0-.47-.51c-.07,0-.14-.05-.21-.05v-.51c.07-.28.07-.45.14-.45s.14-.11.27-.22.21-.17.14-.45,0-.39-.14-.5-.13-.23-.13-.73c0-.67,0-.78-.35-1a1.78,1.78,0,0,0-.88-.11c-.76,0-.82-.06-.41-.39a.58.58,0,0,0,.27-.28c0-.06.14-.17.2-.23a.57.57,0,0,0-.06-.78,1,1,0,0,0-.28-.11c-.13,0-.13-.11.28-.39l.41-.34v-.56c.06-.78-.07-1-.41-1.12s-.28-.11-.62,0-.54.17-.48.06a2.17,2.17,0,0,0,.21-.62c0-.17.07-.22.27-.33a.86.86,0,0,0,.48-.68c.07-.22-.27-.5-.55-.5a.21.21,0,0,1-.13-.06,2.58,2.58,0,0,1,.2-.39,1.39,1.39,0,0,0,.14-.61,1.5,1.5,0,0,1,0-.56.62.62,0,0,0-.21-.51.65.65,0,0,0-.47-.11c-.28-.06-.41-.17-.41-.28s.13-.17.41-.22a1.15,1.15,0,0,0,.61-.28c.14-.12.14-.23.14-.73s0-.62-.14-.73a.76.76,0,0,0-.41-.22c-.27-.06-.27-.06-.2-.28s0-.23.2-.28a.91.91,0,0,0,.41-.17c.14-.11.14-.23.14-.56s-.07-.67-.35-.78-.2-.34.07-.84a2.18,2.18,0,0,0,.34-1.24v-.61l-.2-.17a2.25,2.25,0,0,0-.41-.17h-.14a.45.45,0,0,1,.07-.22,5.17,5.17,0,0,1,1.71-1.29.81.81,0,0,0,.41-.17c.14-.17.2-.22.14-.45a2,2,0,0,0-1.51-1.45c-.27-.06-.34-.06-.34-.17s0-.11.21-.17c.41-.11.54-.28.54-.78a.88.88,0,0,0-.07-.62c-.06-.11-.13-.28-.13-.28a1.19,1.19,0,0,1-.48-.28,2,2,0,0,0-.41-.28l.2-.16a1.55,1.55,0,0,0,.62-1.18.88.88,0,0,0-.34-.84c-.14-.11-.14-.11-.14-.56a1.11,1.11,0,0,0-.14-.62c0-.05,0-.11.21-.28a.44.44,0,0,0,.14-.5c0-.17,0-.28.13-.39a1.4,1.4,0,0,0,.07-1.29,1.19,1.19,0,0,0-.61-.45c-.07,0,.13-.44.47-.84a.79.79,0,0,0,.21-.61,1.19,1.19,0,0,0-.27-.9c-.21-.17-.21-.22-.28-.61a2.79,2.79,0,0,0-.47-1.52l-.21-.16c.07-.06.14-.06.21-.12.34-.11.47-.39.47-.89a2.38,2.38,0,0,0-.07-.73c-.13-.28-.13-.28,0-.5s.14-.23.41-.28a.77.77,0,0,0,.55-.17.57.57,0,0,0,.14-.62.14.14,0,0,1,0-.22.61.61,0,0,0-.41-.9c-.14-.05-.14-.11-.07-.22s.27-.22.68-.34a1,1,0,0,0,.48-.56c0-.22-.41-.5-.68-.5-.07-.06-.21-.06-.21-.11A3.2,3.2,0,0,0,218,318c-.2-.05-.2-.05-.2-.28s.13-.33.2-.45a.93.93,0,0,0,.14-.5c0-.22-.07-.28-.28-.45s-.2-.17-.54-.11H217a.77.77,0,0,1,.07-.39c0-.39,0-.39.2-.56.41-.28.61-.79.41-1.07-.07-.05-.07-.33-.14-.78,0-.62,0-.73.14-.9a.78.78,0,0,0,.14-.5c.06-.33.06-.33.34-.45s.48-.28.48-.95c.06-.5.06-.56-.14-.73a1.37,1.37,0,0,0-1-.22h-.27V309c.07-.62.07-.73-.07-.84s-.2-.28-.07-.34a.57.57,0,0,0,.48-.56c0-.22,0-.28.14-.39s.27-.17.89-.17.75,0,.95-.11a.51.51,0,0,0-.27-.9,5.39,5.39,0,0,0-1.09,0c-1-.06-1,0-1-.45,0-.22.07-.22.27-.28.55-.17.62-.56.28-1.23a1.86,1.86,0,0,1-.21-.84,6,6,0,0,0-.14-.62c-.13-.16-.13-.16,0-.22a3.93,3.93,0,0,0,.48-.11l.41-.11c.07,0,.28-.12.48-.17.62-.23.75-.62.41-.95a1,1,0,0,0-.68-.17c-.14,0-.28-.06-.41-.06v-.56a1.72,1.72,0,0,0-.21-.89c-.2-.28-.2-.4-.13-.51a1.8,1.8,0,0,0,.06-.33.33.33,0,0,1,.14-.4c.34-.28.14-.95-.34-1.28a.55.55,0,0,1-.21-.28c0-.06.21-.23.41-.34.55-.28.69-.39.69-.67s-.48-.56-1.16-.5c-.34,0-.34,0-.34-.17s0-.17.06-.17a1.31,1.31,0,0,0,.48-.67c0-.06-.07-.17-.07-.23s0-.16.28-.28a1,1,0,0,0,.61-.95.77.77,0,0,0-.14-.45c-.2-.16-.2-.22,0-.28.48-.05.69-.39.48-.78,0-.17-.07-.39-.07-.56s-.06-.17-.06-.28c.06.06.13.06.2.11a2.35,2.35,0,0,0,1.23.45,1.19,1.19,0,0,0,1-.28.55.55,0,0,1,.27-.06,2.86,2.86,0,0,0,.95.12c.76,0,.82,0,.89.05.14.39.75.45,1.09.23.14-.17.14-.23.14-.79s.07-.61.14-.61.27.11.27.39a1.22,1.22,0,0,0,.34.95c.28.17.34.22.55.22a.93.93,0,0,0,.82-.33c.07-.06.07-.28.07-.51a.4.4,0,0,1,.06-.28h.55a1.26,1.26,0,0,0,.82-.16.75.75,0,0,0,.14-.34c.07-.17.07-.17.34-.06a1,1,0,0,0,.41.06c.2,0,.27.06.27.17a2,2,0,0,0,1.16.73.93.93,0,0,0,.48-.12,2.32,2.32,0,0,1,1-.05h.82a.19.19,0,0,0,.07.17.65.65,0,0,0,.75.39.62.62,0,0,0,.55-.67c0-.28,0-.34.14-.34a5,5,0,0,1,1.7.06c.14.05.14.05,0,.33a.48.48,0,0,0-.13.51c.06.56.47.67,1.7.61a1.85,1.85,0,0,0,1.16-.22,1.16,1.16,0,0,0,.62-.39c.34-.45.41-.51.89-.45a.79.79,0,0,0,.68-.23.28.28,0,0,0,.2-.22c0-.06.07-.11.14-.17s.07-.11.21.06a.76.76,0,0,1,.13.33c0,.17.34.45.62.45s.68-.28.68-.5v-.17c.07,0,.27.22.48.5.48.56.61.68,1,.73s.62,0,1.3-.56c.21-.17.34-.33.55-.5h.34c.34.05.34.05.68-.17a.81.81,0,0,1,.75-.28c.55.06.55,0,.75-.17s.35-.22.82.17a.61.61,0,0,0,.55.22c.2,0,.27.06.48.23a.72.72,0,0,0,.48.22,1,1,0,0,1,.34.11.59.59,0,0,0,.41.17,1.82,1.82,0,0,0,.82-.33c.13-.12.2-.17,1-.17s1,0,1.09-.06a.69.69,0,0,1,.48-.11,1.51,1.51,0,0,0,1-.34l.28-.11c.07,0,.13.17.13.51a1.69,1.69,0,0,0,.07.67,1.79,1.79,0,0,0,.82.39c.41-.06.89-.34.89-.62.07,0,.07-.11.14-.16s.13-.06.27,0a2.49,2.49,0,0,0,1,.11c.75,0,.89-.06,1-.17s.2-.11.2-.22.07-.06.21-.06a1.15,1.15,0,0,0,.41-.06,2.05,2.05,0,0,1,.48-.05,9.92,9.92,0,0,0,2.25.05h2l.41-.16a2.63,2.63,0,0,1,.75-.23c.27-.05.27,0,.41.11a3,3,0,0,0,1.5,1,1,1,0,0,1,.48.11,1.17,1.17,0,0,0,1.23-.22c.14-.11.14-.17.61-.17s.62,0,.75-.11c.41-.17.48-.17.48.62-.07,1,.07,1.12,1.16,1.06a2.77,2.77,0,0,0,1-.17c.48-.22.68-.39.61-.67v-.22h.28a1.38,1.38,0,0,0,.4-.17,1.23,1.23,0,0,1,.55-.11.8.8,0,0,0,.89-.51l.2-.33h.48a1.78,1.78,0,0,1,1.16.28c.48.22,1.3.16,1.5-.12a1,1,0,0,1,.69-.33.85.85,0,0,1,.2.11,4.34,4.34,0,0,0,1.57.67c.21-.05.28-.05.41-.22s.28-.17.69-.23h.54a4,4,0,0,1,.48.45c.55.39.61.39.82.39a.9.9,0,0,0,.55-.11.68.68,0,0,0,.2-.56V289c.27,0,.61-.06.89-.06h.95a1,1,0,0,0,.28.17c.34.28.41.33,1.43.33a4.85,4.85,0,0,0,1.3-.11,1.48,1.48,0,0,1,.68-.11H293v.45c0,.5.07.73.35.78.47.23.88-.05,1.36-.78.27-.56.48-.67.82-.67s.27,0,.41.16.55.4,1.16.56a1.35,1.35,0,0,0,1.57-.28c.27-.28.34-.28.75-.28a1.12,1.12,0,0,1,.75.17,1.65,1.65,0,0,1,.76.67,1.22,1.22,0,0,0,.81.51,1.43,1.43,0,0,0,1-.23.9.9,0,0,0,.62-.84v-.28l.27.12c.13.11.34.11.75.11H305l.28-.23a.73.73,0,0,0,.2-.22,1.05,1.05,0,0,0,.27.11,1.5,1.5,0,0,0,1.1.06,6.61,6.61,0,0,1,1.36-.23,1.17,1.17,0,0,1,.62.23.82.82,0,0,0,1-.28l.28-.23c.13-.11.2-.11.34.06l.54.28c.14.06.34.17.48.22a3.8,3.8,0,0,0,1.43.45.54.54,0,0,0,.55-.22c.21-.17.27-.28.27-.45v-.22a.52.52,0,0,1,.35.22,1,1,0,0,0,.81.22c.21-.05.28-.05.41.06a.86.86,0,0,0,1,.11c.27-.17.48-.17.55-.05s.34.33.68.33a.91.91,0,0,1,.41.11,2.39,2.39,0,0,0,.89.12c.68.05.68.05.88-.12a.5.5,0,0,0,.28-.28c0-.16.13-.22.41-.33a.55.55,0,0,1,.34-.11.31.31,0,0,1,.2.11.7.7,0,0,0,.89-.17c.14-.11.21-.17.27-.06a1,1,0,0,1,.41.4,1.67,1.67,0,0,0,.62.5,1.78,1.78,0,0,0,1.16-.11l.75-.23a.63.63,0,0,1,.48.06.58.58,0,0,0,.41.11.69.69,0,0,0,.61-.28,3.17,3.17,0,0,1,.75-.45c.62-.16.76-.16.69.06a.5.5,0,0,0,.2.34,1.28,1.28,0,0,0,.82.16c.55,0,.62,0,.68.06a.73.73,0,0,0,1,.28c.14-.11.2-.06.48.11a.65.65,0,0,0,.82.11.58.58,0,0,0,.41-.61.3.3,0,0,1-.07-.23h.34a.45.45,0,0,0,.48-.11c.13-.11.27-.22.27-.28v-.05a1.53,1.53,0,0,1,.75.5,1.41,1.41,0,0,0,1,.39.71.71,0,0,0,.61-.22c.34-.23.69-.28.82-.11a1.83,1.83,0,0,0,.34.16c.14,0,.41.23.82.56s.62.56.69.62a.72.72,0,0,0,.82,0c.2-.11.2-.17.27-.62a1.33,1.33,0,0,1,.27-.89c.14-.17.34-.45.41-.51s.07-.11.14-.16c.07.11.13.16.2.28.21.33.41.39.89.44a.87.87,0,0,1,.48.12c0,.05.27.16.48.22a1.62,1.62,0,0,0,1.09.11,8.23,8.23,0,0,1,1.57,0c.89.06,1.16-.05,1.23-.45,0-.11.07-.16.48-.28a4,4,0,0,1,.68-.11h.27V289c0,.67,1,.78,1.37.11a1.86,1.86,0,0,0,.13-.39c.07-.12.14-.12.35.11a2.6,2.6,0,0,0,1.09.39h.41c.13.11.2.22.34.34a1.13,1.13,0,0,0,.89.5,2.76,2.76,0,0,0,1.43-.45,1.13,1.13,0,0,1,.62-.17,11.28,11.28,0,0,1,2.45.06s-.2.06-.47.17c-.48.11-.69.28-.69.56s.34.5.75.5a3.21,3.21,0,0,0,.69-.05c.34-.12.41-.12.61,0a4.4,4.4,0,0,0,.48.11c.2,0,.2,0,.34.28a.82.82,0,0,0,.41.39,1.25,1.25,0,0,1,.27.17c.14,0,.07,0-.13.17a1.21,1.21,0,0,1-.69.16.69.69,0,0,0-.61.12l-.2.16a3.25,3.25,0,0,1,.06.73,2.68,2.68,0,0,0,.21,1.18,1.3,1.3,0,0,0,.27.5c.14.11.14.11-.2.28-.55.22-.62.34-.55.9.07.39.07.44.27.61a1,1,0,0,0,.41.17,1.52,1.52,0,0,1,.55.06c.07.05.14.05.2.11a.55.55,0,0,0-.27.11c-.14.06-.27.11-.27.17a.49.49,0,0,0,.07.67c.13.17.2.22.54.22s.41,0,.41.06-.13.22-.34.34a1.43,1.43,0,0,0-.41.44c-.14.23-.14.23-.07.56s.07.28-.13.45a.62.62,0,0,0-.21.51.7.7,0,0,0,.62.72c.2.06.27.06.27.34s-.07.28-.27.22a.59.59,0,0,0-.55.56c0,.23-.07.23-.27.28a.56.56,0,0,0-.41,1,.54.54,0,0,0,.41.12c.2.05.27.05.27.28-.07.39.14.56.55.61.13.06.34.11.34.17a1.13,1.13,0,0,1-.34.17c-.62.22-.69.33-.69.67a.43.43,0,0,0,.21.45.69.69,0,0,0,.48.17h.27c-.27.5-.34.61-.27.78s.13.22.2.22.07.23.14.4a.44.44,0,0,0,.2.44c.21.17.21.23,0,.23a1.08,1.08,0,0,0-.75.28,1,1,0,0,0,0,.89,1.38,1.38,0,0,0,.75.28.79.79,0,0,1,.21.06,5.3,5.3,0,0,1-.82.45c-.69.39-.75.45-.89.39a.86.86,0,0,0-.82.06c-.2.22-.2.22-.2.84.06.33.06.5.2.61a.4.4,0,0,1,.14.28c.07.22.2.34.54.5a1.26,1.26,0,0,1,.28.17l-.21.17c-.13.06-.27.17-.34.17a1.59,1.59,0,0,0-.55.84c0,.39.48.89,1.23,1.06.14.06.14.06,0,.11a.78.78,0,0,0-.34,1.07c.21.45.21.39,0,.39a.87.87,0,0,0-.61.5,1.06,1.06,0,0,0,.07.4,1.1,1.1,0,0,1,.2.72,1.32,1.32,0,0,0,.75,1.24c.21.16.34.28.34.33a3,3,0,0,0,.41.95c.14.06.14.11-.07.34-.54.56-.61.73-.61,1.12s0,.39.2.5a.58.58,0,0,0,.69.11c.13-.05.13,0,.13.17a.46.46,0,0,0,.21.39c.07.12.14.23.14.84a3.11,3.11,0,0,0,.27,1.52c.14.22.07.33-.27.28a.59.59,0,0,0-.55.56.57.57,0,0,0,.07.33,1.08,1.08,0,0,0,.75.28H360v.23a.59.59,0,0,1-.2.44c-.14.12-.14.23-.14.84s0,.67-.62.73a1.37,1.37,0,0,0-.88.56c-.21.34-.21.56-.07.78a1.66,1.66,0,0,0,1,.45h.28c-.07,0-.14.06-.14.11a.83.83,0,0,1-.34.06c-.27.06-.68.22-.75.39s-.14.39.13.67.28.4.14.45c-.34.11-.48.79-.27,1.18a2,2,0,0,0,.75.78c.07.11.14.17.07.17a1.43,1.43,0,0,0-.62.56,1.19,1.19,0,0,0,.07.84,3.27,3.27,0,0,0,.82.39h.14a3.06,3.06,0,0,1-.82.56c-.41.17-.55.34-.48.9,0,.33,0,.44.14.61a.4.4,0,0,1,.06.28.78.78,0,0,0,.89.51c.28-.06.28,0,.41.11s.14.22.07.28a1,1,0,0,0-.2.67c0,.17-.07.22-.21.22a.74.74,0,0,0-.34.56c-.07.17.34.51.55.56s.2.12.06.34a.4.4,0,0,0-.06.28c0,.11-.07.22-.14.22s-.48.28-.41.51a.48.48,0,0,0,.34.5c.14.11.21.17.21.56s.06.62.41.73c.13,0,.2,0,.2.33a.44.44,0,0,1-.27.45,1.06,1.06,0,0,0-.34.73.31.31,0,0,1-.21.28,1.57,1.57,0,0,0-.61.9c-.07.28.27.67.68.84.14.05.14.05,0,.22s-.27.17-.41.28a.86.86,0,0,0-.41.39c-.14.17-.21.23-.14.45a.89.89,0,0,0,.14.45.7.7,0,0,0,.61.33c.28,0,.21.06-.2.23s-.62.28-.55,1.12v.73l.28.16c.2.17.27.23.27.51a1.21,1.21,0,0,0,.48.95.49.49,0,0,1,.27.22c0,.06-.07.11-.14.23a4.24,4.24,0,0,0-.06,1.17c0,.9,0,.95.13,1.12s.07.23.07.34,0,.17-.2.28l-.28.22c0,.06-.07.17-.13.17a.87.87,0,0,0-.35.06c-.13.05-.34.16-.47.22a.52.52,0,0,0-.35.56.66.66,0,0,0,.69.45h.34V360a.93.93,0,0,0,.14.56c.13.39.13.5,0,.56a.62.62,0,0,0-.35.61c0,.06.14.17.21.28a.37.37,0,0,0,.2.11,2.39,2.39,0,0,1-.13.28,1.47,1.47,0,0,1-.41.45c-.34.28-.34.45,0,.84a1.69,1.69,0,0,1,.27.51.58.58,0,0,0,.41.5c.07.06.14.06.21.11v.62c0,.61-.07.67-.21.73s-.2.11-.27.22a3.6,3.6,0,0,0-.28.28.58.58,0,0,0-.13.34c0,.16.07.28.34.44s.27.4,0,.34a.74.74,0,0,0-.75.28c-.07.06-.07.28-.07.45s0,.33.27.56a.69.69,0,0,1,.28.39.85.85,0,0,0,.27.67c.2.11.2.17.07.39-.14.39-.41.56-1,.62-.34,0-.54.11-.61.22a.56.56,0,0,0-.07.73.71.71,0,0,0,.82.34h.41v.44c.07.45,0,.45-.14.56-.41.17-.55.62-.2.9a.8.8,0,0,0,.68.11c.2,0,.48,0,.48.06s.07.11.07.22,0,.28.13.45.07.11.14.22-.14.06-.21.12-.2.28-.27.39a.81.81,0,0,1-.2.28.55.55,0,0,0-.28.11c-.13.06-.34.17-.48.22s-.34.17-.34.23a1.62,1.62,0,0,0-.13.73,1.82,1.82,0,0,1-.07.61.51.51,0,0,1,.27.23c.27.16.34.22.34.55s0,.45.14.56a1,1,0,0,1,.07.51.42.42,0,0,0,.07.28,4,4,0,0,0-.55.28c-.68.28-1,.5-1,.78a.69.69,0,0,0,.13.34,1,1,0,0,0,.62.28c.2,0,.27,0,.27.11a1.36,1.36,0,0,0,.27.78c.21.17.21.28.21.62.07.5.13.73.48.84.13,0,.13.06.13.11v.45c0,.39-.07.39-.27.45a.91.91,0,0,0-.34.17c-.14.11-.21.16-.14.5s.07.45.62.67.41.17.2.17a1.25,1.25,0,0,0-.41.11c-.2.06-.55.45-.48.62s.21.44.55.56l.34.11-.2.17c-.14.11-.14.16-.14.78s0,.9.34,1a.33.33,0,0,1,.21.05.38.38,0,0,0-.21.12c-.27.16-.41.39-.34.95s.07.95.55,1.17a.88.88,0,0,0,.27.17c.07.06-.27.45-.34.45s-.21.11-.34.17a.46.46,0,0,0-.14.39.87.87,0,0,0,.34.67c.07.11.07.11-.14.23a.86.86,0,0,1-.41.16,1.48,1.48,0,0,0-.82.62,1.4,1.4,0,0,0-.06.89,5.7,5.7,0,0,0,1.23,1c.13.06.2.17.34.23-.07.11-.21.28-.28.39a1.77,1.77,0,0,1-.27.39c-.07,0-.14-.06-.27-.11a1,1,0,0,0-.89.05.59.59,0,0,0,0,.84,1.53,1.53,0,0,1,.2.34.69.69,0,0,0,.28.39c.61.51.82.73.75.84v.79a1.65,1.65,0,0,0-.27.05c-.14,0-.35.06-.35.11a.53.53,0,0,1-.34.12c-.61,0-.95.5-.47.89a.55.55,0,0,0,.34.17.8.8,0,0,1,.27.06l-.14.22c-.13.22-.13.34-.13.84s0,.56.13.67.34.17.62.22a.83.83,0,0,1,.34.06v.45c0,.11-.07.28-.07.45h-.2a2.9,2.9,0,0,0-.62.05,2.92,2.92,0,0,1-.54.17.52.52,0,0,0-.48.67.51.51,0,0,0,.2.45c.14.17.21.17.89.22h.75v.68c0,.67,0,.95-.2.95a1.53,1.53,0,0,0-.69.33c-.07,0-.07.17-.13.28a.58.58,0,0,0,.41.73,2.84,2.84,0,0,1,.41.17c.13.11.13.11.06.22a.65.65,0,0,0,.07.68c.14.05.14.11,0,.22s-.13.45.14.67.2.23.27.56a4,4,0,0,0,.07.45c.07.05,0,.11-.14.11s-.61.11-.68.28a.74.74,0,0,0,.07.84.88.88,0,0,1,.14.39,1,1,0,0,0,.27.79.45.45,0,0,1,.2.28c.07.05.07.16.21.28a1,1,0,0,1,.14.33,1.67,1.67,0,0,0,.06.51,1.66,1.66,0,0,1,.14.5v.22a1.52,1.52,0,0,0-.48.06c-.48,0-.61.06-.75.34a.59.59,0,0,0,.27.89c.21,0,.21.06.14.73v.67a.25.25,0,0,0-.2.06.55.55,0,0,0-.41.95c.2.28.68.73.82.73a.14.14,0,0,1,.13.16v.28c.07.06,0,.12-.2.12a.68.68,0,0,0-.48.11c-.68.45-.82.61-.89.73a.82.82,0,0,0,.34.78c.14.11.28.28.41.39a1,1,0,0,0,.41.28,1.8,1.8,0,0,1,.28.11c-.07.06-.14.17-.21.23a.9.9,0,0,0-.2.56c-.07.33-.07.33-.35.45a.72.72,0,0,0-.34.28.66.66,0,0,0,0,.84,1.66,1.66,0,0,1,.14.5c0,.17,0,.22.27.45s.34.22.34.28.07.17-.2.44a.55.55,0,0,0-.14.34c0,.11-.07.17-.27.17a.62.62,0,0,0-.61.39c-.07.39-.14.45-.41.5a.54.54,0,0,0-.41.12,2.68,2.68,0,0,1-.76.05,1.68,1.68,0,0,0-.81.17c-.07.06-.21.11-.28.17s-.13-.06-.2-.11-.28-.23-.41-.28a1.29,1.29,0,0,0-.75-.34,2,2,0,0,0-.89.28c-.14.17-.27.17-.55-.06l-.27-.22h-.62a1.94,1.94,0,0,0-.88.11c-.07.06-.21.06-.34.11s-.07-.05-.07-.11a2.53,2.53,0,0,0-.55-.33,1.13,1.13,0,0,0-.82-.23c-.48,0-.68.11-.75.45a.82.82,0,0,0-.07.28,1,1,0,0,0-.34-.17.69.69,0,0,0-.61-.11c-.21,0-.48.06-.55.06s-.14,0-.2-.12c-.21-.33-.41-.39-1.37-.39a5.8,5.8,0,0,1-1-.05,1.21,1.21,0,0,1-.47.22l-.41.17a2.52,2.52,0,0,1-.48-.39c-.41-.4-.55-.4-.75-.4a.81.81,0,0,0-.69.34.45.45,0,0,1-.2.28,1.68,1.68,0,0,0-.21.34c-.06.16-.13.22-.27.22a4.83,4.83,0,0,0-1.16-.06,2.79,2.79,0,0,0-1.23.06c-.14.06-.14.06-.48-.11s-.34-.17-1.36-.17c-.41,0-.75-.06-1.09-.06a1,1,0,0,0-.28-.16.69.69,0,0,0-.41-.23c-.07,0-.2-.11-.27-.17a1,1,0,0,0-.34-.05c-.34,0-.82.22-.89.5a.51.51,0,0,1-.27.28l-.21.17c0-.06-.07-.11-.13-.22s-.35-.28-.82-.28a.87.87,0,0,0-.55.11.46.46,0,0,0-.14.39c0,.17-.06.22-.2.22a1.11,1.11,0,0,1-.41-.22,2.54,2.54,0,0,0-1.09-.34,2.07,2.07,0,0,1-.62-.05,3,3,0,0,0-1.09-.11c-.27,0-.55-.06-.82-.06l-.21.17a.31.31,0,0,0-.2.33c0,.23-.14.28-.2.12a.72.72,0,0,0-.62-.34,4.52,4.52,0,0,1-1.3-.56c-.13-.11-.27-.11-.54-.11a2.06,2.06,0,0,0-1.16.33l-.41.17a.7.7,0,0,0-.28.17c-.06.11-.06.11-.2.06a4.49,4.49,0,0,0-1.3-.06.91.91,0,0,0-.34.17c-.14.17-.21.17-.34.11a.89.89,0,0,0-.75,0l-.41.17c-.14,0-.14,0-.21-.17-.2-.45-.34-.5-1.16-.5a4.78,4.78,0,0,0-.95,0,.52.52,0,0,1-.48-.06,3.08,3.08,0,0,0-1.78-.39c-.68,0-.68,0-.95.11a2.09,2.09,0,0,0-.41.28.21.21,0,0,1-.21.11,2.73,2.73,0,0,0-.89-.11c-.68,0-.75,0-.95.17a.79.79,0,0,0-.14.28c0,.17-.07.17-.61,0a2.71,2.71,0,0,0-1.1-.17c-.68-.06-.68-.06-.88.11s-.28.23-.28.51c0,.11-.06.22-.06.33h-.28c-.27,0-.34-.05-.34-.17a.53.53,0,0,0-.07-.28,5.47,5.47,0,0,0-1.29-.72,1.21,1.21,0,0,0-.76-.12c-.34.06-.41.06-.54.17a4.93,4.93,0,0,0-.75.79,6.22,6.22,0,0,1-1,0c-.07,0-.2-.12-.27-.28s-.34-.34-.41-.45-.27-.11-1-.11a4.15,4.15,0,0,0-.95.05c-.28.11-.48.34-.48.51s-.07.16-.27.11-.34-.06-.41-.23-.34-.44-.75-.72a1.45,1.45,0,0,0-.82-.17,1,1,0,0,0-.62.11.65.65,0,0,0-.13.34c0,.05-.07.16-.14.16s-.41.06-.82.06a1.63,1.63,0,0,0-.89.06c-.2.11-.2.11-.41-.06a1,1,0,0,0-.41-.22,1.27,1.27,0,0,1-.54-.17,1.84,1.84,0,0,0-1.23.05c-.21.12-.28.12-1.1.12-.34,0-.61-.06-.88-.06a1,1,0,0,0-.28.17c-.13.17-.2.22-.34.17a2.12,2.12,0,0,0-.68-.06c-.55,0-.55,0-.75.17l-.21.17a1.57,1.57,0,0,1-.54-.23,1.9,1.9,0,0,1-.69-.33,1.26,1.26,0,0,0-.88-.45.77.77,0,0,0-.48.11c-.21.17-.21.22-.21.56s-.13.45-.34.28c0-.06-.2-.22-.41-.34a.72.72,0,0,0-1,0c-.14.12-.21.17-.14.4s0,.28-.07.28l-.2-.17c-.21-.17-.21-.23-.14-.28a.55.55,0,0,0,.14-.34.59.59,0,0,0-.68-.5,2.31,2.31,0,0,0-1,.33c0,.06-.34.12-.82.12-.75,0-.82,0-1,.11s-.28.11-.69.11-.61-.06-.75-.11a3.24,3.24,0,0,0-.68-.17,3.24,3.24,0,0,1-.68-.17,1.9,1.9,0,0,0-.89-.22.68.68,0,0,0-.68.56c0,.22,0,.22.54.61.07.12.21.17.21.23s-.07.11-.21.05a2.81,2.81,0,0,1-1.16-.72.76.76,0,0,0-1.09-.12c-.27.28-.34.45-.21.73.07.11.14.17.14.28-.07-.05-.07-.05-.14-.05a.58.58,0,0,1-.34-.12" transform="translate(-216.04 -288)"/>
    <path id="path7" class="cls-1" d="M271.41,430.6a2.11,2.11,0,0,1-.34-.28,2.18,2.18,0,0,0-1.43-.28,2.65,2.65,0,0,0-1.09.11,3.81,3.81,0,0,1-1.37.11c-1.23-.05-1.91-.17-2.18-.45a1.44,1.44,0,0,0-.82-.22c-.35,0-.62.11-.69.45-.07.17-.07.17-.34.17s-.34,0-.41-.12c-.13-.28-.41-.28-1.5-.28h-1c-.07-.11-.21-.16-.28-.22a1,1,0,0,0-.41-.22c-.13,0-.27-.12-.41-.17a1.67,1.67,0,0,0-.61-.06c-.34,0-.41,0-.62.17s-.2.17-.13.45,0,.28-.21.28-.13-.06-.13-.11-.21-.34-.55-.51a3.2,3.2,0,0,0-.82-.05h-.82a1.33,1.33,0,0,0-.68.61c-.07.23-.14.23-.27.11s-.62-.28-1.23-.28-.55,0-.76.12-.27.16-.34.16a.86.86,0,0,0-.34.06c-.13.06-.34.11-.48.17a1.22,1.22,0,0,1-.61,0,3.85,3.85,0,0,1-1.37-.56,1.34,1.34,0,0,0-.47-.67c-.28-.17-.28-.17-1.23-.17a2.67,2.67,0,0,0-1.37.17,1.88,1.88,0,0,0-.61.33c-.21.17-.21.17-1,.17h-.75c-.07-.06-.07-.11-.07-.22a.62.62,0,0,0-.61-.45.94.94,0,0,0-.82.45c-.14.16-.14.22-.41.16s-.28,0-.34-.22a.67.67,0,0,0-.55-.56,1,1,0,0,0-.82,0c-.14.11-.34.11-1,.17s-.75,0-.88.17a.41.41,0,0,0-.21.44,1.15,1.15,0,0,0,.07.51.67.67,0,0,1,.14.17,8.25,8.25,0,0,1-.89.05,2.37,2.37,0,0,1-1-.11c-.13-.11-.27-.11-.95-.11s-1,0-1.23.28a1.25,1.25,0,0,1-.41.11c-.14,0-.2,0-.2-.17s-.28-.67-.48-.84a4,4,0,0,0-1.1-.05c-.75,0-.95,0-1.16.11a2.71,2.71,0,0,1-.75.11c-.54,0-.61-.06-.61-.39s-.21-.67-.48-.79a1.86,1.86,0,0,0-1.84.17,1,1,0,0,0-.55.79c0,.16-.14.16-.34.05a3.2,3.2,0,0,0-.82-.05,2.22,2.22,0,0,1-.82-.12,2.23,2.23,0,0,0-.68-.11c-.69-.05-1.16.23-1.16.62,0,.17-.14.28-.21.17s-.13-.12-.27-.12a.45.45,0,0,1-.27-.22,1.67,1.67,0,0,0-.69-.39,2.1,2.1,0,0,1-.68-.34,1,1,0,0,0-.48-.11.45.45,0,0,0-.48.11c-.2.17-.27.23-.27.39s0,.17-.2.23a1.31,1.31,0,0,1-.48.11c-.21,0-.28-.06-.48-.45s-.34-.5-.34-.5-.14-.11-.21-.17l-.2-.17c.14-.05.2-.11.27-.11.41-.17.55-.34.55-.62a.71.71,0,0,0-.14-.39,2.09,2.09,0,0,0-.75-.28c-.07,0-.2-.17-.41-.28a2.72,2.72,0,0,0-.55-.39c-.2-.11-.06-.28.41-.33a.7.7,0,0,0,.76-.4,2.53,2.53,0,0,0,.13-1.06,3.41,3.41,0,0,1-.07-.84c0-.06-.06-.11-.13-.17a1.15,1.15,0,0,0-.69-.11h-.41c0-.11.07-.17.07-.22a1.17,1.17,0,0,0,.14-.45.41.41,0,0,1,.2-.39,1.59,1.59,0,0,0,.28-.45,3,3,0,0,1,.27-.45,1,1,0,0,0-.14-.78c-.06-.06-.27-.17-.34-.28a1.42,1.42,0,0,1-.27-.17l.55-.17c.47-.22.81-.5.81-.73a1.37,1.37,0,0,0-.54-.78.62.62,0,0,1-.27-.23c0-.05.13-.11.34-.16.75-.17.95-.51.95-1.35,0-.33,0-.44-.13-.61a1.43,1.43,0,0,0-1.1-.39H217c.07-.06.07-.12.14-.17a.88.88,0,0,0,.14-.28.56.56,0,0,1,.06-.28c.21-.17.21-.67.14-1a2.56,2.56,0,0,0-.89-.9.23.23,0,0,1-.13-.05.73.73,0,0,1,.13-.28A1.92,1.92,0,0,0,217,412c0-.11,0-.28.07-.33a.51.51,0,0,0,.07-.28c.07-.23-.27-.67-.75-1.07a1.34,1.34,0,0,1-.34-.33c0-.11.13-.17.2-.23a.45.45,0,0,1,.21-.22c.06,0,.13.06.27.11a.68.68,0,0,0,1,.06c.21-.17.21-.11.07-1-.13-.56-.41-.84-.95-.84a1,1,0,0,0-.41-.06v-.22c0-.06-.07-.11-.07-.17h.41c.89,0,1.57-.28,1.64-.67a.86.86,0,0,0-.35-1c-.2-.11-.2-.17-.13-.34a1.33,1.33,0,0,0,0-1,2,2,0,0,1-.14-.68.84.84,0,0,0-.34-.72.73.73,0,0,1-.2-.56.49.49,0,0,0-.21-.4c-.07-.05-.14-.11-.14-.16a.41.41,0,0,1,.14-.23.63.63,0,0,0,.14-.5.74.74,0,0,0-.34-.78c-.28-.17-.28-.17.06-.23a.91.91,0,0,0,.48-.22c.21-.17.28-.23.28-.45a2.62,2.62,0,0,1,.13-.67,1.09,1.09,0,0,0,.14-1.07,1.55,1.55,0,0,0-.48-.39c-.27-.11-.27-.17-.27-.28a.84.84,0,0,1,.61-.5c.41-.06.55-.23.48-.84s-.07-.84-.48-1a2.36,2.36,0,0,0-.61-.06c-.21,0-.28,0-.21-.11a2.1,2.1,0,0,0,.21-.61c0-.12.13-.23.2-.34a.5.5,0,0,0,.07-.84,1.25,1.25,0,0,0-.41-.11,1.08,1.08,0,0,1-.61-.28.12.12,0,0,1,.13-.11.65.65,0,0,0,.41-.67c0-.17,0-.4.07-.45s.21-.11.34-.11c.48-.12,1-.45,1-.73s-.14-.45-.68-1a1.68,1.68,0,0,1-.48-.51,3,3,0,0,0,.48-.05c.34,0,.47,0,.61-.12.55-.39.34-1.12-.34-1.4-.14-.05-.14-.05-.14-.22a1.13,1.13,0,0,0-.61-.62c-.21-.05-.28-.11-.28-.22a.81.81,0,0,0-.06-.34c0-.05-.07-.11-.07-.16a.55.55,0,0,1,.34-.12l.68-.39a2,2,0,0,0,.75-.89c.07-.23.07-.28-.13-.51a1.61,1.61,0,0,0-.28-.33c-.07-.06-.07-.17-.07-.34a.65.65,0,0,0-.2-.45.82.82,0,0,0-.68-.33c-.14,0-.28-.06-.21-.06a.82.82,0,0,1,.07-.28.46.46,0,0,0,.14-.39c0-.17.07-.17.27-.17a.61.61,0,0,0,.41-.17c.14-.16.14-.22.14-.78,0-.9,0-1-.62-1.29-.13-.11-.27-.17-.41-.28a2.19,2.19,0,0,1-.07-.67,3.79,3.79,0,0,0-.06-1c-.14-.28-.14-.28-.07-.33a.74.74,0,0,0,.54-.28,1.82,1.82,0,0,0,.21-.84c0-.73-.07-.84-.55-1a.8.8,0,0,1-.27-.06l.14-.22a.53.53,0,0,0,.06-.45v-.34h.55c.55,0,.82,0,1-.33a1.31,1.31,0,0,0-.06-1.12,2.6,2.6,0,0,0-1.1-.45c-.34,0-.41-.06-.41-.34a1.27,1.27,0,0,0-.06-.5c-.07-.11-.14-.28-.21-.39v-.23c.07,0,.21.06.34.06a1,1,0,0,0,.62-.17c.41-.39.13-.9-.55-.95-.34-.06-.41-.06-.61-.34s-.28-.33-.14-.33a.76.76,0,0,0,.55-.4.57.57,0,0,1,.34-.39,1.6,1.6,0,0,0,.41-1.84,2.24,2.24,0,0,1-.41-.4c-.21-.11-.21-.11-.21-.44a.3.3,0,0,1,0-.34,1,1,0,0,1,.41-.06c.82,0,1.09-.16,1.16-.67.07-.28,0-.33-.13-.56a2.24,2.24,0,0,0-.55-.45c-.2-.11-.34-.22-.34-.28h.34a1.16,1.16,0,0,0,.55-.16.54.54,0,0,0,.13-.62c0-.11,0-.11.21-.17s.48-.33.48-.5a1,1,0,0,0-.48-.51c-.07,0-.14-.05-.21-.05v-.51c.07-.28.07-.44.14-.44s.14-.12.27-.23.21-.17.14-.45,0-.39-.14-.5-.13-.22-.13-.73c0-.67,0-.78-.35-1a1.65,1.65,0,0,0-.88-.12c-.75,0-.82-.05-.41-.39a.51.51,0,0,0,.27-.28c0-.05.14-.17.21-.22a.59.59,0,0,0-.07-.79c-.14-.05-.21-.11-.28-.11s-.13-.11.28-.39l.41-.34v-.56c.06-.78-.07-1-.41-1.12s-.28-.11-.62,0-.54.17-.48.06a2.07,2.07,0,0,0,.21-.62c0-.16.07-.22.27-.33a.83.83,0,0,0,.48-.67c.07-.23-.27-.51-.55-.51a.28.28,0,0,1-.13,0,3.39,3.39,0,0,1,.2-.39,1.44,1.44,0,0,0,.14-.62,1.5,1.5,0,0,1,0-.56.59.59,0,0,0-.21-.5.61.61,0,0,0-.47-.12c-.28-.05-.41-.16-.41-.28s.13-.16.41-.22a1.15,1.15,0,0,0,.61-.28c.14-.11.14-.22.14-.73s0-.61-.14-.73a.76.76,0,0,0-.41-.22c-.27-.06-.27-.06-.2-.28s0-.22.2-.28a.81.81,0,0,0,.41-.17c.14-.11.14-.22.14-.56s-.07-.67-.34-.78-.21-.34.06-.84a2.26,2.26,0,0,0,.35-1.23v-.62l-.21-.17a3,3,0,0,0-.41-.16h-.14a.48.48,0,0,1,.07-.23,5.31,5.31,0,0,1,1.71-1.29.9.9,0,0,0,.41-.16c.14-.17.2-.23.14-.45a2,2,0,0,0-1.51-1.46c-.27,0-.34,0-.34-.17s0-.11.21-.16c.41-.12.54-.28.54-.79a.9.9,0,0,0-.06-.61c-.07-.12-.14-.28-.14-.28a1.42,1.42,0,0,1-.48-.28,1.43,1.43,0,0,0-.41-.28l.21-.17a1.57,1.57,0,0,0,.61-1.18.88.88,0,0,0-.34-.84c-.14-.11-.14-.11-.14-.56a1.16,1.16,0,0,0-.13-.61c0-.06,0-.11.2-.28a.44.44,0,0,0,.14-.51.43.43,0,0,1,.13-.39,1.4,1.4,0,0,0,.07-1.29,1.17,1.17,0,0,0-.61-.44c-.07,0,.13-.45.48-.84a.84.84,0,0,0,.2-.62,1.19,1.19,0,0,0-.27-.9c-.21-.16-.21-.22-.28-.61a2.76,2.76,0,0,0-.47-1.51l-.21-.17c.07-.06.14-.06.21-.11.34-.11.47-.39.47-.9a2.81,2.81,0,0,0-.06-.73c-.14-.28-.14-.28,0-.5s.13-.22.41-.28a.74.74,0,0,0,.54-.17.55.55,0,0,0,.14-.61.15.15,0,0,1,0-.23.6.6,0,0,0-.41-.89c-.14-.06-.14-.12-.07-.23s.27-.22.68-.33a1.09,1.09,0,0,0,.48-.56c0-.23-.41-.51-.68-.51-.07-.05-.21-.05-.21-.11a2.78,2.78,0,0,0-.34-.06c-.2-.05-.2-.05-.2-.27s.13-.34.2-.45a.94.94,0,0,0,.14-.51c0-.22-.07-.28-.27-.44s-.21-.17-.55-.12h-.34a.77.77,0,0,1,.07-.39c0-.39,0-.39.2-.56.41-.28.62-.78.41-1.06-.07-.06-.07-.34-.14-.79,0-.61,0-.72.14-.89a.82.82,0,0,0,.14-.51c.07-.33.07-.33.34-.44s.48-.28.48-1c.06-.5.06-.56-.14-.72s-.48-.23-1-.23h-.27v-.67c.07-.61.07-.73-.07-.84s-.2-.28-.07-.33a.58.58,0,0,0,.48-.56c0-.23,0-.28.14-.4s.27-.16.89-.16.75,0,.95-.12a.5.5,0,0,0-.27-.89,4.51,4.51,0,0,0-1.09-.06c-1-.05-1,0-1-.45,0-.22.07-.22.27-.28.55-.16.62-.56.28-1.23a1.86,1.86,0,0,1-.21-.84c-.07-.22-.07-.5-.13-.61s-.14-.17,0-.23a2.78,2.78,0,0,0,.47-.11l.41-.11c.07,0,.28-.11.48-.17.62-.22.75-.61.41-1A1,1,0,0,0,218,300c-.14,0-.27-.05-.41-.05v-.56a1.79,1.79,0,0,0-.21-.9c-.2-.28-.2-.39-.13-.5a1.72,1.72,0,0,0,.07-.34.31.31,0,0,1,.13-.39c.34-.28.14-.95-.34-1.29a.45.45,0,0,1-.2-.28c0-.06.2-.22.41-.34.54-.28.68-.39.68-.67s-.48-.56-1.16-.5c-.34,0-.34,0-.34-.17s0-.17.06-.17a1.27,1.27,0,0,0,.48-.67c0-.06-.07-.17-.07-.22s0-.17.28-.28a1,1,0,0,0,.61-.95.8.8,0,0,0-.13-.45c-.21-.17-.21-.23,0-.28.47-.06.68-.39.47-.79,0-.16-.07-.39-.07-.56s-.06-.16-.06-.28c.06.06.13.06.2.12a2.23,2.23,0,0,0,1.23.44,1.16,1.16,0,0,0,1-.28.64.64,0,0,1,.27-.05,3.31,3.31,0,0,0,1,.11c.75,0,.82,0,.88.06.14.39.75.44,1.1.22.13-.17.13-.22.13-.78s.07-.62.14-.62.27.11.27.39a1.22,1.22,0,0,0,.34.95c.28.17.34.23.55.23a.93.93,0,0,0,.82-.34c.07-.05.07-.28.07-.5s0-.23.07-.28h.54a1.24,1.24,0,0,0,.82-.17.67.67,0,0,0,.14-.34c.07-.16.07-.16.34-.05a1.15,1.15,0,0,0,.41.05c.2,0,.27.06.27.17a2,2,0,0,0,1.16.73,1,1,0,0,0,.48-.11,2.3,2.3,0,0,1,1-.06H232a.18.18,0,0,0,.07.17.64.64,0,0,0,.75.39.61.61,0,0,0,.55-.67c0-.28,0-.34.14-.34a5.63,5.63,0,0,1,1.7.06c.14.06.14.06,0,.34a.47.47,0,0,0-.13.5c.07.56.48.67,1.7.62a1.81,1.81,0,0,0,1.17-.23,1.11,1.11,0,0,0,.61-.39c.34-.45.41-.5.89-.45a.78.78,0,0,0,.68-.22.32.32,0,0,0,.21-.23s.06-.11.13-.16.07-.12.21.05a.8.8,0,0,1,.13.34c0,.17.34.45.62.45s.68-.28.68-.51v-.17c.07,0,.27.23.48.51.48.56.61.67,1,.73s.62,0,1.3-.56c.21-.17.34-.34.55-.51h.34c.34.06.34.06.68-.17a.83.83,0,0,1,.75-.28c.55.06.55,0,.75-.16s.35-.23.82.16a.6.6,0,0,0,.55.23c.21,0,.27,0,.48.22a.74.74,0,0,0,.48.23.8.8,0,0,1,.34.11.64.64,0,0,0,.41.17,1.74,1.74,0,0,0,.82-.34c.13-.11.2-.17,1-.17a3.8,3.8,0,0,0,1.09-.05.65.65,0,0,1,.48-.12,1.61,1.61,0,0,0,1-.33l.27-.11c.07,0,.14.16.14.5a2,2,0,0,0,.06.67,1.79,1.79,0,0,0,.82.39c.41,0,.89-.33.89-.61.07,0,.07-.11.14-.17s.13-.06.27,0a2.3,2.3,0,0,0,1,.11c.76,0,.89-.05,1-.17s.2-.11.2-.22.07-.06.21-.06a1.36,1.36,0,0,0,.41,0,1.73,1.73,0,0,1,.48-.06,9.54,9.54,0,0,0,2.25.06h2l.41-.17a2.9,2.9,0,0,1,.75-.22c.27-.06.27,0,.41.11a3.06,3.06,0,0,0,1.5,1,1,1,0,0,1,.48.11,1.17,1.17,0,0,0,1.23-.23c.14-.11.14-.16.61-.16s.62,0,.76-.12c.41-.16.47-.16.47.62-.06,1,.07,1.12,1.16,1.06a2.79,2.79,0,0,0,1-.16c.48-.23.68-.4.61-.68v-.22h.28a1.55,1.55,0,0,0,.41-.17,1.29,1.29,0,0,1,.54-.11.8.8,0,0,0,.89-.5l.2-.34h.48a1.78,1.78,0,0,1,1.16.28,1.55,1.55,0,0,0,1.51-.11c.06-.17.47-.34.68-.34a1.1,1.1,0,0,1,.2.11,4.2,4.2,0,0,0,1.57.68c.21-.06.28-.06.41-.23s.28-.17.69-.22h.54a3.3,3.3,0,0,1,.48.45c.55.39.62.39.82.39a.9.9,0,0,0,.55-.11.69.69,0,0,0,.2-.56v-.34c.27,0,.62-.06.89-.06h1a.79.79,0,0,0,.28.17c.34.28.41.34,1.43.34a5.34,5.34,0,0,0,1.3-.11,1.37,1.37,0,0,1,.68-.12h.28v.45c0,.51.06.73.34.79.47.22.88-.06,1.36-.79.28-.56.48-.67.82-.67s.27,0,.41.17a2.15,2.15,0,0,0,1.16.56,1.37,1.37,0,0,0,1.57-.28c.28-.28.34-.28.75-.28a1.11,1.11,0,0,1,.75.17,1.6,1.6,0,0,1,.76.67,1.17,1.17,0,0,0,.82.5c.27.06.47,0,.95-.22a.91.91,0,0,0,.62-.84v-.28l.27.11c.14.11.34.11.75.11h.61l.28-.22a.78.78,0,0,0,.2-.23c.14.06.21.12.28.12a1.52,1.52,0,0,0,1.09.05,6.08,6.08,0,0,1,1.36-.22,1.16,1.16,0,0,1,.62.22.8.8,0,0,0,1-.28l.28-.22c.13-.11.2-.11.34.05l.54.28.48.23a4,4,0,0,0,1.44.45.52.52,0,0,0,.54-.23c.21-.17.28-.28.28-.45v-.22a.57.57,0,0,1,.34.22,1,1,0,0,0,.82.23c.2-.06.27-.06.41,0a.85.85,0,0,0,1,.12c.27-.17.48-.17.55-.06s.34.34.68.34a.8.8,0,0,1,.41.11,2.73,2.73,0,0,0,.89.11c.68.06.68.06.89-.11a.58.58,0,0,0,.27-.28c0-.17.14-.23.41-.34a.62.62,0,0,1,.34-.11.37.37,0,0,1,.2.11.7.7,0,0,0,.89-.17c.14-.11.21-.16.28-.05a1,1,0,0,1,.41.39,1.55,1.55,0,0,0,.61.5,1.71,1.71,0,0,0,1.16-.11c.21-.05.55-.17.75-.22a.64.64,0,0,1,.48.05.55.55,0,0,0,.41.12.69.69,0,0,0,.61-.28,2.53,2.53,0,0,1,.76-.45c.61-.17.75-.17.68.05a.46.46,0,0,0,.2.34,1.28,1.28,0,0,0,.82.17c.55,0,.62,0,.68.05a.73.73,0,0,0,1,.28c.14-.11.21,0,.48.12a.66.66,0,0,0,.82.11.59.59,0,0,0,.41-.62c-.07-.05-.07-.17-.07-.22H332a.46.46,0,0,0,.48-.11c.14-.12.27-.23.27-.28v-.06a1.56,1.56,0,0,1,.75.5,1.41,1.41,0,0,0,1,.4.71.71,0,0,0,.61-.23c.35-.22.69-.28.82-.11a1.78,1.78,0,0,0,.34.17c.14,0,.41.22.82.56a8,8,0,0,0,.69.61.72.72,0,0,0,.82,0c.2-.11.2-.16.27-.61a1.36,1.36,0,0,1,.27-.9,6.19,6.19,0,0,1,.41-.5c.07-.06.07-.11.14-.17.07.11.14.17.2.28.21.34.41.39.89.45a.89.89,0,0,1,.48.11c0,.06.27.17.48.22a1.69,1.69,0,0,0,1.09.12,6.86,6.86,0,0,1,1.57,0c.89.05,1.16-.06,1.23-.45,0-.11.07-.17.48-.28a3.18,3.18,0,0,1,.68-.11H347v.22c0,.67,1,.78,1.37.11a1.89,1.89,0,0,0,.14-.39c.06-.11.13-.11.34.11a2.35,2.35,0,0,0,1.09.39h.41c.14.12.2.23.34.34a1.11,1.11,0,0,0,.89.5,2.83,2.83,0,0,0,1.43-.44,1,1,0,0,1,.62-.17,10.89,10.89,0,0,1,2.46.05s-.21.06-.48.17c-.48.11-.69.28-.69.56s.35.51.76.51a2.65,2.65,0,0,0,.68-.06c.34-.11.41-.11.61,0a2.82,2.82,0,0,0,.48.11c.21,0,.21,0,.34.28a.82.82,0,0,0,.41.39,1.48,1.48,0,0,1,.28.17c.13,0,.06.06-.14.17a1.2,1.2,0,0,1-.68.17.71.71,0,0,0-.62.11l-.2.17a3.17,3.17,0,0,1,.06.72,2.68,2.68,0,0,0,.21,1.18,1.3,1.3,0,0,0,.27.5c.14.12.14.12-.2.28-.55.23-.62.34-.55.9.07.39.07.45.27.62a.84.84,0,0,0,.41.16,1.52,1.52,0,0,1,.55.06c.07.06.14.06.21.11a.66.66,0,0,0-.28.11c-.13.06-.27.12-.27.17a.49.49,0,0,0,.07.67c.13.17.2.23.54.23s.41,0,.41.05-.13.23-.34.34a1.47,1.47,0,0,0-.41.45c-.13.22-.13.22-.07.56s.07.28-.13.45a.59.59,0,0,0-.21.5.71.71,0,0,0,.62.73c.2,0,.27,0,.27.33s-.07.28-.27.23a.59.59,0,0,0-.55.56c0,.22-.07.22-.27.28a.56.56,0,0,0-.41.95.57.57,0,0,0,.41.11c.2.06.27.06.27.28-.07.39.14.56.55.62.13.05.34.11.34.16a.92.92,0,0,1-.34.17c-.62.23-.69.34-.69.67a.42.42,0,0,0,.21.45.7.7,0,0,0,.48.17h.27c-.27.5-.34.62-.27.78s.13.23.2.23.07.22.14.39a.46.46,0,0,0,.2.45c.21.17.21.22,0,.22a.75.75,0,0,0-.75,1.18,1.46,1.46,0,0,0,.75.28.91.91,0,0,1,.21.05,4.5,4.5,0,0,1-.82.45c-.68.39-.75.45-.89.39a.86.86,0,0,0-.82.06c-.2.22-.2.22-.2.84.07.33.07.5.2.61a.4.4,0,0,1,.14.28c.07.23.2.34.54.51a.79.79,0,0,1,.28.17l-.21.16c-.13.06-.27.17-.34.17a1.66,1.66,0,0,0-.54.84c0,.39.47.9,1.22,1.07.14.05.14.05,0,.11a.77.77,0,0,0-.34,1.06c.21.45.21.39,0,.39a.86.86,0,0,0-.61.51,1,1,0,0,0,.07.39,1.14,1.14,0,0,1,.2.73,1.31,1.31,0,0,0,.75,1.23c.21.17.34.28.34.33a3.06,3.06,0,0,0,.41,1c.14.05.14.11-.06.33-.55.56-.62.73-.62,1.12s0,.39.21.51a.6.6,0,0,0,.68.11c.14-.06.14,0,.14.17a.46.46,0,0,0,.2.39c.07.11.14.22.14.84a3.07,3.07,0,0,0,.27,1.51c.14.22.07.33-.27.28a.59.59,0,0,0-.55.56.57.57,0,0,0,.07.33,1,1,0,0,0,.75.28h.34v.23a.61.61,0,0,1-.2.45c-.14.11-.14.22-.14.84s0,.67-.61.72a1.41,1.41,0,0,0-.89.56.67.67,0,0,0-.07.79c.07.17.61.39,1,.45h.27c-.07,0-.14.05-.14.11a1,1,0,0,1-.34.05c-.27.06-.68.23-.75.4s-.14.39.14.67.27.39.13.45c-.34.11-.48.78-.27,1.17a2,2,0,0,0,.75.78c.07.12.14.17.07.17a1.43,1.43,0,0,0-.62.56,1.31,1.31,0,0,0,.07.84,3.45,3.45,0,0,0,.82.39h.14a2.84,2.84,0,0,1-.82.56c-.41.17-.55.34-.48.9,0,.34,0,.45.14.62s.07.16.07.28a.76.76,0,0,0,.88.5c.28-.06.28,0,.41.11s.14.23.07.28a1,1,0,0,0-.2.67c0,.17-.07.23-.21.23a.73.73,0,0,0-.34.56c-.07.17.34.5.55.56s.2.11.06.33a.4.4,0,0,0-.06.28c0,.11-.07.23-.14.23s-.48.28-.41.5a.48.48,0,0,0,.34.5c.14.12.21.17.21.56s.06.62.41.73c.13.06.2.06.2.34a.45.45,0,0,1-.27.45,1,1,0,0,0-.34.72.29.29,0,0,1-.21.28,1.61,1.61,0,0,0-.61.9c-.07.28.27.67.68.84.14.06.14.06,0,.22s-.27.17-.41.28a.88.88,0,0,0-.41.4c-.14.16-.2.22-.14.44a.89.89,0,0,0,.14.45.71.71,0,0,0,.62.34c.27,0,.2,0-.21.22s-.61.28-.55,1.12v.73c.07.05.21.11.28.17s.27.22.27.5a1.2,1.2,0,0,0,.48,1,.51.51,0,0,1,.27.23c0,.05-.07.11-.14.22a4.34,4.34,0,0,0-.06,1.18c0,.89,0,.95.13,1.12s.07.22.07.33,0,.17-.2.28l-.28.23c0,.05-.07.16-.13.16a.81.81,0,0,0-.34.06l-.48.22a.5.5,0,0,0-.34.56.64.64,0,0,0,.68.45h.34v.28a.93.93,0,0,0,.14.56c.13.39.13.5,0,.56a.61.61,0,0,0-.34.62s.13.16.2.28.14.11.2.11-.06.17-.13.28a1.46,1.46,0,0,1-.41.45c-.34.28-.34.44,0,.84a1.38,1.38,0,0,1,.27.5.58.58,0,0,0,.41.5c.07.06.14.06.21.12V365c0,.62-.07.67-.21.73s-.2.11-.27.22-.21.23-.27.28a.55.55,0,0,0-.14.34c0,.17.07.28.34.45s.27.39,0,.33a.77.77,0,0,0-.75.28c-.07.06-.07.28-.07.45s0,.34.27.56a.69.69,0,0,1,.28.39.86.86,0,0,0,.27.67c.2.12.2.17.07.4-.14.39-.41.56-1,.61-.34.06-.54.11-.61.23a.55.55,0,0,0-.07.72.7.7,0,0,0,.82.34h.41v.45c.07.45,0,.45-.14.56a.51.51,0,0,0-.2.89.79.79,0,0,0,.68.12c.2,0,.48,0,.48.05s.07.11.07.23,0,.28.13.44.07.12.14.23-.14.05-.21.11-.2.28-.27.39a.81.81,0,0,1-.2.28.66.66,0,0,0-.28.11l-.47.23c-.21.11-.35.16-.35.22a1.78,1.78,0,0,0-.13.73,1.82,1.82,0,0,1-.07.61.52.52,0,0,1,.27.23c.28.17.34.22.34.56s0,.45.14.56a1,1,0,0,1,.07.5.42.42,0,0,0,.07.28,4,4,0,0,0-.55.28c-.68.28-1,.51-1,.79a.65.65,0,0,0,.13.33,1,1,0,0,0,.62.28c.2,0,.27,0,.27.11a1.36,1.36,0,0,0,.27.79c.21.17.21.28.21.61.07.51.14.73.48.84.13,0,.13.06.13.12v.44c0,.39-.07.39-.27.45a.91.91,0,0,0-.34.17c-.14.11-.21.17-.14.5s.07.45.62.67.41.17.2.17a1.25,1.25,0,0,0-.41.11c-.2.06-.54.45-.48.62s.21.45.55.56a2.74,2.74,0,0,0,.34.11l-.2.17c-.14.11-.14.17-.14.78s0,.9.34,1a.29.29,0,0,1,.21.06.36.36,0,0,0-.21.11c-.27.17-.41.39-.34,1s.07.95.55,1.18a1.21,1.21,0,0,0,.27.17c.07.05-.27.44-.34.44s-.21.12-.34.17a.46.46,0,0,0-.14.39.85.85,0,0,0,.34.67c.07.12.07.12-.14.23a.87.87,0,0,1-.4.17c-.35.11-.76.39-.82.61a1.38,1.38,0,0,0-.07.9,6,6,0,0,0,1.23,1c.13,0,.2.16.34.22-.07.11-.21.28-.28.39a1.77,1.77,0,0,1-.27.39c-.07,0-.13-.05-.27-.11a1,1,0,0,0-.89.06.59.59,0,0,0,0,.84,1.57,1.57,0,0,1,.21.33.68.68,0,0,0,.27.4c.61.5.82.72.75.84v.78c-.14,0-.2.06-.27.06s-.34.05-.34.11a.66.66,0,0,1-.35.11c-.61,0-.95.5-.47.89a.55.55,0,0,0,.34.17.8.8,0,0,1,.27.06l-.14.22c-.13.23-.13.34-.13.84s0,.56.13.67.35.17.62.23a1,1,0,0,1,.34,0v.45c0,.11-.07.28-.07.45H358a2.43,2.43,0,0,0-.62.06,3.73,3.73,0,0,1-.54.16.53.53,0,0,0-.48.68.5.5,0,0,0,.2.44c.14.17.21.17.89.23h.75v.67c0,.67,0,.95-.2.95a1.55,1.55,0,0,0-.69.34c-.06,0-.06.17-.13.28a.58.58,0,0,0,.41.72c.13.06.34.12.41.17s.13.11.07.23a.61.61,0,0,0,.06.67c.14.05.14.11,0,.22s-.13.45.14.67.2.23.27.56a3.61,3.61,0,0,0,.07.45c.07.06,0,.11-.14.11s-.61.12-.68.28a.78.78,0,0,0,.07.84.92.92,0,0,1,.14.4,1.05,1.05,0,0,0,.27.78.45.45,0,0,1,.2.28c.07.06.07.17.21.28a1,1,0,0,1,.14.34,1.61,1.61,0,0,0,.06.5,1.74,1.74,0,0,1,.14.5v.23a1.81,1.81,0,0,0-.48,0c-.47,0-.61.06-.75.34a.59.59,0,0,0,.28.89c.2,0,.2.06.13.73v.67a.26.26,0,0,0-.2.06.55.55,0,0,0-.41,1c.2.28.68.73.82.73s.13.06.13.17v.28c.07.05,0,.11-.2.11a.68.68,0,0,0-.48.11c-.68.45-.82.62-.89.73a.82.82,0,0,0,.34.78c.14.12.28.28.41.4a1.11,1.11,0,0,0,.41.28c.14.05.21.05.28.11s-.14.17-.21.22a1,1,0,0,0-.2.56c-.07.34-.07.34-.34.45a.82.82,0,0,0-.35.28.66.66,0,0,0,0,.84,1.74,1.74,0,0,1,.14.5c0,.17,0,.23.27.45s.35.22.35.28.06.17-.21.45a.5.5,0,0,0-.14.33c0,.12-.06.17-.27.17a.62.62,0,0,0-.61.39c-.07.4-.14.45-.41.51a.57.57,0,0,0-.41.11,2.18,2.18,0,0,1-.75.06,1.73,1.73,0,0,0-.82.16c-.07.06-.21.12-.28.17a.34.34,0,0,1-.2-.11c-.14-.06-.27-.22-.41-.28a1.33,1.33,0,0,0-.75-.34,2,2,0,0,0-.89.28c-.14.17-.27.17-.55,0l-.27-.23h-.61a1.81,1.81,0,0,0-.89.12c-.07.05-.21.05-.34.11s-.07-.06-.07-.11a2,2,0,0,0-.55-.34,1.17,1.17,0,0,0-.82-.22c-.48,0-.68.11-.75.44a.82.82,0,0,0-.07.28.89.89,0,0,0-.34-.16.69.69,0,0,0-.61-.12c-.21,0-.48.06-.55.06s-.14,0-.2-.11c-.21-.34-.41-.39-1.37-.39a4.85,4.85,0,0,1-1-.06,1.08,1.08,0,0,1-.47.22l-.41.17a2.88,2.88,0,0,1-.48-.39c-.41-.39-.55-.39-.75-.39a.77.77,0,0,0-.68.33.48.48,0,0,1-.21.28,1.53,1.53,0,0,0-.2.34c-.07.17-.14.22-.28.22a5.77,5.77,0,0,0-1.16,0,2.9,2.9,0,0,0-1.23,0c-.13.06-.13.06-.48-.11s-.34-.17-1.36-.17c-.41,0-.75-.05-1.09-.05a1,1,0,0,0-.28-.17.73.73,0,0,0-.41-.22c-.06,0-.2-.12-.27-.17a.83.83,0,0,0-.34-.06c-.34,0-.82.23-.89.51a.58.58,0,0,1-.27.28l-.21.16s-.07-.11-.13-.22-.34-.28-.82-.28a.88.88,0,0,0-.55.11.47.47,0,0,0-.14.39c0,.17-.06.23-.2.23a1,1,0,0,1-.41-.23,2.4,2.4,0,0,0-1.09-.33,1.74,1.74,0,0,1-.62-.06,3.31,3.31,0,0,0-1.09-.11c-.27,0-.55-.06-.82-.06l-.2.17a.32.32,0,0,0-.21.34c0,.22-.14.28-.2.11a.72.72,0,0,0-.62-.34,4.36,4.36,0,0,1-1.3-.56c-.13-.11-.27-.11-.54-.11a2,2,0,0,0-1.16.34l-.41.17c-.07,0-.21.11-.28.16s-.06.12-.2.06a4.85,4.85,0,0,0-1.3-.06,1.08,1.08,0,0,0-.34.17c-.14.17-.2.17-.34.11a.89.89,0,0,0-.75,0l-.41.17c-.14,0-.14,0-.21-.17-.2-.44-.34-.5-1.16-.5a4.78,4.78,0,0,0-.95,0,.47.47,0,0,1-.48-.06,3.08,3.08,0,0,0-1.78-.39c-.68,0-.68,0-1,.11a3.68,3.68,0,0,0-.41.28.2.2,0,0,1-.21.12,2.33,2.33,0,0,0-.88-.12c-.69,0-.76,0-1,.17a.88.88,0,0,0-.14.28c0,.17-.07.17-.61,0a2.65,2.65,0,0,0-1.09-.17c-.69-.05-.69-.05-.89.12s-.28.22-.28.5c0,.11-.06.22-.06.34H306c-.27,0-.34-.06-.34-.17a.49.49,0,0,0-.07-.28,5.46,5.46,0,0,0-1.29-.73,1.17,1.17,0,0,0-.75-.11c-.35,0-.41,0-.55.17a5.09,5.09,0,0,0-.75.78,5.19,5.19,0,0,1-1,0c-.06,0-.2-.11-.27-.28s-.34-.34-.41-.45-.27-.11-1-.11a3.51,3.51,0,0,0-.95.06c-.27.11-.48.33-.48.5s-.07.17-.27.11-.34-.05-.41-.22-.34-.45-.75-.73a1.43,1.43,0,0,0-.82-.17,1,1,0,0,0-.62.11.72.72,0,0,0-.13.34c0,.06-.07.17-.14.17a2.61,2.61,0,0,1-.82.05,1.74,1.74,0,0,0-.89.06c-.2.11-.2.11-.41-.06a1,1,0,0,0-.41-.22,1.27,1.27,0,0,1-.54-.17,1.77,1.77,0,0,0-1.23.06c-.21.11-.27.11-1.09.11-.35,0-.62-.06-.89-.06a1.26,1.26,0,0,0-.28.17c-.13.17-.2.23-.34.17a2.12,2.12,0,0,0-.68-.06c-.55,0-.55,0-.75.17l-.21.17a1.57,1.57,0,0,1-.54-.22,1.69,1.69,0,0,1-.68-.34,1.35,1.35,0,0,0-.89-.45.77.77,0,0,0-.48.11c-.2.17-.2.23-.2.56s-.14.45-.35.28c0,0-.2-.22-.41-.33a.72.72,0,0,0-1,0c-.14.11-.21.17-.14.39s0,.28-.07.28l-.2-.17c-.2-.17-.2-.22-.14-.28a.5.5,0,0,0,.14-.33.6.6,0,0,0-.68-.51,2.32,2.32,0,0,0-1,.34,1.68,1.68,0,0,1-.82.11c-.75,0-.82,0-1,.11s-.28.11-.69.11a4.74,4.74,0,0,1-.75-.11,3.79,3.79,0,0,0-.68-.17,3.41,3.41,0,0,1-.68-.16,1.93,1.93,0,0,0-.89-.23.68.68,0,0,0-.68.56c0,.23,0,.23.54.62.07.11.21.17.21.22s-.07.11-.21.06a2.88,2.88,0,0,1-1.16-.73.76.76,0,0,0-1.09-.11c-.27.28-.34.45-.2.73.06.11.13.16.13.28-.07-.06-.07-.06-.13-.06a.66.66,0,0,1-.35-.11" transform="translate(-216.04 -288)"/>
  </g>
  <g id="g2674">
    <path id="path2776" class="cls-2" d="M312.5,363.72l-12-3.78-2.06-5.15-.36,2.67-4.8-3.07,1.87-2.15-2.79-7,10.84,8.45.54,4.32ZM253.16,358l-.17.16-.38-.21Zm62.91,15a43,43,0,0,1-17.83-5.71,66.08,66.08,0,0,0-17.89-6.88l5.48-3.84-5.61-8.7,3.79-4.58-2.37-5.7-10.75,5.06,10.87-10.39,36.39,30.36-.53,2.62,1.7-.44-1.93,1.62-.57,2.83-.27,1.33,2-.68-2.35,2.36Zm5.84-.37L320,371.59l2.11.17ZM241,365.76c43.91-11,44.38,27.48,78,19.09-32.41,15-36.05-23.89-78-19.09m92.52-4.62-28.3-25.73-7.91,7.11L282,329.24,260.16,351l-.08-.4-2.15-.82,2,.11-.56-2.93-1.42-.52h1.31l-1.31-6.54-1,5.09,1-.27-1.1.7-.59,2.94,1.69-.44L256,349.58l-.57,2.83-.26,1.33,2-.68-2.34,2.37-.22,1.09-.17-.84-.35-1.77-2.15-.82,2,.11-.57-2.93-1.42-.52h1.32l-1.32-6.54-1,5.09,1-.27-1.1.7-.59,2.94,1.69-.44L250,352.85l-.56,2.83-.27,1.33,2-.68-2.34,2.37-.5,2.49-.84.24L245,360.05l2.33.2-.5-2.51-.35-1.76-2.15-.83,2,.11-.57-2.92-1.42-.52h1.32l-1.32-6.55-1,5.09,1-.27-1.1.71-.59,2.94,1.69-.44-1.93,1.61-.56,2.83-.27,1.34,2-.69-2.34,2.37-.61,3.06a64.69,64.69,0,0,0-7.21,3.5c11.08-3.49,20.52-5.54,29.67-5.14l.22-1.09,1.17-1.18-1,.34.14-.67.28-1.41,1-.81-.85.22.29-1.47.56-.35-.51.13.51-2.54.65,3.27h-.65l.7.26.29,1.46-1,0,1.07.41.18.88.25,1.26-1.17-.1,1.29.72.2,1c.88.1,1.75.23,2.63.38l2.34-2.37-2,.69.27-1.34.57-2.83,1.93-1.62-1.7.44.59-2.94,1.11-.7-1,.27,1-5.09,1.31,6.54h-1.31l1.41.52.57,2.93-2-.11,2.14.82.36,1.77.5,2.51-2.34-.2,2.59,1.44.17.86a67.29,67.29,0,0,1,17.49,8.85c15.94,10.86,41.18,6.75,53.09-8.55a71.64,71.64,0,0,1-15.15,6.6l-.09-.43-1.29-.72,1.17.09-.25-1.25-.18-.88-1.07-.42,1,.06-.28-1.46-.71-.26h.65l-.65-3.28-.51,2.55.51-.14-.55.36-.3,1.47.85-.22-1,.8-.28,1.42-.13.67,1-.34L328,370.54l-.34,1.7h0l-.31.07-.12-.6-2.05-1.14,1.85.16-.4-2-.28-1.4-1.7-.65,1.58.08-.46-2.32-1.12-.41h1l-1-5.2-.81,4,.81-.21-.88.56-.47,2.33,1.35-.35-1.53,1.29-.45,2.24-.22,1.07,1.6-.55-1.86,1.88,0,.08-.39-1.93-.35-1.77-2.14-.82,2,.1-.57-2.92-1.41-.52h1.31l-1.31-6.55-1,5.1,1-.27-1.11.7-.06.28-9.42-8.92,12.36,1.48-11.47-6.48.68,2.81-6.21-5.42-3.17.22-1.73-1.64L309.31,346l-.79-4.42Z" transform="translate(-216.04 -288)"/>
  </g>
</svg>
