<svg xmlns="http://www.w3.org/2000/svg" width="161.1mm" height="53.01mm" viewBox="0 0 456.67 150.25">
  <defs>
    <style>
      .cls-1 {
        fill: #42ba87;
      }

      .cls-1, .cls-2 {
        fill-rule: evenodd;
      }

      .cls-2 {
        fill: #fffeff;
      }

      .cls-3 {
        fill: #40ba86;
      }
    </style>
  </defs>
  <g id="Layer_3" data-name="Layer 3">
    <g>
      <path id="path2172" class="cls-1" d="M121,458.18a1.32,1.32,0,0,1-.3-.25,2,2,0,0,0-1.26-.24,2.26,2.26,0,0,0-1,.1,3.54,3.54,0,0,1-1.2.09c-1.07-.05-1.67-.14-1.91-.39a1.18,1.18,0,0,0-.72-.19c-.29,0-.53.09-.59.39-.06.14-.06.14-.3.14s-.3,0-.36-.09c-.12-.25-.36-.25-1.31-.25h-.9a.67.67,0,0,0-.24-.19,1,1,0,0,0-.36-.2c-.12,0-.24-.1-.36-.15a1.52,1.52,0,0,0-.53-.05c-.3,0-.36,0-.54.15s-.18.15-.12.39,0,.25-.18.25-.12-.05-.12-.1-.18-.29-.48-.44a2.43,2.43,0,0,0-.71,0h-.72a1.15,1.15,0,0,0-.6.54c-.06.19-.12.19-.24.1s-.54-.25-1.07-.25-.48,0-.66.1-.24.15-.3.15a.77.77,0,0,0-.3.05l-.42.14a.93.93,0,0,1-.53,0,3.38,3.38,0,0,1-1.2-.49,1.25,1.25,0,0,0-.42-.59c-.24-.14-.24-.14-1.07-.14a2.47,2.47,0,0,0-1.2.14,1.76,1.76,0,0,0-.54.3c-.17.15-.17.15-.83.15h-.66c-.06-.05-.06-.1-.06-.2a.54.54,0,0,0-.54-.39.82.82,0,0,0-.71.39c-.12.15-.12.2-.36.15s-.24,0-.3-.2a.58.58,0,0,0-.48-.49.87.87,0,0,0-.72,0c-.11.1-.29.1-.83.15s-.66,0-.78.14a.38.38,0,0,0-.18.4,1,1,0,0,0,.06.44.79.79,0,0,1,.12.14,6.36,6.36,0,0,1-.78.05,2.34,2.34,0,0,1-.89-.09c-.12-.1-.24-.1-.84-.1s-.83,0-1.07.24a1,1,0,0,1-.36.1c-.12,0-.18,0-.18-.15s-.24-.58-.42-.73a3,3,0,0,0-1,0c-.65,0-.83,0-1,.1a2.18,2.18,0,0,1-.66.1c-.48,0-.54-.05-.54-.35a.75.75,0,0,0-.41-.68,1.64,1.64,0,0,0-1.62.14.83.83,0,0,0-.48.69c0,.15-.11.15-.29,0a2.47,2.47,0,0,0-.72,0,2,2,0,0,1-.72-.1,1.77,1.77,0,0,0-.6-.1c-.59,0-1,.2-1,.54,0,.15-.12.25-.18.15s-.12-.1-.24-.1-.18-.1-.24-.19-.24-.2-.6-.35-.53-.19-.59-.29a.8.8,0,0,0-.42-.1.38.38,0,0,0-.42.1c-.18.15-.24.19-.24.34s0,.15-.18.2a1,1,0,0,1-.42.1c-.18,0-.23-.05-.41-.4s-.3-.44-.3-.44-.12-.1-.18-.14l-.18-.15c.12-.05.18-.1.24-.1.36-.15.48-.29.48-.54a.6.6,0,0,0-.12-.34,1.79,1.79,0,0,0-.66-.25c-.06,0-.18-.14-.36-.24a2.06,2.06,0,0,0-.48-.34c-.18-.1-.06-.25.36-.3a.6.6,0,0,0,.66-.34,2.08,2.08,0,0,0,.12-.93,3.08,3.08,0,0,1-.06-.74c0-.05-.06-.09-.12-.14s-.24-.1-.6-.1H73c0-.1.06-.15.06-.2a1,1,0,0,0,.12-.39.35.35,0,0,1,.18-.34,1.47,1.47,0,0,0,.24-.39,2.81,2.81,0,0,1,.24-.4.86.86,0,0,0-.12-.68,1.33,1.33,0,0,1-.3-.25.84.84,0,0,1-.24-.14l.48-.15c.42-.2.72-.44.72-.64a1.2,1.2,0,0,0-.48-.68.66.66,0,0,1-.24-.2c0-.05.12-.1.3-.15.66-.14.83-.44.83-1.17,0-.3,0-.39-.11-.54a1.22,1.22,0,0,0-1-.34h-.3c.06,0,.06-.1.12-.15a.77.77,0,0,0,.12-.25.45.45,0,0,1,.06-.24c.18-.15.18-.59.12-.88a2.19,2.19,0,0,0-.78-.79.25.25,0,0,1-.12,0,.77.77,0,0,1,.12-.25,1.69,1.69,0,0,0,.36-.69c0-.09,0-.24.06-.29a.45.45,0,0,0,.06-.24c.06-.2-.24-.59-.66-.94a1.19,1.19,0,0,1-.3-.29c0-.1.12-.15.18-.2a.37.37,0,0,1,.18-.19c.06,0,.12.05.24.1a.61.61,0,0,0,.9.05c.18-.15.18-.1.06-.84-.12-.49-.36-.73-.84-.73a.9.9,0,0,0-.36-.05V438c0-.05-.06-.09-.06-.14h.36c.78,0,1.38-.25,1.44-.59a.76.76,0,0,0-.3-.88c-.18-.1-.18-.15-.12-.3a1.12,1.12,0,0,0,0-.88,1.77,1.77,0,0,1-.12-.59.72.72,0,0,0-.3-.63.62.62,0,0,1-.18-.49.42.42,0,0,0-.18-.35c-.06-.05-.12-.09-.12-.14a.36.36,0,0,1,.12-.2.56.56,0,0,0,.12-.44.66.66,0,0,0-.3-.69c-.24-.14-.24-.14.06-.19a.81.81,0,0,0,.42-.2c.18-.14.24-.19.24-.39a2.47,2.47,0,0,1,.12-.59.91.91,0,0,0,.12-.93,1.28,1.28,0,0,0-.42-.34c-.24-.1-.24-.15-.24-.25a.76.76,0,0,1,.54-.44c.36-.05.48-.19.42-.73s-.06-.74-.42-.88a2.21,2.21,0,0,0-.54,0c-.18,0-.24-.05-.18-.1a1.85,1.85,0,0,0,.18-.54c0-.1.12-.2.18-.29a.44.44,0,0,0,.06-.74,1,1,0,0,0-.36-.1,1,1,0,0,1-.54-.24.12.12,0,0,1,.12-.1.57.57,0,0,0,.36-.59c0-.14,0-.34.06-.39s.18-.1.3-.1c.42-.09.84-.39.84-.63s-.12-.4-.6-.84a1.45,1.45,0,0,1-.42-.44,2.28,2.28,0,0,0,.42-.05c.3,0,.42,0,.54-.09.47-.35.29-1-.3-1.23-.12-.05-.12-.05-.12-.19a.94.94,0,0,0-.54-.54c-.18,0-.24-.1-.24-.2a.58.58,0,0,0-.06-.29c0-.05-.06-.1-.06-.15a.51.51,0,0,1,.3-.1l.6-.34a1.72,1.72,0,0,0,.65-.78c.06-.2.06-.25-.11-.45a1.85,1.85,0,0,0-.24-.29c-.06-.05-.06-.15-.06-.29a.6.6,0,0,0-.18-.4.75.75,0,0,0-.6-.29c-.12,0-.24-.05-.18-.05a.67.67,0,0,1,.06-.24.42.42,0,0,0,.12-.35c0-.14.06-.14.24-.14a.56.56,0,0,0,.36-.15c.12-.15.12-.2.12-.69,0-.78,0-.88-.54-1.12-.12-.1-.24-.15-.36-.25a1.94,1.94,0,0,1-.06-.59,2.93,2.93,0,0,0-.06-.88c-.12-.24-.12-.24-.06-.29a.64.64,0,0,0,.48-.25,1.54,1.54,0,0,0,.18-.73c0-.64-.06-.74-.48-.83a.72.72,0,0,1-.24-.05l.12-.2a.43.43,0,0,0,.06-.39v-.29h.48c.48,0,.72,0,.9-.3a1.21,1.21,0,0,0-.06-1,2.25,2.25,0,0,0-1-.39c-.3,0-.36-.05-.36-.29a1,1,0,0,0-.06-.44c-.06-.1-.12-.25-.18-.35v-.19c.06,0,.18.05.3.05a.83.83,0,0,0,.54-.15c.36-.34.12-.79-.48-.83-.3,0-.36,0-.54-.3s-.24-.29-.12-.29a.65.65,0,0,0,.48-.35c0-.09.12-.24.3-.34a1,1,0,0,0,.48-1,1,1,0,0,0-.12-.63,2,2,0,0,1-.36-.35c-.18-.1-.18-.1-.18-.39a.26.26,0,0,1,0-.29.9.9,0,0,1,.36-.05c.72,0,1-.15,1-.59.06-.25,0-.29-.11-.49a1.68,1.68,0,0,0-.48-.39c-.18-.1-.3-.2-.3-.25h.3a1.14,1.14,0,0,0,.48-.14.48.48,0,0,0,.11-.54c0-.1,0-.1.18-.15s.42-.29.42-.44a.82.82,0,0,0-.42-.44c-.06,0-.12-.05-.18-.05v-.44c.06-.25.06-.39.12-.39s.12-.1.24-.2.18-.15.12-.39,0-.34-.12-.44a1,1,0,0,1-.12-.64c0-.59,0-.68-.29-.88a1.54,1.54,0,0,0-.78-.1c-.66,0-.72-.05-.36-.34a.46.46,0,0,0,.24-.25c0-.05.12-.14.18-.19a.51.51,0,0,0-.06-.69c-.12-.05-.18-.1-.24-.1s-.12-.09.24-.34l.36-.29V391c.06-.69-.06-.88-.36-1s-.24-.1-.54,0-.48.14-.42.05a2,2,0,0,0,.18-.54c0-.15.06-.2.24-.3a.72.72,0,0,0,.42-.58c.06-.2-.24-.44-.48-.44a.22.22,0,0,1-.12-.05,2.72,2.72,0,0,1,.18-.35,1.25,1.25,0,0,0,.12-.54,1.33,1.33,0,0,1,0-.49.54.54,0,0,0-.18-.44.63.63,0,0,0-.42-.09c-.24-.05-.36-.15-.36-.25s.12-.15.36-.2a.91.91,0,0,0,.54-.24c.12-.1.12-.2.12-.64s0-.54-.12-.63a.66.66,0,0,0-.36-.2c-.24-.05-.24-.05-.18-.24s0-.2.18-.25a.74.74,0,0,0,.36-.15c.12-.09.12-.19.12-.49s-.06-.58-.3-.68-.18-.3.06-.74a2,2,0,0,0,.3-1.07v-.54l-.18-.15a2.16,2.16,0,0,0-.36-.15H73a.38.38,0,0,1,.06-.19,4.49,4.49,0,0,1,1.5-1.13.7.7,0,0,0,.35-.15c.12-.14.18-.19.12-.39a1.75,1.75,0,0,0-1.31-1.27c-.24-.05-.3-.05-.3-.15s0-.1.18-.15c.36-.09.48-.24.48-.68A.77.77,0,0,0,74,375a2.14,2.14,0,0,1-.12-.25,1,1,0,0,1-.42-.24,1.56,1.56,0,0,0-.36-.25l.18-.14a1.39,1.39,0,0,0,.54-1,.77.77,0,0,0-.3-.74c-.12-.09-.12-.09-.12-.49a1,1,0,0,0-.12-.54s0-.09.18-.24.18-.2.12-.44,0-.25.12-.34a1.25,1.25,0,0,0,.06-1.13,1,1,0,0,0-.54-.39c-.06,0,.12-.39.42-.74a.7.7,0,0,0,.18-.54,1,1,0,0,0-.24-.78c-.18-.15-.18-.2-.24-.54a2.38,2.38,0,0,0-.42-1.32l-.18-.15c.06-.05.12-.05.18-.1.3-.09.42-.34.42-.78a2.15,2.15,0,0,0-.06-.64c-.12-.24-.12-.24,0-.44s.12-.19.36-.24a.66.66,0,0,0,.48-.15.5.5,0,0,0,.12-.54.12.12,0,0,1,0-.19c.18-.25.06-.64-.36-.79-.12-.05-.12-.1-.06-.19s.24-.2.6-.3a.9.9,0,0,0,.41-.49c0-.19-.35-.44-.59-.44-.06-.05-.18-.05-.18-.1s-.18,0-.3,0-.18,0-.18-.24.12-.29.18-.39a.85.85,0,0,0,.12-.44c0-.2-.06-.25-.24-.4s-.18-.14-.48-.09h-.3a.72.72,0,0,1,.06-.35c0-.34,0-.34.18-.49.36-.24.54-.68.36-.93-.06-.05-.06-.29-.12-.68s0-.64.12-.79a.7.7,0,0,0,.12-.44c.06-.29.06-.29.3-.39s.42-.24.42-.83c.06-.44.06-.49-.12-.64s-.42-.19-.84-.19h-.24v-.59c.06-.54.06-.64-.06-.74s-.18-.24-.06-.29a.51.51,0,0,0,.42-.49c0-.2,0-.25.12-.34s.24-.15.78-.15.65,0,.83-.1a.44.44,0,0,0-.24-.78,4,4,0,0,0-1-.05c-.84,0-.84,0-.84-.39,0-.2.06-.2.24-.25.48-.15.54-.49.24-1.08a1.64,1.64,0,0,1-.18-.73,4.62,4.62,0,0,0-.12-.54c-.12-.15-.12-.15,0-.2a4.19,4.19,0,0,0,.42-.09L74,345c.06,0,.24-.1.42-.15.53-.19.65-.54.35-.83a.86.86,0,0,0-.59-.15c-.12,0-.24-.05-.36-.05v-.49a1.55,1.55,0,0,0-.18-.78c-.18-.25-.18-.34-.12-.44a1.5,1.5,0,0,0,.06-.3c-.06-.14,0-.24.12-.34.3-.24.12-.83-.3-1.13a.4.4,0,0,1-.18-.24c0-.05.18-.2.36-.29.48-.25.6-.35.6-.59s-.42-.49-1-.44c-.3,0-.3,0-.3-.15s0-.15.06-.15a1.15,1.15,0,0,0,.42-.59s-.06-.14-.06-.19,0-.15.24-.25a.87.87,0,0,0,.54-.83.67.67,0,0,0-.12-.39c-.18-.15-.18-.2,0-.25.42,0,.6-.34.42-.68,0-.15-.06-.34-.06-.49s-.06-.15-.06-.25c.06.05.12.05.18.1a2,2,0,0,0,1.07.39,1,1,0,0,0,.84-.24.53.53,0,0,1,.24-.05,2.6,2.6,0,0,0,.83.1c.66,0,.72,0,.78.05.12.34.66.39,1,.19.12-.14.12-.19.12-.68s.06-.54.12-.54.23.1.23.34a1,1,0,0,0,.3.83c.24.15.3.2.48.2a.84.84,0,0,0,.72-.29c.06-.05.06-.25.06-.45s0-.19.06-.24h.48a1.06,1.06,0,0,0,.71-.15.56.56,0,0,0,.12-.29c.06-.15.06-.15.3-.05a.9.9,0,0,0,.36.05c.18,0,.24,0,.24.15a1.73,1.73,0,0,0,1,.63.86.86,0,0,0,.42-.1,2.22,2.22,0,0,1,.9,0h.71a.16.16,0,0,0,.06.14.57.57,0,0,0,.66.35.54.54,0,0,0,.48-.59c0-.25,0-.3.12-.3a5.32,5.32,0,0,1,1.49.05c.12.05.12.05,0,.3a.4.4,0,0,0-.12.44c.06.49.42.59,1.5.54a1.57,1.57,0,0,0,1-.2,1,1,0,0,0,.54-.34c.3-.39.36-.44.78-.39a.66.66,0,0,0,.59-.2.28.28,0,0,0,.18-.2s.06-.09.12-.14.06-.1.18.05a.56.56,0,0,1,.12.29c0,.15.3.39.54.39s.6-.24.6-.44v-.15c.06,0,.24.2.42.44.41.49.53.59.83.64s.54,0,1.14-.49c.18-.15.3-.29.47-.44h.3c.3.05.3.05.6-.15a.72.72,0,0,1,.66-.24c.48,0,.48,0,.66-.15s.29-.19.71.15a.52.52,0,0,0,.48.2c.18,0,.24,0,.42.19a.66.66,0,0,0,.42.2.86.86,0,0,1,.3.09.54.54,0,0,0,.35.15,1.57,1.57,0,0,0,.72-.29c.12-.1.18-.15.9-.15a3,3,0,0,0,1-.05.58.58,0,0,1,.42-.1,1.35,1.35,0,0,0,.9-.29l.24-.1c.06,0,.12.15.12.44a1.53,1.53,0,0,0,.06.59,1.48,1.48,0,0,0,.71.34c.36-.05.78-.29.78-.54.06,0,.06-.09.12-.14a.21.21,0,0,1,.24,0,2,2,0,0,0,.89.1c.66,0,.78-.05.9-.15s.18-.1.18-.2.06-.05.18-.05a1.3,1.3,0,0,0,.36,0,1.61,1.61,0,0,1,.42-.05,8.83,8.83,0,0,0,2,.05h1.73l.36-.15a2.55,2.55,0,0,1,.66-.2c.23-.05.23,0,.35.1a2.7,2.7,0,0,0,1.32.88.86.86,0,0,1,.42.1,1,1,0,0,0,1.07-.2c.12-.09.12-.14.54-.14s.54,0,.66-.1c.36-.15.41-.15.41.54,0,.88.06,1,1,.93a2.35,2.35,0,0,0,.9-.15c.42-.19.59-.34.53-.59v-.19h.24a1.11,1.11,0,0,0,.36-.15,1.08,1.08,0,0,1,.48-.1.7.7,0,0,0,.78-.44l.18-.29h.41a1.61,1.61,0,0,1,1,.24,1.33,1.33,0,0,0,1.31-.09.83.83,0,0,1,.6-.3.9.9,0,0,1,.18.1,3.68,3.68,0,0,0,1.37.59c.18-.05.24-.05.36-.2s.24-.15.6-.19h.48a2.49,2.49,0,0,1,.42.39c.48.34.53.34.71.34a.75.75,0,0,0,.48-.1.57.57,0,0,0,.18-.49v-.29c.24,0,.54,0,.78,0h.83a.83.83,0,0,0,.24.15c.3.24.36.29,1.26.29a4.28,4.28,0,0,0,1.13-.1,1.27,1.27,0,0,1,.6-.1h.24v.4c0,.44.06.63.3.68.42.2.78-.05,1.19-.68.24-.49.42-.59.72-.59s.24,0,.36.15a1.83,1.83,0,0,0,1,.48,1.2,1.2,0,0,0,1.38-.24c.24-.24.3-.24.66-.24a1,1,0,0,1,.65.14,1.47,1.47,0,0,1,.66.59,1.1,1.1,0,0,0,.72.44,1.19,1.19,0,0,0,.83-.2.78.78,0,0,0,.54-.73v-.24l.24.09c.12.1.3.1.66.1h.54l.23-.19a.72.72,0,0,0,.18-.2c.12,0,.18.1.24.1a1.38,1.38,0,0,0,1,.05,5.36,5.36,0,0,1,1.19-.2,1,1,0,0,1,.54.2.72.72,0,0,0,.9-.25l.24-.19c.12-.1.18-.1.29,0s.3.15.48.25l.42.2a3.56,3.56,0,0,0,1.26.39.46.46,0,0,0,.47-.2c.18-.15.24-.24.24-.39v-.2a.46.46,0,0,1,.3.2.89.89,0,0,0,.72.2c.18-.05.24-.05.36,0a.72.72,0,0,0,.83.1c.24-.14.42-.14.48-.05s.3.3.6.3a.86.86,0,0,1,.36.09,2.16,2.16,0,0,0,.77.1c.6.05.6.05.78-.1a.42.42,0,0,0,.24-.24c0-.15.12-.2.36-.29a.51.51,0,0,1,.3-.1.33.33,0,0,1,.18.1.62.62,0,0,0,.77-.15c.12-.1.18-.15.24-.05a.9.9,0,0,1,.36.34,1.33,1.33,0,0,0,.54.44,1.56,1.56,0,0,0,1-.09l.66-.2a.53.53,0,0,1,.42,0,.5.5,0,0,0,.36.1.58.58,0,0,0,.53-.25,2.54,2.54,0,0,1,.66-.39c.54-.15.66-.15.6.05a.38.38,0,0,0,.18.29,1.08,1.08,0,0,0,.72.15c.47,0,.53,0,.59,0a.64.64,0,0,0,.84.24c.12-.09.18-.05.42.1a.56.56,0,0,0,.71.1.52.52,0,0,0,.36-.54.25.25,0,0,1-.06-.19h.3a.4.4,0,0,0,.42-.1c.12-.1.24-.2.24-.25v-.05a1.43,1.43,0,0,1,.66.44,1.19,1.19,0,0,0,.83.35.64.64,0,0,0,.54-.2c.3-.19.6-.24.72-.1a1.38,1.38,0,0,0,.3.15c.12,0,.35.2.71.49s.54.49.6.54a.63.63,0,0,0,.72,0c.18-.1.18-.15.24-.54a1.14,1.14,0,0,1,.24-.78,4.77,4.77,0,0,1,.35-.44c.06-.05.06-.1.12-.15s.12.15.18.24c.18.3.36.35.78.4a.82.82,0,0,1,.42.09c0,.05.24.15.42.2a1.41,1.41,0,0,0,.95.1,6.36,6.36,0,0,1,1.38,0c.77.05,1-.05,1.07-.39,0-.1.06-.15.42-.25a3.11,3.11,0,0,1,.6-.1h.24v.2c0,.59.89.68,1.19.1a1.78,1.78,0,0,0,.12-.35c.06-.09.12-.09.3.1a2.06,2.06,0,0,0,1,.34h.35c.12.1.18.2.3.3a1,1,0,0,0,.78.44,2.53,2.53,0,0,0,1.25-.39,1,1,0,0,1,.54-.15,9.34,9.34,0,0,1,2.15,0,4,4,0,0,0-.42.15c-.41.09-.59.24-.59.49s.3.44.65.44a2.43,2.43,0,0,0,.6-.05c.3-.1.36-.1.54,0a2.84,2.84,0,0,0,.42.1c.18,0,.18,0,.3.24a.68.68,0,0,0,.35.34,1.12,1.12,0,0,1,.24.15c.12,0,.06.05-.12.15a1,1,0,0,1-.59.14.65.65,0,0,0-.54.1l-.18.15a2.46,2.46,0,0,1,.06.64,2.36,2.36,0,0,0,.18,1,1.2,1.2,0,0,0,.24.45c.12.09.12.09-.18.24-.48.2-.54.29-.48.78s.06.4.24.54a.74.74,0,0,0,.36.15,1.39,1.39,0,0,1,.48.05c.06.05.12.05.18.1a.5.5,0,0,0-.24.1c-.12,0-.24.09-.24.14a.44.44,0,0,0,.06.59c.12.15.18.2.47.2s.36,0,.36,0-.12.2-.3.3a1.31,1.31,0,0,0-.35.39c-.12.2-.12.2-.06.49s.06.25-.12.39a.54.54,0,0,0-.18.44.62.62,0,0,0,.54.64c.17.05.23.05.23.29s-.06.25-.23.2a.52.52,0,0,0-.48.49c0,.2-.06.2-.24.24a.49.49,0,0,0-.36.84.5.5,0,0,0,.36.1c.18,0,.24,0,.24.24s.12.49.48.54c.11.05.29.1.29.15a1,1,0,0,1-.29.14c-.54.2-.6.3-.6.59a.36.36,0,0,0,.18.39.6.6,0,0,0,.42.15H197c-.23.44-.29.54-.23.69s.11.19.17.19.06.2.12.34a.4.4,0,0,0,.18.4c.18.14.18.19,0,.19a.91.91,0,0,0-.65.25.89.89,0,0,0,0,.78,1.2,1.2,0,0,0,.65.25.69.69,0,0,1,.18.05,6.77,6.77,0,0,1-.71.39c-.6.34-.66.39-.78.34a.74.74,0,0,0-.72,0c-.18.19-.18.19-.18.73.06.3.06.44.18.54a.35.35,0,0,1,.12.25c.06.19.18.29.48.44a.83.83,0,0,1,.24.15l-.18.14c-.12.05-.24.15-.3.15a1.47,1.47,0,0,0-.48.73c0,.35.42.79,1.08.93.12.05.12.05,0,.1a.68.68,0,0,0-.3.93c.18.4.18.35,0,.35a.74.74,0,0,0-.54.44.91.91,0,0,0,.06.34,1,1,0,0,1,.18.64,1.12,1.12,0,0,0,.66,1.07c.18.15.3.25.3.3a2.68,2.68,0,0,0,.35.83c.12.05.12.1-.05.3-.48.49-.54.63-.54,1s0,.34.18.44a.51.51,0,0,0,.59.09c.12-.05.12,0,.12.15a.39.39,0,0,0,.18.34c.06.1.12.2.12.74a2.71,2.71,0,0,0,.24,1.32c.12.2.06.3-.24.25a.52.52,0,0,0-.48.49.52.52,0,0,0,.06.29.93.93,0,0,0,.66.24h.3v.2a.5.5,0,0,1-.18.39c-.12.1-.12.2-.12.74s0,.59-.54.63a1.22,1.22,0,0,0-.77.49.6.6,0,0,0-.06.69c.06.15.53.34.83.39h.24a.12.12,0,0,0-.12.1.77.77,0,0,1-.3.05c-.23.05-.59.19-.65.34s-.12.34.12.59.24.34.12.39c-.3.1-.42.69-.24,1a1.79,1.79,0,0,0,.65.69c.06.09.12.14.06.14a1.23,1.23,0,0,0-.53.49,1.08,1.08,0,0,0,.06.74,2.92,2.92,0,0,0,.71.34h.12a2.83,2.83,0,0,1-.71.49c-.36.15-.48.29-.42.78,0,.3,0,.4.12.54s.06.15.06.25a.67.67,0,0,0,.77.44c.24-.05.24,0,.36.1s.12.19.06.24a.9.9,0,0,0-.18.59c0,.15-.06.2-.18.2a.62.62,0,0,0-.3.49c-.06.14.3.44.48.49s.18.09.06.29c-.06,0-.06.15-.06.24s-.06.2-.12.2-.42.25-.36.44a.42.42,0,0,0,.3.44c.12.1.18.15.18.49s.06.54.36.64c.12.05.18.05.18.29a.37.37,0,0,1-.24.39,1,1,0,0,0-.3.64.27.27,0,0,1-.18.25,1.31,1.31,0,0,0-.53.78c-.06.24.23.59.59.73.12.05.12.05,0,.2s-.24.15-.36.25a.68.68,0,0,0-.35.34c-.12.15-.18.19-.12.39a.78.78,0,0,0,.12.39.6.6,0,0,0,.53.3c.24,0,.18.05-.18.19s-.53.25-.47,1v.64c.06.05.18.1.24.15a.45.45,0,0,1,.23.44,1.06,1.06,0,0,0,.42.83.44.44,0,0,1,.24.2s-.06.09-.12.19a3.32,3.32,0,0,0-.06,1c0,.78,0,.83.12,1s.06.2.06.29,0,.15-.18.25l-.24.19c0,.05-.06.15-.12.15a.7.7,0,0,0-.29.05l-.42.2a.44.44,0,0,0-.3.49.57.57,0,0,0,.6.39H197V396a.81.81,0,0,0,.12.49c.12.35.12.44,0,.49a.54.54,0,0,0-.29.54c0,.05.11.15.17.25a.31.31,0,0,0,.18.09c-.06.1-.06.15-.12.25a1.19,1.19,0,0,1-.35.39c-.3.25-.3.39,0,.74a1.23,1.23,0,0,1,.23.44.52.52,0,0,0,.36.44c.06.05.12.05.18.1v.53c0,.54-.06.59-.18.64s-.18.1-.24.2a2.23,2.23,0,0,0-.23.24.48.48,0,0,0-.12.3c0,.14.06.24.29.39s.24.34,0,.29a.64.64,0,0,0-.65.25c-.06.05-.06.24-.06.39s0,.29.24.49.24.24.24.34a.79.79,0,0,0,.23.59c.18.1.18.15.06.34-.12.35-.35.49-.83.54-.3.05-.48.1-.54.2a.49.49,0,0,0-.06.63.61.61,0,0,0,.72.3h.36v.39c.06.39,0,.39-.12.49-.36.15-.48.54-.18.78a.69.69,0,0,0,.59.1c.18,0,.42,0,.42.05s.06.1.06.2,0,.24.12.39.06.1.12.19-.12,0-.18.1-.18.25-.24.35a.73.73,0,0,1-.18.24.5.5,0,0,0-.24.1c-.11.05-.29.15-.41.19s-.3.15-.3.2a1.43,1.43,0,0,0-.12.64,1.69,1.69,0,0,1-.06.54.39.39,0,0,1,.24.19c.24.15.3.2.3.49s0,.39.12.49a.91.91,0,0,1,.06.44.39.39,0,0,0,.06.25,3.56,3.56,0,0,0-.48.24c-.6.25-.84.44-.9.69a.6.6,0,0,0,.12.29.86.86,0,0,0,.54.25c.18,0,.24,0,.24.09a1.15,1.15,0,0,0,.24.69c.18.15.18.25.18.54s.12.64.41.73c.12,0,.12,0,.12.1v.39c0,.35-.06.35-.24.4a.77.77,0,0,0-.29.14c-.12.1-.18.15-.12.44s.06.4.53.59.36.15.18.15a1,1,0,0,0-.36.1c-.17.05-.47.39-.41.54s.18.39.47.49l.3.09-.18.15c-.12.1-.12.15-.12.69s0,.78.3.88a.25.25,0,0,1,.18.05.38.38,0,0,0-.18.09c-.24.15-.36.35-.3.84s.06.83.48,1a1.25,1.25,0,0,0,.24.14c.06.05-.24.4-.3.4a1.78,1.78,0,0,0-.3.14.41.41,0,0,0-.12.34.75.75,0,0,0,.3.59c.06.1.06.1-.12.2a.75.75,0,0,1-.35.15,1.22,1.22,0,0,0-.72.53,1.24,1.24,0,0,0-.06.79,5.41,5.41,0,0,0,1.07.88c.12,0,.18.15.3.2-.06.09-.18.24-.24.34a2,2,0,0,1-.24.34c-.06,0-.11-.05-.23-.1a.91.91,0,0,0-.78.05.51.51,0,0,0,0,.74,1.46,1.46,0,0,1,.18.29.57.57,0,0,0,.24.34c.53.45.71.64.65.74v.69a1.71,1.71,0,0,0-.23,0c-.12,0-.3.05-.3.1a.51.51,0,0,1-.3.1c-.54,0-.84.44-.42.78a.54.54,0,0,0,.3.15.72.72,0,0,1,.24.05l-.12.2c-.12.19-.12.29-.12.73s0,.49.12.59.3.15.54.19a.72.72,0,0,1,.29,0v.4c0,.09-.06.24-.06.39h-.17a2.21,2.21,0,0,0-.54.05,2.65,2.65,0,0,1-.48.14.47.47,0,0,0-.42.59.43.43,0,0,0,.18.39c.12.15.18.15.78.2h.65v.59c0,.58,0,.83-.17.83a1.4,1.4,0,0,0-.6.29c-.06,0-.06.15-.12.25a.5.5,0,0,0,.36.63,2.18,2.18,0,0,1,.36.15c.11.1.11.1.06.2a.55.55,0,0,0,.05.59c.12,0,.12.09,0,.19s-.11.39.12.59.18.2.24.49a3.3,3.3,0,0,0,.06.39c.06.05,0,.1-.12.1s-.53.1-.59.24a.67.67,0,0,0,.06.74.78.78,0,0,1,.12.34,1,1,0,0,0,.23.69c.12.1.18.19.18.24s.06.15.18.25a.89.89,0,0,1,.12.29,1.22,1.22,0,0,0,.06.44,1.63,1.63,0,0,1,.12.44v.2a1.39,1.39,0,0,0-.42,0c-.41,0-.53.05-.65.29a.53.53,0,0,0,.24.79c.17,0,.17,0,.11.63v.59a.23.23,0,0,0-.17.05.48.48,0,0,0-.36.83c.18.25.59.64.71.64s.12.05.12.15v.24c.06,0,0,.1-.18.1a.55.55,0,0,0-.41.1,2.54,2.54,0,0,0-.78.63.73.73,0,0,0,.3.69c.12.1.24.24.36.34a.9.9,0,0,0,.35.25,1,1,0,0,1,.24.1c-.06,0-.12.14-.18.19a.91.91,0,0,0-.17.49c-.06.3-.06.3-.3.39a.68.68,0,0,0-.3.25.56.56,0,0,0,0,.73,1.63,1.63,0,0,1,.12.44c0,.15,0,.2.24.4s.3.19.3.24.05.15-.18.39a.48.48,0,0,0-.12.3c0,.09-.06.14-.24.14a.55.55,0,0,0-.54.35c-.06.34-.12.39-.36.44a.5.5,0,0,0-.36.1,2.45,2.45,0,0,1-.65,0,1.48,1.48,0,0,0-.72.15c-.06,0-.18.1-.24.15a.33.33,0,0,1-.18-.1c-.12,0-.24-.2-.36-.24a1.12,1.12,0,0,0-.66-.3,1.71,1.71,0,0,0-.77.25c-.12.14-.24.14-.48-.05l-.24-.2h-.54a1.65,1.65,0,0,0-.77.1c-.06.05-.18.05-.3.1s-.06-.05-.06-.1a1.7,1.7,0,0,0-.48-.29,1,1,0,0,0-.72-.2c-.42,0-.59.1-.65.39a.75.75,0,0,0-.06.25.88.88,0,0,0-.3-.15.62.62,0,0,0-.54-.1c-.18,0-.42.05-.48.05s-.12,0-.18-.1c-.18-.29-.36-.34-1.19-.34a4.41,4.41,0,0,1-.84-.05,1,1,0,0,1-.42.2l-.36.14a2.39,2.39,0,0,1-.41-.34c-.36-.34-.48-.34-.66-.34a.7.7,0,0,0-.6.29.45.45,0,0,1-.18.25,1.46,1.46,0,0,0-.18.29c-.06.15-.12.2-.24.2a4.38,4.38,0,0,0-1-.05,2.41,2.41,0,0,0-1.08.05c-.12.05-.12.05-.42-.1s-.29-.15-1.19-.15c-.36,0-.66-.05-1-.05a.7.7,0,0,0-.23-.14.66.66,0,0,0-.36-.2c-.06,0-.18-.1-.24-.15a.77.77,0,0,0-.3-.05c-.3,0-.72.2-.78.44a.46.46,0,0,1-.24.25l-.18.15c0-.05-.06-.1-.12-.2s-.29-.24-.71-.24a.81.81,0,0,0-.48.09.42.42,0,0,0-.12.35c0,.14-.06.19-.18.19a1,1,0,0,1-.36-.19,2.12,2.12,0,0,0-1-.3,1.58,1.58,0,0,1-.54-.05,2.86,2.86,0,0,0-1-.09c-.24,0-.48-.05-.71-.05l-.18.14a.28.28,0,0,0-.18.3c0,.19-.12.24-.18.1a.62.62,0,0,0-.54-.3,3.6,3.6,0,0,1-1.13-.49c-.12-.1-.24-.1-.48-.1a1.77,1.77,0,0,0-1,.3l-.36.14c-.06,0-.18.1-.24.15s-.06.1-.17.05a4.12,4.12,0,0,0-1.14-.05.84.84,0,0,0-.3.15c-.12.14-.18.14-.3.1a.74.74,0,0,0-.65,0l-.36.14c-.12,0-.12,0-.18-.14-.18-.4-.3-.44-1-.44a4.37,4.37,0,0,0-.83,0,.49.49,0,0,1-.42-.05,2.65,2.65,0,0,0-1.56-.35c-.59,0-.59,0-.83.1a2.23,2.23,0,0,0-.36.25.18.18,0,0,1-.18.09,2.57,2.57,0,0,0-.78-.09c-.59,0-.65,0-.83.14a.77.77,0,0,0-.12.25c0,.14-.06.14-.54,0a2.28,2.28,0,0,0-1-.15c-.59-.05-.59-.05-.77.1s-.24.2-.24.44-.06.2-.06.29h-.24c-.24,0-.3-.05-.3-.14a.47.47,0,0,0-.06-.25,4.94,4.94,0,0,0-1.13-.63,1,1,0,0,0-.66-.1c-.3.05-.36.05-.48.14a5,5,0,0,0-.66.69,4.66,4.66,0,0,1-.89,0c-.06,0-.18-.1-.24-.25s-.3-.29-.36-.39-.24-.09-.84-.09a3.94,3.94,0,0,0-.83,0c-.24.1-.42.3-.42.44s-.06.15-.24.1-.3-.05-.36-.19-.3-.39-.66-.64a1.22,1.22,0,0,0-.71-.15.84.84,0,0,0-.54.1.63.63,0,0,0-.12.3s-.06.14-.12.14a2,2,0,0,1-.72.05,1.47,1.47,0,0,0-.77.05c-.18.1-.18.1-.36-.05a.9.9,0,0,0-.36-.19,1.08,1.08,0,0,1-.48-.15,1.51,1.51,0,0,0-1.07.05c-.18.1-.24.1-1,.1-.3,0-.54-.05-.78-.05a.84.84,0,0,0-.24.14c-.12.15-.17.2-.29.15a2,2,0,0,0-.6-.05c-.48,0-.48,0-.66.15l-.18.14a1.15,1.15,0,0,1-.48-.19,1.75,1.75,0,0,1-.59-.29,1.14,1.14,0,0,0-.78-.4.66.66,0,0,0-.42.1c-.18.15-.18.2-.18.49s-.12.39-.3.25c0-.05-.18-.2-.36-.3a.64.64,0,0,0-.89,0c-.12.1-.18.15-.12.34s0,.25-.06.25l-.18-.15c-.18-.14-.18-.19-.12-.24a.48.48,0,0,0,.12-.3.52.52,0,0,0-.6-.44,1.94,1.94,0,0,0-.83.3c0,.05-.3.1-.72.1-.66,0-.72,0-.9.09s-.24.1-.59.1a5.29,5.29,0,0,1-.66-.1,3,3,0,0,0-.6-.14,2.8,2.8,0,0,1-.6-.15,1.63,1.63,0,0,0-.77-.2.6.6,0,0,0-.6.49c0,.2,0,.2.48.54.06.1.18.15.18.2s-.06.1-.18.05a2.47,2.47,0,0,1-1-.64.67.67,0,0,0-1-.1c-.24.25-.3.39-.18.64s.12.15.12.24-.06-.05-.12-.05a.51.51,0,0,1-.3-.09" transform="translate(-72.04 -318.37)"/>
      <path id="path7" class="cls-1" d="M120.49,457.77a1.32,1.32,0,0,1-.3-.25,2,2,0,0,0-1.25-.24,2.29,2.29,0,0,0-1,.1,3.5,3.5,0,0,1-1.19.09c-1.08,0-1.68-.14-1.92-.39a1.2,1.2,0,0,0-.71-.19c-.3,0-.54.09-.6.39s-.06.15-.3.15-.3,0-.36-.1-.36-.25-1.31-.25h-.9c-.06-.1-.18-.14-.24-.19a1,1,0,0,0-.36-.2c-.12,0-.23-.1-.35-.15a2,2,0,0,0-.54,0c-.3,0-.36,0-.54.14s-.18.15-.12.39,0,.25-.18.25-.12,0-.12-.1-.18-.29-.48-.44a2.35,2.35,0,0,0-.71-.05h-.72a1.15,1.15,0,0,0-.6.54c-.06.2-.12.2-.24.1s-.53-.25-1.07-.25-.48,0-.66.1-.24.15-.3.15a.77.77,0,0,0-.3.05l-.41.14a1,1,0,0,1-.54,0A3.2,3.2,0,0,1,101,457a1.19,1.19,0,0,0-.42-.58c-.23-.15-.23-.15-1.07-.15a2.32,2.32,0,0,0-1.2.15,1.8,1.8,0,0,0-.53.29c-.18.15-.18.15-.84.15h-.66c-.06-.05-.06-.1-.06-.2a.55.55,0,0,0-.53-.39.84.84,0,0,0-.72.39c-.12.15-.12.2-.36.15s-.24,0-.3-.2a.58.58,0,0,0-.48-.49.85.85,0,0,0-.71,0c-.12.1-.3.1-.84.15s-.66,0-.78.15a.36.36,0,0,0-.18.39,1,1,0,0,0,.06.44.72.72,0,0,1,.12.15,7.59,7.59,0,0,1-.77,0,2.15,2.15,0,0,1-.9-.09c-.12-.1-.24-.1-.84-.1s-.83,0-1.07.24a1,1,0,0,1-.36.1c-.12,0-.18,0-.18-.15s-.24-.58-.42-.73a3,3,0,0,0-1-.05c-.66,0-.84,0-1,.1a2.18,2.18,0,0,1-.66.1c-.47,0-.53-.05-.53-.35s-.18-.58-.42-.68a1.6,1.6,0,0,0-1.61.15.82.82,0,0,0-.48.68c0,.15-.12.15-.3.05a2.47,2.47,0,0,0-.72-.05,2,2,0,0,1-.72-.1,1.74,1.74,0,0,0-.59-.09c-.6-.05-1,.19-1,.53,0,.15-.12.25-.18.15s-.12-.1-.24-.1-.18-.1-.24-.19-.23-.2-.59-.35a1.66,1.66,0,0,1-.6-.29.8.8,0,0,0-.42-.1.38.38,0,0,0-.42.1c-.18.15-.24.2-.24.34s0,.15-.18.2a1,1,0,0,1-.41.1c-.18,0-.24-.05-.42-.39s-.3-.45-.3-.45-.12-.09-.18-.14l-.18-.15c.12-.05.18-.1.24-.1.36-.14.48-.29.48-.54a.63.63,0,0,0-.12-.34,1.76,1.76,0,0,0-.66-.24c-.06,0-.18-.15-.36-.25a2.42,2.42,0,0,0-.48-.34c-.17-.1-.06-.25.36-.3a.6.6,0,0,0,.66-.34,2.08,2.08,0,0,0,.12-.93,3,3,0,0,1-.06-.73s-.06-.1-.12-.15-.24-.1-.6-.1h-.36c0-.1.06-.15.06-.2a.93.93,0,0,0,.12-.39.36.36,0,0,1,.18-.34,1.47,1.47,0,0,0,.24-.39,2.21,2.21,0,0,1,.24-.39.87.87,0,0,0-.12-.69,1.58,1.58,0,0,1-.3-.24.83.83,0,0,1-.24-.15l.48-.15c.42-.19.72-.44.72-.64a1.2,1.2,0,0,0-.48-.68.66.66,0,0,1-.24-.2c0-.05.12-.1.3-.14.66-.15.84-.45.84-1.18,0-.29,0-.39-.12-.54a1.26,1.26,0,0,0-1-.34h-.3c.06-.05.06-.1.12-.15a.74.74,0,0,0,.12-.24.47.47,0,0,1,.06-.25c.18-.15.18-.59.12-.88a2.08,2.08,0,0,0-.78-.78.22.22,0,0,1-.12-.05.77.77,0,0,1,.12-.25,1.73,1.73,0,0,0,.36-.68c0-.1,0-.25.06-.3a.44.44,0,0,0,.06-.24c.06-.2-.24-.59-.65-.93a1.41,1.41,0,0,1-.3-.3c0-.1.12-.14.18-.19a.38.38,0,0,1,.17-.2c.06,0,.12.05.24.1a.61.61,0,0,0,.9.05c.18-.15.18-.1.06-.84-.12-.48-.36-.73-.84-.73a.9.9,0,0,0-.36-.05v-.19c0-.05,0-.1,0-.15h.35c.78,0,1.38-.25,1.44-.59a.75.75,0,0,0-.3-.88c-.18-.1-.18-.15-.12-.3a1.12,1.12,0,0,0,0-.88,1.71,1.71,0,0,1-.12-.58.73.73,0,0,0-.3-.64.61.61,0,0,1-.18-.49.39.39,0,0,0-.18-.34c-.06-.05-.12-.1-.12-.15a.36.36,0,0,1,.12-.2.55.55,0,0,0,.12-.44.64.64,0,0,0-.3-.68c-.24-.15-.24-.15.06-.2a.81.81,0,0,0,.42-.2c.18-.14.24-.19.24-.39a2.57,2.57,0,0,1,.12-.59.91.91,0,0,0,.12-.93,1.43,1.43,0,0,0-.42-.34c-.24-.1-.24-.15-.24-.24a.75.75,0,0,1,.54-.45c.36,0,.48-.19.42-.73s-.06-.73-.42-.88a2.21,2.21,0,0,0-.54-.05c-.18,0-.24-.05-.18-.1a1.85,1.85,0,0,0,.18-.54c0-.1.12-.19.18-.29a.44.44,0,0,0,.06-.74,1,1,0,0,0-.36-.09,1,1,0,0,1-.54-.25.12.12,0,0,1,.12-.1.57.57,0,0,0,.36-.58c0-.15,0-.35.06-.4s.18-.09.3-.09c.42-.1.84-.4.84-.64s-.12-.39-.6-.83a1.55,1.55,0,0,1-.42-.45,2.83,2.83,0,0,0,.42,0c.3,0,.42,0,.54-.1.48-.35.3-1-.3-1.23-.12-.05-.12-.05-.12-.19a1,1,0,0,0-.54-.54c-.18-.05-.24-.1-.24-.2a.6.6,0,0,0-.06-.29c0-.05-.06-.1-.06-.15a.51.51,0,0,1,.3-.1c.18-.09.42-.24.6-.34a1.76,1.76,0,0,0,.66-.78c.06-.2.06-.25-.12-.44a1.57,1.57,0,0,0-.24-.3c-.06,0-.06-.14-.06-.29a.56.56,0,0,0-.18-.39.73.73,0,0,0-.6-.3c-.12,0-.24-.05-.18-.05a.72.72,0,0,1,.06-.24.41.41,0,0,0,.12-.34c0-.15.06-.15.24-.15a.56.56,0,0,0,.36-.15c.12-.15.12-.19.12-.68,0-.79,0-.89-.54-1.13-.12-.1-.24-.15-.36-.25a1.91,1.91,0,0,1-.06-.58,3,3,0,0,0-.06-.89c-.12-.24-.12-.24-.06-.29a.66.66,0,0,0,.48-.24,1.63,1.63,0,0,0,.18-.74c0-.64-.06-.73-.48-.83a.72.72,0,0,1-.24-.05l.12-.2a.43.43,0,0,0,.06-.39v-.29h.48c.48,0,.72-.05.9-.3a1.14,1.14,0,0,0-.06-1,2.38,2.38,0,0,0-1-.39c-.3,0-.36-.05-.36-.29a1,1,0,0,0-.06-.44c-.06-.1-.12-.25-.18-.35v-.19c.06,0,.18.05.3.05a.83.83,0,0,0,.54-.15c.36-.34.12-.78-.48-.83-.3-.05-.36-.05-.54-.3s-.23-.29-.11-.29a.66.66,0,0,0,.47-.34c0-.1.12-.25.3-.35a1,1,0,0,0,.48-1,1,1,0,0,0-.12-.63,2,2,0,0,1-.36-.35c-.18-.09-.18-.09-.18-.39a.26.26,0,0,1,0-.29.9.9,0,0,1,.36-.05c.72,0,1-.15,1-.59.06-.24,0-.29-.12-.49a1.68,1.68,0,0,0-.48-.39c-.18-.1-.3-.2-.3-.25h.3c.24,0,.36,0,.48-.14a.46.46,0,0,0,.12-.54c0-.1,0-.1.18-.15s.41-.29.41-.44a.8.8,0,0,0-.41-.44c-.06,0-.12,0-.18,0v-.44c.06-.24.06-.39.12-.39s.12-.1.24-.2.17-.14.12-.39,0-.34-.12-.44a1,1,0,0,1-.12-.64c0-.58,0-.68-.3-.88a1.54,1.54,0,0,0-.78-.1c-.66,0-.72-.05-.36-.34a.49.49,0,0,0,.24-.24c0-.05.12-.15.18-.2a.51.51,0,0,0-.06-.69.82.82,0,0,0-.24-.09c-.12,0-.12-.1.24-.35l.36-.29v-.49c.06-.69-.06-.88-.36-1s-.24-.1-.54,0-.48.15-.42.05a1.91,1.91,0,0,0,.18-.54c0-.15.06-.2.24-.29a.75.75,0,0,0,.42-.59c.06-.2-.24-.44-.48-.44a.22.22,0,0,1-.12,0,2.33,2.33,0,0,1,.18-.34,1.3,1.3,0,0,0,.12-.54,1.34,1.34,0,0,1,0-.49.52.52,0,0,0-.18-.44.58.58,0,0,0-.42-.1c-.23-.05-.35-.15-.35-.25s.12-.14.35-.19a1,1,0,0,0,.54-.25c.12-.1.12-.19.12-.64s0-.53-.12-.63a.66.66,0,0,0-.36-.2c-.23,0-.23,0-.18-.24s0-.2.18-.25a.85.85,0,0,0,.36-.14c.12-.1.12-.2.12-.49s-.06-.59-.3-.69-.18-.29.06-.74a2,2,0,0,0,.3-1.07v-.54l-.18-.15a2.16,2.16,0,0,0-.36-.15h-.12a.41.41,0,0,1,.06-.19,4.49,4.49,0,0,1,1.5-1.13.74.74,0,0,0,.36-.15c.12-.14.18-.19.12-.39a1.76,1.76,0,0,0-1.32-1.27c-.24-.05-.3-.05-.3-.15s0-.1.18-.14c.36-.1.48-.25.48-.69a.77.77,0,0,0-.06-.54,2.4,2.4,0,0,1-.12-.24,1.1,1.1,0,0,1-.42-.25,1.26,1.26,0,0,0-.36-.24l.18-.15a1.39,1.39,0,0,0,.54-1c0-.34-.06-.59-.3-.73s-.12-.1-.12-.49a1,1,0,0,0-.12-.54c0-.05,0-.1.18-.25s.18-.19.12-.44,0-.24.12-.34a1.25,1.25,0,0,0,.06-1.13,1,1,0,0,0-.54-.39c-.06,0,.12-.39.42-.74a.69.69,0,0,0,.18-.53,1,1,0,0,0-.24-.79c-.18-.15-.18-.19-.24-.54a2.38,2.38,0,0,0-.42-1.32l-.17-.15c.06-.05.12-.05.17-.09.3-.1.42-.35.42-.79a2.18,2.18,0,0,0-.06-.64c-.12-.24-.12-.24,0-.44s.12-.19.36-.24a.66.66,0,0,0,.48-.15.5.5,0,0,0,.12-.54.12.12,0,0,1,0-.19c.18-.25.06-.64-.36-.79-.12-.05-.12-.09-.06-.19s.24-.2.6-.3a.88.88,0,0,0,.42-.49c0-.19-.36-.44-.6-.44-.06,0-.18,0-.18-.1s-.18,0-.3,0-.18-.05-.18-.25.12-.29.18-.39a.85.85,0,0,0,.12-.44c0-.2-.06-.25-.24-.39s-.18-.15-.48-.1h-.29a.78.78,0,0,1,0-.34c0-.35,0-.35.18-.49.36-.25.54-.69.36-.94-.06,0-.06-.29-.12-.68,0-.54,0-.64.12-.78a.74.74,0,0,0,.12-.45c.06-.29.06-.29.3-.39s.42-.24.42-.83.06-.49-.12-.64-.42-.19-.84-.19h-.24v-.59c.06-.54.06-.64-.06-.74s-.17-.24-.06-.29a.5.5,0,0,0,.42-.49c0-.2,0-.24.12-.34s.24-.15.78-.15.66,0,.84-.1a.44.44,0,0,0-.24-.78,4.15,4.15,0,0,0-1-.05c-.84-.05-.84,0-.84-.39,0-.2.06-.2.24-.25.48-.14.54-.49.24-1.07a1.68,1.68,0,0,1-.18-.74,4.62,4.62,0,0,0-.12-.54c-.12-.15-.12-.15,0-.19a2.84,2.84,0,0,0,.42-.1l.36-.1c.06,0,.24-.1.42-.15.54-.19.66-.54.36-.83a.9.9,0,0,0-.6-.15c-.12,0-.24-.05-.36-.05v-.49a1.55,1.55,0,0,0-.18-.78c-.18-.24-.18-.34-.12-.44a1.53,1.53,0,0,0,.06-.29.28.28,0,0,1,.12-.35c.3-.24.12-.83-.3-1.12a.45.45,0,0,1-.18-.25s.18-.19.36-.29c.48-.25.6-.35.6-.59s-.42-.49-1-.44c-.3,0-.3,0-.3-.15s0-.15.06-.15a1.13,1.13,0,0,0,.42-.58c0-.05-.06-.15-.06-.2s0-.15.24-.24a.9.9,0,0,0,.54-.84.67.67,0,0,0-.12-.39c-.18-.15-.18-.19,0-.24.42-.05.6-.35.42-.69,0-.15-.06-.34-.06-.49s-.06-.15-.06-.24.12,0,.18.09a2,2,0,0,0,1.07.4,1,1,0,0,0,.84-.25.53.53,0,0,1,.24-.05,2.63,2.63,0,0,0,.84.1c.65,0,.71,0,.77,0,.12.34.66.39,1,.19.12-.14.12-.19.12-.68s.06-.54.12-.54.24.1.24.34a1.1,1.1,0,0,0,.29.84c.24.14.3.19.48.19a.84.84,0,0,0,.72-.29c.06-.05.06-.25.06-.44s0-.2.06-.25h.48c.48,0,.54-.05.71-.15a.56.56,0,0,0,.12-.29c.06-.15.06-.15.3-.05a.9.9,0,0,0,.36.05c.18,0,.24.05.24.15a1.76,1.76,0,0,0,1,.63.9.9,0,0,0,.41-.09,2,2,0,0,1,.9-.05H86a.14.14,0,0,0,.06.14.56.56,0,0,0,.65.35.54.54,0,0,0,.48-.59c0-.25,0-.29.12-.29a5,5,0,0,1,1.49,0c.12,0,.12,0,0,.3a.42.42,0,0,0-.11.44c.06.49.41.59,1.49.54a1.54,1.54,0,0,0,1-.2,1,1,0,0,0,.54-.34c.3-.39.36-.44.78-.39a.69.69,0,0,0,.6-.2.28.28,0,0,0,.18-.19c0-.05.06-.1.12-.15s.06-.1.17,0a.6.6,0,0,1,.12.29c0,.15.3.39.54.39s.6-.24.6-.44v-.14c.06,0,.24.19.42.44.42.49.54.58.83.63s.54,0,1.14-.49c.18-.14.3-.29.48-.44H98c.29.05.29.05.59-.14a.7.7,0,0,1,.66-.25c.48.05.48,0,.66-.15s.3-.19.71.15a.52.52,0,0,0,.48.2c.18,0,.24.05.42.19a.66.66,0,0,0,.42.2.71.71,0,0,1,.3.1.61.61,0,0,0,.36.14,1.43,1.43,0,0,0,.71-.29c.12-.1.18-.15.9-.15a3,3,0,0,0,1-.05.59.59,0,0,1,.41-.09,1.36,1.36,0,0,0,.9-.3l.24-.1c.06,0,.12.15.12.44a.72.72,0,0,0,.77.94c.36-.05.78-.3.78-.54.06,0,.06-.1.12-.15a.21.21,0,0,1,.24,0,2,2,0,0,0,.9.1c.65,0,.77-.05.89-.15s.18-.1.18-.2.06,0,.18,0a1.06,1.06,0,0,0,.36-.05,1.61,1.61,0,0,1,.42-.05,8.2,8.2,0,0,0,2,.05h1.73l.36-.15a2.55,2.55,0,0,1,.66-.2c.24-.05.24,0,.36.1a2.63,2.63,0,0,0,1.31.88.86.86,0,0,1,.42.1,1,1,0,0,0,1.07-.19c.12-.1.12-.15.54-.15s.54,0,.66-.1c.36-.15.42-.15.42.54-.06.88.06,1,1,.93a2.35,2.35,0,0,0,.9-.15c.42-.19.6-.34.54-.58v-.2h.24a1.06,1.06,0,0,0,.35-.15,1.08,1.08,0,0,1,.48-.1.69.69,0,0,0,.78-.44l.18-.29h.42a1.59,1.59,0,0,1,1,.24,1.35,1.35,0,0,0,1.32-.09.81.81,0,0,1,.59-.3.9.9,0,0,1,.18.1,3.66,3.66,0,0,0,1.38.59c.18,0,.24,0,.36-.2s.23-.14.59-.19H132a2.49,2.49,0,0,1,.42.39c.48.34.54.34.72.34a.72.72,0,0,0,.47-.1.56.56,0,0,0,.18-.49v-.29c.24,0,.54-.05.78-.05h.84a.83.83,0,0,0,.24.15c.29.24.35.29,1.25.29a4.32,4.32,0,0,0,1.14-.1,1.33,1.33,0,0,1,.59-.09h.24v.39c0,.44.06.63.3.68.42.2.78-.05,1.2-.68.23-.49.41-.59.71-.59s.24,0,.36.15a1.89,1.89,0,0,0,1,.49,1.21,1.21,0,0,0,1.37-.25c.24-.24.3-.24.66-.24a1,1,0,0,1,.66.14,1.5,1.5,0,0,1,.65.59,1.06,1.06,0,0,0,.72.44,1.26,1.26,0,0,0,.84-.19.81.81,0,0,0,.53-.74v-.24l.24.09c.12.1.3.1.66.1h.54l.24-.19a.72.72,0,0,0,.18-.2c.11.05.17.1.23.1a1.28,1.28,0,0,0,1,0,5.46,5.46,0,0,1,1.2-.2,1,1,0,0,1,.53.2.72.72,0,0,0,.9-.25l.24-.19c.12-.1.18-.1.3.05a3,3,0,0,1,.47.24l.42.2a3.56,3.56,0,0,0,1.26.39.77.77,0,0,0,.71-.59v-.2a.46.46,0,0,1,.3.2.86.86,0,0,0,.72.2c.18-.05.24-.05.36.05a.75.75,0,0,0,.84.09c.23-.14.41-.14.47,0s.3.3.6.3a.73.73,0,0,1,.36.1,2.27,2.27,0,0,0,.78.09c.59,0,.59,0,.77-.09a.46.46,0,0,0,.24-.25c0-.15.12-.19.36-.29a.51.51,0,0,1,.3-.1.33.33,0,0,1,.18.1.6.6,0,0,0,.77-.15c.12-.1.18-.15.24-.05a1,1,0,0,1,.36.34,1.42,1.42,0,0,0,.54.45,1.68,1.68,0,0,0,1-.1l.65-.2a.53.53,0,0,1,.42.05.5.5,0,0,0,.36.1.6.6,0,0,0,.54-.25,2.66,2.66,0,0,1,.65-.39c.54-.15.66-.15.6.05a.38.38,0,0,0,.18.29,1.08,1.08,0,0,0,.72.15c.48,0,.54,0,.6.05a.64.64,0,0,0,.83.25c.12-.1.18-.05.42.09a.57.57,0,0,0,.72.1.51.51,0,0,0,.36-.54.24.24,0,0,1-.06-.19h.29a.38.38,0,0,0,.42-.1c.12-.1.24-.2.24-.25v-.05a1.38,1.38,0,0,1,.66.45,1.26,1.26,0,0,0,.84.34.63.63,0,0,0,.53-.2c.3-.19.6-.24.72-.1a1.38,1.38,0,0,0,.3.15c.12,0,.36.2.72.49a6.13,6.13,0,0,0,.59.54.63.63,0,0,0,.72,0c.18-.1.18-.15.24-.54a1.14,1.14,0,0,1,.24-.78c.12-.15.3-.39.36-.44s.06-.1.12-.15c.06.1.12.15.18.24.17.3.35.35.77.4a.94.94,0,0,1,.42.09s.24.15.42.2a1.43,1.43,0,0,0,.95.1,6.36,6.36,0,0,1,1.38,0c.78.05,1,0,1.07-.39,0-.1.06-.15.42-.25a3.11,3.11,0,0,1,.6-.1h.24v.2c0,.59.89.69,1.19.1a1.78,1.78,0,0,0,.12-.35c.06-.09.12-.09.3.1a2.19,2.19,0,0,0,1,.35h.36a4,4,0,0,1,.29.29,1,1,0,0,0,.78.44,2.57,2.57,0,0,0,1.26-.39.92.92,0,0,1,.53-.15,9.34,9.34,0,0,1,2.15.05s-.17.05-.41.15c-.42.1-.6.24-.6.49s.3.44.66.44a2.35,2.35,0,0,0,.59-.05c.3-.1.36-.1.54,0a2.84,2.84,0,0,0,.42.1c.18,0,.18,0,.3.24a.72.72,0,0,0,.36.35.89.89,0,0,1,.24.14c.12,0,.06,0-.12.15a1,1,0,0,1-.6.15.65.65,0,0,0-.54.09l-.18.15a2.5,2.5,0,0,1,.06.64,2.41,2.41,0,0,0,.18,1,1.22,1.22,0,0,0,.24.44c.12.1.12.1-.18.24-.48.2-.54.3-.48.79.06.34.06.39.24.54a.85.85,0,0,0,.36.14,1.39,1.39,0,0,1,.48.05c.06.05.12.05.18.1a.5.5,0,0,0-.24.1c-.12.05-.24.09-.24.14a.44.44,0,0,0,.06.59c.12.15.18.2.48.2s.36,0,.36.05-.12.19-.3.29a1.33,1.33,0,0,0-.36.39c-.12.2-.12.2-.06.49s.06.25-.12.39a.55.55,0,0,0-.18.45c0,.34.18.53.54.63.18.05.24.05.24.3s-.06.24-.24.19a.53.53,0,0,0-.48.49c0,.2-.06.2-.24.25a.49.49,0,0,0-.36.83.5.5,0,0,0,.36.1c.18.05.24.05.24.24-.06.35.12.49.48.54.12.05.3.1.3.15a.88.88,0,0,1-.3.15c-.54.19-.6.29-.6.58a.36.36,0,0,0,.18.39.6.6,0,0,0,.42.15h.24c-.24.44-.3.54-.24.69s.12.19.18.19.06.2.12.35a.39.39,0,0,0,.18.39c.17.15.17.19,0,.19a.94.94,0,0,0-.66.25.89.89,0,0,0,0,.78,1.24,1.24,0,0,0,.66.25.59.59,0,0,1,.17,0,4.56,4.56,0,0,1-.71.39c-.6.34-.66.39-.78.34a.74.74,0,0,0-.72.05c-.18.2-.18.2-.18.74.06.29.06.44.18.53a.35.35,0,0,1,.12.25c.06.2.18.29.48.44a.83.83,0,0,1,.24.15l-.18.14c-.12.05-.24.15-.3.15a1.45,1.45,0,0,0-.48.74c0,.34.42.78,1.08.93.12.05.12.05,0,.09a.68.68,0,0,0-.3.94c.18.39.18.34,0,.34a.74.74,0,0,0-.54.44.88.88,0,0,0,.06.34,1,1,0,0,1,.18.64,1.14,1.14,0,0,0,.66,1.08c.18.14.3.24.3.29a2.41,2.41,0,0,0,.36.83c.12.05.12.1-.06.3-.48.49-.54.63-.54,1s0,.34.18.44a.54.54,0,0,0,.6.1c.12-.05.12,0,.12.14a.44.44,0,0,0,.17.35c.06.09.12.19.12.73a2.71,2.71,0,0,0,.24,1.32c.12.2.06.3-.24.25a.52.52,0,0,0-.47.49.51.51,0,0,0,.06.29.9.9,0,0,0,.65.25h.3v.19a.48.48,0,0,1-.18.39c-.12.1-.12.2-.12.74s0,.59-.53.64a1.2,1.2,0,0,0-.78.49.58.58,0,0,0-.06.68c.06.15.54.34.84.39h.23a.11.11,0,0,0-.11.1.77.77,0,0,1-.3.05c-.24.05-.6.2-.66.34s-.12.35.12.59.24.34.12.39c-.3.1-.42.69-.24,1a1.76,1.76,0,0,0,.66.69c.06.1.12.14.06.14a1.25,1.25,0,0,0-.54.49,1.08,1.08,0,0,0,.06.74,3,3,0,0,0,.72.34h.11a2.42,2.42,0,0,1-.71.49c-.36.15-.48.3-.42.79,0,.29,0,.39.12.53s.06.15.06.25a.68.68,0,0,0,.78.44c.23-.05.23,0,.35.1s.12.19.06.24a.92.92,0,0,0-.18.59c0,.15-.06.2-.17.2a.64.64,0,0,0-.3.49c-.06.14.3.44.47.49s.18.1.06.29-.06.15-.06.25-.06.19-.12.19-.41.25-.35.44a.41.41,0,0,0,.3.44c.11.1.17.15.17.49s.06.54.36.64c.12.05.18.05.18.29a.39.39,0,0,1-.24.4.92.92,0,0,0-.3.63.28.28,0,0,1-.17.25,1.36,1.36,0,0,0-.54.78c-.06.25.24.59.59.74.12.05.12.05,0,.19s-.23.15-.35.25a.74.74,0,0,0-.36.34c-.12.15-.18.2-.12.39a.75.75,0,0,0,.12.39.62.62,0,0,0,.54.3c.23,0,.17,0-.18.19s-.54.25-.48,1v.64c.06.05.18.1.24.15s.24.19.24.44a1.06,1.06,0,0,0,.41.83.44.44,0,0,1,.24.2c0,.05-.06.09-.12.19a3.36,3.36,0,0,0-.06,1c0,.79,0,.83.12,1s.06.2.06.3,0,.14-.18.24l-.23.2c0,.05-.06.14-.12.14a.77.77,0,0,0-.3,0l-.42.2a.44.44,0,0,0-.3.49.57.57,0,0,0,.6.39h.3v.24a.81.81,0,0,0,.12.49c.12.35.12.45,0,.49s-.36.35-.3.54.12.15.18.25a.33.33,0,0,0,.18.1c-.06.09-.06.14-.12.24a1.12,1.12,0,0,1-.36.39c-.3.25-.3.39,0,.74a1.3,1.3,0,0,1,.24.44.52.52,0,0,0,.36.44c.05,0,.11,0,.17.1v.54c0,.54-.06.58-.17.63s-.18.1-.24.2-.18.2-.24.24a.48.48,0,0,0-.12.3c0,.15.06.24.3.39s.24.34,0,.29a.65.65,0,0,0-.66.25c-.06,0-.06.24-.06.39s0,.29.24.49a.63.63,0,0,1,.24.34.76.76,0,0,0,.24.59c.18.1.18.15.06.34-.12.35-.36.49-.84.54-.3,0-.48.1-.54.2a.5.5,0,0,0-.06.64.62.62,0,0,0,.72.29h.36v.39c.06.39,0,.39-.12.49a.45.45,0,0,0-.18.79.75.75,0,0,0,.6.09c.18,0,.41,0,.41.05s.06.1.06.2,0,.24.12.39.06.1.12.2-.12.05-.18.09-.18.25-.23.35a.73.73,0,0,1-.18.24.5.5,0,0,0-.24.1l-.42.2c-.18.09-.3.14-.3.19a1.43,1.43,0,0,0-.12.64,1.69,1.69,0,0,1-.06.54.47.47,0,0,1,.24.19c.24.15.3.2.3.49s0,.4.12.49a.91.91,0,0,1,.06.44.39.39,0,0,0,.06.25,5.33,5.33,0,0,0-.48.24c-.6.25-.84.44-.9.69a.56.56,0,0,0,.12.29.86.86,0,0,0,.54.25c.18,0,.24,0,.24.1a1.15,1.15,0,0,0,.24.68c.18.15.18.25.18.54.06.44.12.64.42.74.12,0,.12,0,.12.09v.4c0,.34-.06.34-.24.39a1,1,0,0,0-.3.14c-.12.1-.18.15-.12.45s.06.39.54.58.35.15.18.15a1,1,0,0,0-.36.1c-.18.05-.48.39-.42.54s.18.39.48.49l.3.1-.18.14c-.12.1-.12.15-.12.69s0,.78.3.88a.24.24,0,0,1,.17.05.28.28,0,0,0-.17.1c-.24.14-.36.34-.3.83s.06.83.47,1a.83.83,0,0,0,.24.14c.06.05-.24.4-.3.4s-.17.09-.29.14a.42.42,0,0,0-.12.35.73.73,0,0,0,.3.58c.05.1.05.1-.12.2a.74.74,0,0,1-.36.15,1.23,1.23,0,0,0-.72.54,1.2,1.2,0,0,0-.06.78,5.25,5.25,0,0,0,1.08.88c.12.05.18.15.29.2-.06.1-.17.24-.23.34a1.66,1.66,0,0,1-.24.34c-.06,0-.12-.05-.24-.09a.88.88,0,0,0-.78,0,.51.51,0,0,0,0,.74,1.83,1.83,0,0,1,.18.29.62.62,0,0,0,.24.35c.54.44.72.63.66.73v.69a1.59,1.59,0,0,0-.24.05c-.12,0-.3,0-.3.09a.51.51,0,0,1-.3.1c-.54,0-.84.44-.42.79a.6.6,0,0,0,.3.14.72.72,0,0,1,.24.05l-.12.2c-.12.19-.12.29-.12.73s0,.49.12.59.3.15.54.2a.77.77,0,0,1,.3.05v.39c0,.09-.06.24-.06.39h-.18a2.21,2.21,0,0,0-.54.05,2.65,2.65,0,0,1-.48.14.47.47,0,0,0-.42.59.42.42,0,0,0,.18.39c.12.15.18.15.78.2h.66v.59c0,.59,0,.83-.18.83a1.4,1.4,0,0,0-.6.29c-.06,0-.06.15-.12.25a.52.52,0,0,0,.36.64,2.26,2.26,0,0,1,.36.14c.12.1.12.1.06.2a.54.54,0,0,0,.06.59c.12.05.12.1,0,.19s-.12.4.12.59.18.2.24.49a3.3,3.3,0,0,0,.06.39c.05.05,0,.1-.12.1s-.54.1-.6.25a.66.66,0,0,0,.06.73.82.82,0,0,1,.12.34.91.91,0,0,0,.24.69.47.47,0,0,1,.18.24c.06.05.06.15.17.25a.89.89,0,0,1,.12.29,1.22,1.22,0,0,0,.06.44,1.63,1.63,0,0,1,.12.44v.2a1.3,1.3,0,0,0-.41.05c-.42,0-.54.05-.66.29a.52.52,0,0,0,.24.79c.18,0,.18.05.12.63v.59a.25.25,0,0,0-.18,0,.48.48,0,0,0-.36.83c.18.25.6.64.72.64s.12.05.12.15v.24c.06.05,0,.1-.18.1a.58.58,0,0,0-.42.1c-.6.39-.72.54-.78.64a.71.71,0,0,0,.3.68c.12.1.24.25.36.34a.86.86,0,0,0,.36.25,1,1,0,0,1,.24.1c-.06.05-.12.14-.18.19a.85.85,0,0,0-.18.49c-.06.3-.06.3-.3.39a.68.68,0,0,0-.3.25.56.56,0,0,0,0,.73,1.6,1.6,0,0,1,.12.45c0,.14,0,.19.24.39s.3.19.3.24.06.15-.18.39a.48.48,0,0,0-.12.3c0,.1-.06.15-.24.15a.54.54,0,0,0-.54.34c-.06.34-.12.39-.36.44a.5.5,0,0,0-.36.1,1.9,1.9,0,0,1-.65.05,1.49,1.49,0,0,0-.72.14c-.06.05-.18.1-.24.15a.33.33,0,0,1-.18-.1c-.12-.05-.24-.19-.36-.24a1.1,1.1,0,0,0-.65-.3,1.71,1.71,0,0,0-.78.25c-.12.14-.24.14-.48-.05l-.24-.2h-.53a1.67,1.67,0,0,0-.78.1c-.06.05-.18.05-.3.1s-.06,0-.06-.1a1.7,1.7,0,0,0-.48-.29,1,1,0,0,0-.71-.2c-.42,0-.6.1-.66.39a.75.75,0,0,0-.06.25.88.88,0,0,0-.3-.15.62.62,0,0,0-.54-.1c-.18,0-.42.05-.48.05s-.12,0-.18-.1c-.17-.29-.35-.34-1.19-.34a4.41,4.41,0,0,1-.84-.05,1,1,0,0,1-.41.2l-.36.14a2.14,2.14,0,0,1-.42-.34c-.36-.34-.48-.34-.66-.34a.7.7,0,0,0-.6.29.45.45,0,0,1-.18.25,1.48,1.48,0,0,0-.17.29c-.06.15-.12.2-.24.2a4.48,4.48,0,0,0-1-.05,2.32,2.32,0,0,0-1.07.05c-.12.05-.12.05-.42-.1s-.3-.15-1.2-.15c-.36,0-.66-.05-.95-.05a.84.84,0,0,0-.24-.14.66.66,0,0,0-.36-.2c-.06,0-.18-.1-.24-.15a.94.94,0,0,0-.3,0c-.3,0-.72.19-.78.44a.5.5,0,0,1-.23.24l-.18.15c0-.05-.06-.1-.12-.2s-.3-.24-.72-.24a.81.81,0,0,0-.48.09.42.42,0,0,0-.12.35c0,.14-.06.19-.18.19a.9.9,0,0,1-.36-.19,2,2,0,0,0-1-.3,1.58,1.58,0,0,1-.54,0,3.18,3.18,0,0,0-1-.09c-.23,0-.47-.05-.71-.05l-.18.14a.28.28,0,0,0-.18.3c0,.19-.12.24-.18.1a.62.62,0,0,0-.54-.3,3.7,3.7,0,0,1-1.13-.49c-.12-.09-.24-.09-.48-.09a1.82,1.82,0,0,0-1,.29l-.35.15a.6.6,0,0,0-.24.14c-.06.1-.06.1-.18.05a4.12,4.12,0,0,0-1.14-.05.84.84,0,0,0-.3.15c-.12.15-.18.15-.3.1a.74.74,0,0,0-.65,0l-.36.14c-.12,0-.12,0-.18-.14-.18-.39-.3-.44-1-.44a4.4,4.4,0,0,0-.83,0,.43.43,0,0,1-.42-.05,2.7,2.7,0,0,0-1.55-.34c-.6,0-.6,0-.84.09a2.23,2.23,0,0,0-.36.25.17.17,0,0,1-.18.1,2.16,2.16,0,0,0-.77-.1c-.6,0-.66,0-.84.14a.77.77,0,0,0-.12.25c0,.15-.06.15-.54,0a2.25,2.25,0,0,0-1-.15c-.6-.05-.6-.05-.78.1s-.24.2-.24.44-.06.2-.06.3h-.24c-.24,0-.3-.05-.3-.15a.47.47,0,0,0-.06-.25,4.73,4.73,0,0,0-1.13-.63,1,1,0,0,0-.66-.1c-.3,0-.36,0-.48.15a3.81,3.81,0,0,0-.65.68,4.75,4.75,0,0,1-.9,0c-.06,0-.18-.1-.24-.24s-.3-.3-.36-.4-.24-.09-.83-.09a3.26,3.26,0,0,0-.84.05c-.24.09-.42.29-.42.44s-.06.14-.24.09-.3,0-.36-.19-.3-.39-.65-.64a1.33,1.33,0,0,0-.72-.14.92.92,0,0,0-.54.09.63.63,0,0,0-.12.3c0,.05-.06.14-.12.14a2,2,0,0,1-.71.05,1.5,1.5,0,0,0-.78.05c-.18.1-.18.1-.36-.05a.9.9,0,0,0-.36-.19,1.08,1.08,0,0,1-.48-.15,1.52,1.52,0,0,0-1.07.05c-.18.1-.24.1-1,.1-.3,0-.54-.05-.77-.05a1.17,1.17,0,0,0-.24.14c-.12.15-.18.2-.3.15a2,2,0,0,0-.6-.05c-.48,0-.48,0-.66.15l-.18.15a1.26,1.26,0,0,1-.47-.2,1.56,1.56,0,0,1-.6-.29,1.14,1.14,0,0,0-.78-.4.66.66,0,0,0-.42.1c-.18.15-.18.2-.18.49s-.12.39-.29.25c0-.05-.18-.2-.36-.3a.65.65,0,0,0-.9,0c-.12.1-.18.15-.12.35s0,.24-.06.24l-.18-.15c-.18-.14-.18-.19-.12-.24a.48.48,0,0,0,.12-.29.53.53,0,0,0-.6-.45,2,2,0,0,0-.83.3s-.3.1-.72.1c-.66,0-.72,0-.89.09s-.24.1-.6.1a5.29,5.29,0,0,1-.66-.1,3.88,3.88,0,0,0-.6-.14,2.67,2.67,0,0,1-.59-.15,1.67,1.67,0,0,0-.78-.2.6.6,0,0,0-.6.49c0,.2,0,.2.48.54.06.1.18.15.18.2s-.06.1-.18,0a2.47,2.47,0,0,1-1-.64.67.67,0,0,0-1-.1c-.24.25-.3.4-.18.64s.12.15.12.25c-.06-.05-.06-.05-.12-.05a.51.51,0,0,1-.3-.1" transform="translate(-72.04 -318.37)"/>
    </g>
    <g id="g2674">
      <path id="path2776" class="cls-2" d="M156.44,399.25l-10.5-3.3-1.8-4.51-.32,2.33-4.2-2.68,1.64-1.89-2.44-6.08,9.48,7.39.48,3.78Zm-51.92-5-.15.15-.34-.19Zm55,13.12a37.73,37.73,0,0,1-15.6-5,57.56,57.56,0,0,0-15.65-6L133.1,393l-4.91-7.61,3.32-4-2.07-5L120,380.85l9.51-9.1,31.84,26.56-.46,2.3,1.48-.39-1.69,1.42-.49,2.47-.24,1.17,1.76-.6-2.05,2.08Zm5.11-.32-1.69-.94,1.85.15Zm-70.81-6c38.42-9.61,38.84,24,68.21,16.7-28.35,13.14-31.54-20.9-68.21-16.7m81-4-24.76-22.52-6.92,6.23-13.42-11.62-19.07,19.07-.07-.35-1.88-.72,1.74.09-.5-2.56-1.24-.45h1.15l-1.15-5.73-.89,4.46.89-.24-1,.61-.52,2.58,1.48-.39L107,386.88l-.49,2.47-.24,1.17,1.76-.6L106,392l-.19.95-.15-.74-.31-1.54-1.88-.72,1.74.09-.5-2.56-1.24-.45h1.15l-1.15-5.73-.89,4.46.89-.24-1,.62-.52,2.57,1.48-.39-1.69,1.42-.49,2.47-.24,1.18,1.76-.6-2.05,2.07L100.3,397l-.73.21-2.16-1.2,2,.17L99,394l-.31-1.54-1.88-.72,1.74.09-.5-2.56-1.24-.45H98l-1.15-5.73-.89,4.46.89-.24-1,.61-.51,2.58,1.48-.39-1.69,1.42L94.65,394l-.24,1.17,1.76-.6-2,2.07-.54,2.68a55.52,55.52,0,0,0-6.31,3.06c9.7-3,18-4.84,26-4.49l.19-1,1-1-.88.3.12-.59.24-1.24.85-.7-.74.19.25-1.29.49-.3-.45.11.45-2.22.57,2.86h-.57l.62.23.25,1.28-.87-.05.94.36.15.77.22,1.1-1-.09,1.13.63.18.89c.76.09,1.53.2,2.29.33l2-2.07L119,397l.23-1.17.5-2.48,1.69-1.41-1.49.38.52-2.57,1-.62-.9.24.9-4.45,1.14,5.72h-1.14l1.23.46.5,2.56-1.73-.1,1.87.72.31,1.55L124,398l-2-.17,2.26,1.26.15.76a58.45,58.45,0,0,1,15.3,7.74c13.95,9.5,36,5.9,46.45-7.48a62.71,62.71,0,0,1-13.25,5.77l-.08-.38-1.13-.63,1,.09-.22-1.1-.16-.77-.94-.36.87,0-.25-1.28-.62-.22H172l-.58-2.87-.44,2.23.44-.12-.48.31-.26,1.29.74-.2-.84.71-.25,1.24-.12.58.88-.3-1,1-.3,1.49h0l-.27.05-.1-.51-1.8-1,1.62.13-.35-1.74-.24-1.23-1.49-.57,1.37.08-.39-2-1-.36H168L167.1,395l-.71,3.53.71-.18-.77.48-.41,2.05,1.18-.31-1.34,1.12-.4,2-.18.93,1.39-.48-1.63,1.65v.06l-.34-1.69-.31-1.54-1.88-.72,1.74.09-.5-2.56-1.24-.45h1.15l-1.15-5.73-.89,4.46.89-.24-1,.61-.05.25-8.25-7.8L164,391.77l-10-5.67.59,2.46-5.43-4.74-2.77.19-1.52-1.44,8.86,1.18-.7-3.87Z" transform="translate(-72.04 -318.37)"/>
    </g>
  </g>
  <g id="Layer_2" data-name="Layer 2">
    <g>
      <path class="cls-3" d="M276.27,378c-.6-2-1.24-4.11-1.93-6.24s-1.37-4.26-2-6.38h-21l-2,6.4c-.68,2.13-1.32,4.21-1.91,6.22H234.78q3-9.42,5.75-17.41t5.33-15q2.61-7.07,5.14-13.42t5.25-12.41h11.47q2.65,6.06,5.23,12.41t5.18,13.42q2.61,7.06,5.34,15T289.23,378Zm-14.54-45.08c-.27.85-.66,2-1.18,3.45s-1.11,3.15-1.78,5.05-1.4,4-2.23,6.31-1.65,4.71-2.5,7.23h15.38c-.83-2.53-1.62-4.95-2.39-7.25s-1.51-4.41-2.2-6.32-1.31-3.59-1.83-5.05S262.05,333.75,261.73,332.92Z" transform="translate(-72.04 -318.37)"/>
      <path class="cls-3" d="M333.84,366.73V378H297.92V319.71H310v47Z" transform="translate(-72.04 -318.37)"/>
      <path class="cls-3" d="M343.38,378V319.71h36v11h-23.9v12.2h21.26v11H355.48V378Z" transform="translate(-72.04 -318.37)"/>
      <path class="cls-3" d="M422,378c-.6-2-1.24-4.11-1.93-6.24s-1.38-4.26-2.06-6.38h-21c-.67,2.13-1.36,4.26-2,6.4s-1.31,4.21-1.9,6.22H380.54q3-9.42,5.76-17.41t5.33-15q2.61-7.07,5.13-13.42T402,319.71h11.47c1.76,4,3.51,8.18,5.22,12.41s3.44,8.71,5.18,13.42,3.52,9.72,5.34,15S433,371.72,435,378ZM407.5,332.92c-.27.85-.67,2-1.19,3.45s-1.11,3.15-1.77,5.05-1.41,4-2.23,6.31-1.66,4.71-2.5,7.23h15.37q-1.23-3.79-2.39-7.25t-2.2-6.32q-1-2.86-1.82-5.05C408.24,334.89,407.82,333.75,407.5,332.92Z" transform="translate(-72.04 -318.37)"/>
      <path class="cls-3" d="M460.6,362.54a18.9,18.9,0,0,1,.85-5.84,19.26,19.26,0,0,1,2.28-4.79,18.58,18.58,0,0,1,3.33-3.78,28.25,28.25,0,0,1,4-2.9,39.88,39.88,0,0,1-3.3-5.29,13.06,13.06,0,0,1-1.48-6.18q0-7.39,4.11-11.4t11.33-4a17.59,17.59,0,0,1,6.36,1.05,13,13,0,0,1,4.54,2.86,12.05,12.05,0,0,1,2.75,4.21,14.17,14.17,0,0,1,.93,5.17,16,16,0,0,1-2.68,9.13,23.78,23.78,0,0,1-6.79,6.69l8.74,9.37a33.17,33.17,0,0,0,1.33-4.23,27.2,27.2,0,0,0,.8-4.48l9.62,1.35a35,35,0,0,1-.55,3.49c-.25,1.26-.58,2.54-1,3.83s-.83,2.58-1.32,3.87a30.77,30.77,0,0,1-1.59,3.54,81,81,0,0,1,4.85,6.59A58.09,58.09,0,0,1,511.8,378H500c-.43-.74-1-1.66-1.73-2.75a24.08,24.08,0,0,0-2.17-2.82,28.39,28.39,0,0,1-7.22,4.51,22.64,22.64,0,0,1-9.24,1.82,24.42,24.42,0,0,1-9.08-1.47,16.59,16.59,0,0,1-5.86-3.78,13.41,13.41,0,0,1-3.14-5.22A18.73,18.73,0,0,1,460.6,362.54Zm10.78-1.26a7.91,7.91,0,0,0,.47,2.6,7,7,0,0,0,1.51,2.48,7.92,7.92,0,0,0,2.69,1.84,9.76,9.76,0,0,0,4,.72,16.06,16.06,0,0,0,5.72-.94,12.31,12.31,0,0,0,4.08-2.48l-12.49-13.45a13.84,13.84,0,0,0-2.12,1.43,10.42,10.42,0,0,0-1.89,2,10.15,10.15,0,0,0-1.39,2.56A9.19,9.19,0,0,0,471.38,361.28Zm15.05-29a5.55,5.55,0,0,0-1.16-3.46,4.6,4.6,0,0,0-3.88-1.52,4.7,4.7,0,0,0-3.84,1.64,6.43,6.43,0,0,0-1.36,4.25,8.58,8.58,0,0,0,1.16,4.25,19.68,19.68,0,0,0,3,3.94,17.4,17.4,0,0,0,4.29-3.63A8.17,8.17,0,0,0,486.43,332.26Z" transform="translate(-72.04 -318.37)"/>
      <path class="cls-3" d="M291.41,438.26a38.56,38.56,0,0,1-2.06,13.16,27.51,27.51,0,0,1-5.62,9.51,22.91,22.91,0,0,1-8.5,5.76,28.67,28.67,0,0,1-10.59,1.93,28,28,0,0,1-10.39-1.93,23.73,23.73,0,0,1-8.54-5.76,27.26,27.26,0,0,1-5.74-9.51,38.06,38.06,0,0,1-2.09-13.16,36.64,36.64,0,0,1,2.17-13.16,28.27,28.27,0,0,1,5.86-9.55,23.84,23.84,0,0,1,8.53-5.8,27.25,27.25,0,0,1,10.2-1.94,28,28,0,0,1,10.4,1.94,23.42,23.42,0,0,1,8.53,5.8,27.57,27.57,0,0,1,5.74,9.55A37.81,37.81,0,0,1,291.41,438.26Zm-41,0a28.46,28.46,0,0,0,1,7.74,18.28,18.28,0,0,0,2.79,5.93,12.55,12.55,0,0,0,4.46,3.82,14.14,14.14,0,0,0,12.06,0,12.34,12.34,0,0,0,4.5-3.82A18.3,18.3,0,0,0,278,446a28.86,28.86,0,0,0,1-7.74,29.32,29.32,0,0,0-1-7.78,18.13,18.13,0,0,0-2.8-6,12.47,12.47,0,0,0-4.5-3.83,13.25,13.25,0,0,0-6-1.34,12.88,12.88,0,0,0-6.05,1.38,13.11,13.11,0,0,0-4.46,3.87,18.31,18.31,0,0,0-2.79,6A28.63,28.63,0,0,0,250.37,438.26Z" transform="translate(-72.04 -318.37)"/>
      <path class="cls-3" d="M317.55,409.16c.93,1.85,2,4.14,3.23,6.85s2.49,5.67,3.81,8.84,2.63,6.4,3.93,9.71l3.65,9.34q1.71-4.38,3.66-9.34t3.93-9.71q2-4.75,3.81-8.84c1.22-2.71,2.29-5,3.23-6.85h11q.78,5.8,1.44,13t1.16,15q.51,7.78.93,15.61t.74,14.72H350.29q-.24-8.51-.62-18.51t-1.17-20.18q-1.39,3.53-3.11,7.82T342,445.16c-1.11,2.86-2.19,5.59-3.22,8.2s-1.92,4.83-2.65,6.68h-8.46c-.72-1.85-1.61-4.08-2.64-6.68s-2.12-5.34-3.23-8.2-2.25-5.72-3.39-8.58-2.18-5.47-3.11-7.82q-.78,10.17-1.16,20.18t-.62,18.51h-11.8q.31-6.9.74-14.72t.93-15.61q.51-7.77,1.17-15t1.43-13Z" transform="translate(-72.04 -318.37)"/>
      <path class="cls-3" d="M374.64,467.45V409.16H411v11h-24.2v11.44h21.49v10.76H386.75v14.05h26v11Z" transform="translate(-72.04 -318.37)"/>
      <path class="cls-3" d="M449.66,419.25q-8.46,0-12.22,5.09t-3.76,13.92a30.23,30.23,0,0,0,.93,7.78,17.64,17.64,0,0,0,2.79,6,12.66,12.66,0,0,0,4.66,3.91,14.38,14.38,0,0,0,6.51,1.39c1.35,0,2.5,0,3.46-.08a15.54,15.54,0,0,0,2.52-.34V436.66h12.1v28.85a42.52,42.52,0,0,1-7,2,56.83,56.83,0,0,1-11.87,1.05,28.6,28.6,0,0,1-11-2,23,23,0,0,1-8.42-5.89,26.84,26.84,0,0,1-5.39-9.5,40.14,40.14,0,0,1-1.9-12.87,37,37,0,0,1,2.1-12.95,28,28,0,0,1,5.74-9.55,24,24,0,0,1,8.57-5.93,27.55,27.55,0,0,1,10.51-2,39.85,39.85,0,0,1,6.87.55,42.4,42.4,0,0,1,5.27,1.26,24.53,24.53,0,0,1,3.65,1.47c.95.51,1.64.9,2.05,1.18l-3.49,10.52a30.07,30.07,0,0,0-5.7-2.49A22.56,22.56,0,0,0,449.66,419.25Z" transform="translate(-72.04 -318.37)"/>
      <path class="cls-3" d="M515.75,467.45q-.9-3-1.93-6.24c-.69-2.14-1.38-4.26-2.06-6.38h-21q-1,3.19-2,6.39c-.68,2.14-1.31,4.21-1.9,6.23H474.25q3-9.42,5.76-17.41T485.34,435q2.61-7.07,5.13-13.41t5.26-12.41H507.2q2.66,6.06,5.22,12.41T517.6,435q2.61,7.06,5.34,15.06t5.77,17.41Zm-14.54-45.08c-.27.84-.67,2-1.19,3.45s-1.11,3.14-1.77,5.05-1.41,4-2.23,6.31-1.65,4.7-2.5,7.22h15.37q-1.23-3.79-2.39-7.24c-.77-2.31-1.5-4.41-2.2-6.32l-1.82-5C502,424.33,501.53,423.19,501.21,422.37Z" transform="translate(-72.04 -318.37)"/>
    </g>
  </g>
</svg>
