<svg xmlns="http://www.w3.org/2000/svg" width="183.34mm" height="45.58mm" viewBox="0 0 519.71 129.21">
  <defs>
    <style>
      .cls-1, .cls-3 {
        fill: #40ba86;
      }

      .cls-1, .cls-2 {
        fill-rule: evenodd;
      }

      .cls-2 {
        fill: #fffeff;
      }
    </style>
  </defs>
  <g id="Layer_3" data-name="Layer 3">
    <g>
      <path id="path2172" class="cls-1" d="M86.47,422.85a1.4,1.4,0,0,1-.31-.25,2,2,0,0,0-1.29-.26,2.43,2.43,0,0,0-1,.1,3.07,3.07,0,0,1-1.23.11c-1.11-.05-1.72-.16-2-.41a1.25,1.25,0,0,0-.74-.2c-.31,0-.55.1-.62.4s-.06.16-.3.16-.31,0-.37-.11-.37-.25-1.36-.25h-.92c-.06-.1-.19-.15-.25-.2a1,1,0,0,0-.37-.2,1.15,1.15,0,0,1-.37-.15,1.65,1.65,0,0,0-.55,0c-.31,0-.37,0-.56.15s-.18.15-.12.4,0,.25-.19.25-.12,0-.12-.1-.18-.3-.49-.45a2.63,2.63,0,0,0-.74-.05h-.74a1.21,1.21,0,0,0-.62.55c-.06.21-.12.21-.24.1s-.56-.25-1.11-.25-.49,0-.68.1-.24.15-.31.15a.77.77,0,0,0-.3.05c-.13.06-.31.11-.44.16a1,1,0,0,1-.55,0,3.44,3.44,0,0,1-1.23-.51c0-.15-.25-.45-.43-.61s-.25-.15-1.11-.15a2.43,2.43,0,0,0-1.23.15,2,2,0,0,0-.56.31c-.18.15-.18.15-.86.15h-.68c-.06-.05-.06-.1-.06-.2a.56.56,0,0,0-.55-.41.83.83,0,0,0-.74.41c-.13.15-.13.2-.37.15s-.25,0-.31-.2a.59.59,0,0,0-.49-.51.92.92,0,0,0-.74,0c-.13.1-.31.1-.87.15s-.67,0-.8.15a.4.4,0,0,0-.18.41,1,1,0,0,0,.06.45.72.72,0,0,1,.12.15,5.61,5.61,0,0,1-.8.06,2,2,0,0,1-.92-.11c-.12-.1-.25-.1-.86-.1s-.87,0-1.11.26a1,1,0,0,1-.37.1c-.12,0-.19,0-.19-.15s-.24-.61-.43-.76a3.09,3.09,0,0,0-1-.05c-.68,0-.87,0-1,.1a2.28,2.28,0,0,1-.68.1c-.49,0-.55-.05-.55-.35a.79.79,0,0,0-.43-.71,1.71,1.71,0,0,0-1.67.15.86.86,0,0,0-.49.71c0,.15-.12.15-.31.05a2.59,2.59,0,0,0-.74-.05,2.17,2.17,0,0,1-.74-.1,1.83,1.83,0,0,0-.61-.1c-.62-.06-1,.2-1,.55,0,.15-.12.25-.18.15s-.13-.1-.25-.1-.18-.1-.25-.2-.24-.2-.61-.35-.56-.21-.62-.31a.82.82,0,0,0-.43-.1.4.4,0,0,0-.43.1c-.19.15-.25.2-.25.36s0,.15-.18.2a1,1,0,0,1-.43.1c-.19,0-.25-.05-.43-.4s-.31-.46-.31-.46-.13-.1-.19-.15l-.18-.15c.12,0,.18-.1.24-.1.37-.15.5-.31.5-.56a.57.57,0,0,0-.13-.35,1.83,1.83,0,0,0-.67-.25c-.06,0-.19-.16-.37-.26a2.58,2.58,0,0,0-.5-.35c-.18-.1-.06-.25.37-.3s.5-.05.68-.36a2.19,2.19,0,0,0,.12-1,3.17,3.17,0,0,1-.06-.75c0-.06-.06-.11-.12-.16s-.25-.1-.62-.1h-.37c0-.1.07-.15.07-.2a1,1,0,0,0,.12-.4.37.37,0,0,1,.18-.36,1.2,1.2,0,0,0,.25-.4,2.79,2.79,0,0,1,.25-.4.87.87,0,0,0-.13-.71,1.33,1.33,0,0,1-.3-.25.77.77,0,0,1-.25-.16l.49-.15c.43-.2.74-.45.74-.65a1.24,1.24,0,0,0-.49-.71.65.65,0,0,1-.25-.2c0-.05.13-.1.31-.15.68-.16.86-.46.86-1.22,0-.3,0-.4-.12-.55a1.3,1.3,0,0,0-1-.36h-.3c.06-.05.06-.1.12-.15a.77.77,0,0,0,.12-.25.47.47,0,0,1,.06-.25c.19-.15.19-.61.13-.91A2.39,2.39,0,0,0,37,407a.23.23,0,0,1-.13-.05.66.66,0,0,1,.13-.25,2.1,2.1,0,0,0,.37-.71c0-.1,0-.25.06-.3a.48.48,0,0,0,.06-.26c.06-.2-.25-.6-.68-1a1.81,1.81,0,0,1-.31-.31c0-.1.13-.15.19-.2a.37.37,0,0,1,.18-.2,1,1,0,0,1,.25.1.62.62,0,0,0,.92,0c.19-.15.19-.1.06-.86-.12-.5-.36-.76-.86-.76a.92.92,0,0,0-.37,0v-.2s-.06-.1-.06-.15h.37c.8,0,1.42-.25,1.48-.61a.79.79,0,0,0-.31-.91c-.18-.1-.18-.15-.12-.3a1.19,1.19,0,0,0,0-.91,1.82,1.82,0,0,1-.13-.6.76.76,0,0,0-.3-.66.62.62,0,0,1-.19-.51.42.42,0,0,0-.18-.35c-.06,0-.13-.1-.13-.15a.38.38,0,0,1,.13-.2.61.61,0,0,0,.12-.46.66.66,0,0,0-.31-.7c-.24-.16-.24-.16.06-.21a.87.87,0,0,0,.44-.2c.18-.15.24-.2.24-.4a2.61,2.61,0,0,1,.12-.61,1,1,0,0,0,.13-1,1.47,1.47,0,0,0-.43-.35c-.25-.1-.25-.15-.25-.25a.75.75,0,0,1,.55-.46c.37-.05.5-.2.44-.76s-.07-.75-.44-.91a2.28,2.28,0,0,0-.55-.05c-.18,0-.25-.05-.18-.1a2,2,0,0,0,.18-.55c0-.1.12-.2.19-.31a.45.45,0,0,0,.06-.75,1.08,1.08,0,0,0-.37-.1,1,1,0,0,1-.56-.26.12.12,0,0,1,.13-.1.59.59,0,0,0,.37-.6c0-.15,0-.36.06-.41s.18-.1.31-.1c.43-.1.86-.4.86-.65s-.13-.41-.62-.86a1.79,1.79,0,0,1-.43-.46,2.34,2.34,0,0,0,.43-.05c.31,0,.43,0,.56-.1.49-.35.3-1-.31-1.26-.13-.05-.13-.05-.13-.2a1,1,0,0,0-.55-.56c-.18-.05-.25-.1-.25-.2a.63.63,0,0,0-.06-.3c0-.06-.06-.11-.06-.16a.54.54,0,0,1,.31-.1l.61-.35a1.81,1.81,0,0,0,.68-.81c.06-.2.06-.25-.12-.45a1.68,1.68,0,0,0-.25-.31c-.06-.05-.06-.15-.06-.3a.6.6,0,0,0-.18-.4.75.75,0,0,0-.62-.31c-.12,0-.25-.05-.18-.05a.75.75,0,0,1,.06-.25.42.42,0,0,0,.12-.35c0-.15.06-.15.25-.15a.63.63,0,0,0,.37-.16c.12-.15.12-.2.12-.7,0-.81,0-.91-.55-1.16-.13-.11-.25-.16-.37-.26a1.76,1.76,0,0,1-.07-.6,3.05,3.05,0,0,0-.06-.91c-.12-.26-.12-.26-.06-.31a.64.64,0,0,0,.49-.25c.13-.2.13-.3.19-.76,0-.65-.06-.75-.49-.85a.74.74,0,0,1-.25-.05l.12-.21a.43.43,0,0,0,.06-.4v-.3h.5c.49,0,.74,0,.92-.31a1.2,1.2,0,0,0-.06-1,2.33,2.33,0,0,0-1-.4c-.3,0-.37-.05-.37-.3a1.07,1.07,0,0,0-.06-.46c-.06-.1-.12-.25-.18-.35v-.2a2.87,2.87,0,0,0,.31.05.8.8,0,0,0,.55-.16c.37-.35.12-.8-.49-.85-.31-.05-.37-.05-.56-.31s-.24-.3-.12-.3a.67.67,0,0,0,.49-.35c0-.1.13-.26.31-.36a1,1,0,0,0,.49-1,1,1,0,0,0-.12-.65,2.12,2.12,0,0,1-.37-.36c-.18-.1-.18-.1-.18-.4a.24.24,0,0,1,0-.3.92.92,0,0,1,.37-.05c.73,0,1-.16,1-.61.06-.25,0-.3-.12-.51a1.75,1.75,0,0,0-.49-.4c-.19-.1-.31-.2-.31-.25h.31c.24-.05.37-.05.49-.15a.5.5,0,0,0,.12-.56c0-.1,0-.1.19-.15s.43-.3.43-.46A.86.86,0,0,0,39,360c-.06,0-.13-.05-.19-.05v-.46c.06-.25.06-.4.13-.4s.12-.1.24-.2.19-.15.13-.41,0-.35-.13-.45-.12-.2-.12-.66,0-.7-.31-.91a1.63,1.63,0,0,0-.8-.1c-.68,0-.74-.05-.37-.35.12-.05.25-.2.25-.25s.12-.15.18-.2a.52.52,0,0,0-.06-.71c-.12-.05-.18-.1-.25-.1s-.12-.1.25-.36l.37-.3v-.5c.06-.71-.06-.91-.37-1s-.25-.11-.55,0-.5.15-.44.05a1.86,1.86,0,0,0,.19-.56c0-.15.06-.2.25-.3a.78.78,0,0,0,.43-.61c.06-.2-.25-.45-.5-.45a.22.22,0,0,1-.12-.05,2.59,2.59,0,0,1,.19-.36,1.31,1.31,0,0,0,.12-.55,1.45,1.45,0,0,1,0-.51.53.53,0,0,0-.19-.45.59.59,0,0,0-.43-.1c-.24-.05-.37-.15-.37-.26s.13-.15.37-.2a1,1,0,0,0,.56-.25c.12-.1.12-.2.12-.66s0-.55-.12-.65-.25-.21-.37-.21-.25-.05-.19-.25,0-.2.19-.25a.78.78,0,0,0,.37-.15c.12-.1.12-.2.12-.51s-.06-.6-.31-.7-.18-.31.06-.76a2,2,0,0,0,.31-1.11v-.56l-.18-.15a2.59,2.59,0,0,0-.37-.15h-.13a.38.38,0,0,1,.07-.2,4.5,4.5,0,0,1,1.54-1.16.83.83,0,0,0,.37-.16c.12-.15.18-.2.12-.4a1.8,1.8,0,0,0-1.36-1.31c-.24-.05-.3-.05-.3-.16s0-.1.18-.15c.37-.1.49-.25.49-.7A.82.82,0,0,0,38,337a2.14,2.14,0,0,1-.12-.25,1.12,1.12,0,0,1-.43-.25,1.57,1.57,0,0,0-.37-.26l.18-.15a1.42,1.42,0,0,0,.56-1.06c0-.35-.06-.61-.31-.76s-.12-.1-.12-.5a1,1,0,0,0-.13-.56c0-.05,0-.1.19-.25a.4.4,0,0,0,.12-.45c0-.16,0-.26.12-.36a1.28,1.28,0,0,0,.07-1.16,1.07,1.07,0,0,0-.56-.4c-.06,0,.12-.41.43-.76a.72.72,0,0,0,.19-.56,1,1,0,0,0-.25-.8c-.18-.16-.18-.21-.25-.56a2.44,2.44,0,0,0-.43-1.36l-.18-.16c.06-.05.12-.05.18-.1.31-.1.43-.35.43-.8a2.25,2.25,0,0,0-.06-.66c-.12-.25-.12-.25,0-.46s.13-.2.37-.25a.67.67,0,0,0,.49-.15.52.52,0,0,0,.13-.56.13.13,0,0,1,0-.2c.18-.25.06-.65-.37-.81-.12-.05-.12-.1-.06-.2s.24-.2.61-.3a.9.9,0,0,0,.43-.51c0-.2-.37-.45-.61-.45-.06-.05-.19-.05-.19-.1s-.18-.05-.3-.05-.19-.05-.19-.25.12-.31.19-.41a.86.86,0,0,0,.12-.45c0-.2-.06-.25-.25-.41s-.18-.15-.49-.1h-.31a.72.72,0,0,1,.06-.35c0-.35,0-.35.19-.51.37-.25.55-.7.37-1a2.72,2.72,0,0,1-.13-.7c0-.56,0-.66.13-.81a.75.75,0,0,0,.12-.46c.06-.3.06-.3.31-.4s.43-.25.43-.86c.06-.45.06-.5-.12-.65s-.43-.21-.87-.21h-.24v-.6c.06-.56.06-.66-.06-.76s-.19-.25-.07-.3a.53.53,0,0,0,.44-.51c0-.2,0-.25.12-.35s.25-.15.8-.15.68,0,.86-.1a.45.45,0,0,0-.24-.81,4.47,4.47,0,0,0-1-.05c-.86-.05-.86,0-.86-.41,0-.2.06-.2.24-.25.5-.15.56-.5.25-1.11a1.76,1.76,0,0,1-.18-.76c-.07-.2-.07-.45-.13-.55s-.12-.16,0-.21a2.88,2.88,0,0,0,.43-.1l.37-.1c.06,0,.25-.1.43-.15.56-.2.68-.55.37-.86a.92.92,0,0,0-.61-.15c-.13,0-.25,0-.37,0v-.5a1.54,1.54,0,0,0-.19-.81c-.18-.26-.18-.36-.12-.46a1.5,1.5,0,0,0,.06-.3c-.06-.15,0-.25.13-.35.3-.26.12-.86-.31-1.17a.43.43,0,0,1-.19-.25c0-.05.19-.2.37-.3.49-.25.62-.35.62-.61s-.43-.5-1.05-.45c-.31,0-.31,0-.31-.15s0-.15.06-.15a1.22,1.22,0,0,0,.44-.61c0-.05-.07-.15-.07-.2s0-.15.25-.26a.89.89,0,0,0,.55-.85.69.69,0,0,0-.12-.41c-.18-.15-.18-.2,0-.25.43-.05.62-.35.43-.71,0-.15-.06-.35-.06-.5s-.06-.15-.06-.26c.06.06.12.06.18.11a2.11,2.11,0,0,0,1.11.4,1.07,1.07,0,0,0,.87-.25.53.53,0,0,1,.24-.05,2.74,2.74,0,0,0,.86.1c.68,0,.74,0,.81,0,.12.35.67.4,1,.2.12-.15.12-.2.12-.71s.07-.55.13-.55.24.1.24.35a1.09,1.09,0,0,0,.31.86c.25.15.31.2.49.2a.85.85,0,0,0,.74-.3c.06-.05.06-.25.06-.46s0-.2.07-.25H46a1.15,1.15,0,0,0,.74-.15.63.63,0,0,0,.12-.3c.06-.15.06-.15.31-.05a1,1,0,0,0,.37.05c.18,0,.25.05.25.15a1.76,1.76,0,0,0,1,.66.82.82,0,0,0,.43-.11,2.11,2.11,0,0,1,.93-.05h.74a.19.19,0,0,0,.06.16.58.58,0,0,0,.68.35.56.56,0,0,0,.49-.61c0-.25,0-.3.12-.3a5,5,0,0,1,1.54.05c.13,0,.13,0,0,.3a.44.44,0,0,0-.12.46c.06.5.43.6,1.54.55a1.68,1.68,0,0,0,1-.2,1,1,0,0,0,.55-.35c.31-.41.37-.46.8-.41a.74.74,0,0,0,.62-.2.28.28,0,0,0,.18-.2c0-.05.06-.1.13-.15s.06-.1.18.05a.63.63,0,0,1,.12.3c0,.15.31.41.56.41s.61-.26.61-.46v-.15c.07,0,.25.2.43.45.44.51.56.61.87.66s.55,0,1.17-.5c.18-.16.31-.31.49-.46h.31c.31.05.31.05.61-.15a.74.74,0,0,1,.68-.25c.49.05.49,0,.68-.15s.31-.21.74.15a.53.53,0,0,0,.49.2c.19,0,.25.05.43.2a.7.7,0,0,0,.43.2.71.71,0,0,1,.31.1.55.55,0,0,0,.37.16,1.53,1.53,0,0,0,.74-.31c.12-.1.19-.15.92-.15a3.18,3.18,0,0,0,1-.05.6.6,0,0,1,.43-.1,1.39,1.39,0,0,0,.92-.3l.25-.1c.06,0,.12.15.12.45a1.42,1.42,0,0,0,.07.61,1.55,1.55,0,0,0,.74.35c.36-.05.8-.3.8-.56.06,0,.06-.1.12-.15s.12-.05.25,0a2.1,2.1,0,0,0,.92.1c.68,0,.8-.05.92-.15s.19-.1.19-.2.06-.05.18-.05a1.11,1.11,0,0,0,.37-.05,1.71,1.71,0,0,1,.43-.05,8.84,8.84,0,0,0,2,.05h1.78l.37-.15a2.76,2.76,0,0,1,.68-.2c.25,0,.25,0,.37.1a2.82,2.82,0,0,0,1.35.91.92.92,0,0,1,.44.1,1,1,0,0,0,1.1-.21c.13-.1.13-.15.56-.15s.55,0,.68-.1c.37-.15.43-.15.43.56-.06.91.06,1,1.05,1a2.46,2.46,0,0,0,.92-.15c.43-.21.62-.36.55-.61v-.2H90a1.15,1.15,0,0,0,.37-.15,1.13,1.13,0,0,1,.49-.1.73.73,0,0,0,.8-.46l.19-.3h.43a1.65,1.65,0,0,1,1,.25c.43.2,1.17.15,1.35-.1a.86.86,0,0,1,.62-.3.9.9,0,0,1,.18.1,3.85,3.85,0,0,0,1.42.6c.18,0,.25,0,.37-.2s.24-.15.61-.2h.5a3.14,3.14,0,0,1,.43.4c.49.36.55.36.74.36a.78.78,0,0,0,.49-.1.63.63,0,0,0,.18-.51v-.3c.25,0,.56-.05.81-.05h.86a.83.83,0,0,0,.24.15c.31.25.37.3,1.3.3a4.56,4.56,0,0,0,1.17-.1,1.31,1.31,0,0,1,.61-.1h.25v.4c0,.46.06.66.31.71.43.2.8,0,1.23-.71.25-.5.43-.6.74-.6s.25,0,.37.15.49.35,1,.5a1.2,1.2,0,0,0,1.41-.25c.25-.25.31-.25.68-.25a1,1,0,0,1,.68.15,1.44,1.44,0,0,1,.68.61,1.09,1.09,0,0,0,.74.45,1.28,1.28,0,0,0,.86-.2.8.8,0,0,0,.55-.76v-.25l.25.1c.12.1.31.1.68.1h.55l.25-.2a.72.72,0,0,0,.18-.2,1,1,0,0,0,.25.1,1.33,1.33,0,0,0,1,.05,5.79,5.79,0,0,1,1.24-.2,1,1,0,0,1,.55.2.73.73,0,0,0,.92-.25l.25-.21c.12-.1.18-.1.31.05l.49.26.43.2a3.57,3.57,0,0,0,1.3.4.5.5,0,0,0,.49-.2c.18-.15.24-.25.24-.4v-.2a.45.45,0,0,1,.31.2.91.91,0,0,0,.74.2c.19-.05.25-.05.37.05a.77.77,0,0,0,.86.1c.25-.15.44-.15.5,0s.3.3.61.3a.74.74,0,0,1,.37.1,2.25,2.25,0,0,0,.8.11c.62,0,.62,0,.8-.11a.45.45,0,0,0,.25-.25c0-.15.12-.2.37-.3a.52.52,0,0,1,.31-.1.33.33,0,0,1,.18.1.63.63,0,0,0,.8-.15c.13-.1.19-.15.25-.05a1,1,0,0,1,.37.35,1.47,1.47,0,0,0,.55.45,1.5,1.5,0,0,0,1.05-.1l.68-.2a.56.56,0,0,1,.43.05.52.52,0,0,0,.37.1.62.62,0,0,0,.55-.25,2.42,2.42,0,0,1,.68-.4c.56-.15.68-.15.62.05a.41.41,0,0,0,.18.3,1.15,1.15,0,0,0,.74.15c.49,0,.56,0,.62.05a.64.64,0,0,0,.86.25c.12-.1.18-.05.43.11a.6.6,0,0,0,.74.1.53.53,0,0,0,.37-.56.26.26,0,0,1-.06-.2h.31a.41.41,0,0,0,.43-.1c.12-.1.24-.2.24-.25v0a1.38,1.38,0,0,1,.68.45c.12.2.49.3.86.35a.68.68,0,0,0,.56-.2c.31-.2.61-.25.74-.1a1.38,1.38,0,0,0,.3.15c.13,0,.37.2.74.51s.56.5.62.55a.66.66,0,0,0,.74,0c.18-.1.18-.15.25-.55a1.2,1.2,0,0,1,.24-.81c.12-.15.31-.41.37-.46s.06-.1.12-.15a2.48,2.48,0,0,1,.19.26c.18.3.37.35.8.4a.84.84,0,0,1,.43.1s.25.15.43.2a1.53,1.53,0,0,0,1,.1,6.64,6.64,0,0,1,1.41,0c.81.05,1.05,0,1.11-.4,0-.1.07-.15.43-.25a3.42,3.42,0,0,1,.62-.1h.25v.2c0,.6.92.7,1.23.1a1.78,1.78,0,0,0,.12-.35c.06-.11.13-.11.31.1a2.31,2.31,0,0,0,1,.35h.37c.12.1.18.2.3.3a1,1,0,0,0,.8.46,2.54,2.54,0,0,0,1.3-.41,1,1,0,0,1,.55-.15,10,10,0,0,1,2.22.05,3.68,3.68,0,0,0-.43.15c-.43.1-.62.26-.62.51s.31.45.68.45a2.64,2.64,0,0,0,.62,0c.3-.1.37-.1.55,0a3.19,3.19,0,0,0,.43.1c.19,0,.19,0,.31.26a.71.71,0,0,0,.37.35,1.34,1.34,0,0,1,.25.15c.12,0,.06.05-.13.15a1.06,1.06,0,0,1-.61.15.63.63,0,0,0-.56.11l-.18.15a2.58,2.58,0,0,1,.06.65,2.5,2.5,0,0,0,.18,1.06,1.31,1.31,0,0,0,.25.46c.12.1.12.1-.18.25-.5.2-.56.3-.5.81.06.35.06.4.25.55a.67.67,0,0,0,.37.16,1.45,1.45,0,0,1,.49.05c.06.05.12.05.19.1a.49.49,0,0,0-.25.1c-.12.05-.25.1-.25.15a.47.47,0,0,0,.06.61c.13.15.19.2.5.2s.37,0,.37.05-.13.2-.31.3a1.22,1.22,0,0,0-.37.41c-.12.2-.12.2-.06.5s.06.25-.13.41a.55.55,0,0,0-.18.45.64.64,0,0,0,.55.66c.19.05.25.05.25.3s-.06.25-.25.2a.54.54,0,0,0-.49.51c0,.2-.06.2-.24.25a.5.5,0,0,0-.37.86.51.51,0,0,0,.37.1c.18.05.24.05.24.25s.12.51.49.56c.13.05.31.1.31.15a.87.87,0,0,1-.31.15c-.55.2-.61.3-.61.61a.38.38,0,0,0,.18.4.64.64,0,0,0,.43.15h.25c-.25.46-.31.56-.25.71s.13.2.19.2.06.2.12.35a.4.4,0,0,0,.19.41c.18.15.18.2,0,.2a1,1,0,0,0-.68.25,1,1,0,0,0,0,.81,1.28,1.28,0,0,0,.68.25.69.69,0,0,1,.18.05,4.36,4.36,0,0,1-.74.41c-.61.35-.67.4-.8.35a.78.78,0,0,0-.74.05c-.18.2-.18.2-.18.76.06.3.06.45.18.55a.41.41,0,0,1,.13.26c.06.2.18.3.49.45a1.09,1.09,0,0,1,.25.15l-.19.15a1.53,1.53,0,0,1-.31.16,1.5,1.5,0,0,0-.49.75c0,.36.43.81,1.11,1,.12.05.12.05,0,.1a.7.7,0,0,0-.31,1c.19.41.19.36,0,.36a.77.77,0,0,0-.55.45,1,1,0,0,0,.06.36,1,1,0,0,1,.18.65,1.17,1.17,0,0,0,.68,1.11c.18.15.31.26.31.31a2.42,2.42,0,0,0,.37.85c.12.06.12.11-.06.31-.5.5-.56.65-.56,1s0,.35.19.45a.53.53,0,0,0,.61.1c.13-.05.13,0,.13.16a.42.42,0,0,0,.18.35c.06.1.12.2.12.76a2.87,2.87,0,0,0,.25,1.36c.12.2.06.3-.25.25a.56.56,0,0,0-.43.81,1,1,0,0,0,.68.25h.31v.2a.5.5,0,0,1-.19.41c-.12.1-.12.2-.12.76s0,.6-.55.65a1.29,1.29,0,0,0-.81.51.63.63,0,0,0-.06.71c.06.15.56.35.87.4h.24a.12.12,0,0,0-.12.1.81.81,0,0,1-.31.05c-.25.05-.62.2-.68.35s-.12.36.13.61.24.35.12.4c-.31.11-.43.71-.25,1.07a1.77,1.77,0,0,0,.68.7c.06.1.12.15.06.15a1.27,1.27,0,0,0-.55.51,1.14,1.14,0,0,0,.06.76,3.16,3.16,0,0,0,.74.35h.12a2.75,2.75,0,0,1-.74.5c-.37.16-.49.31-.43.81,0,.31,0,.41.12.56s.07.15.07.25a.7.7,0,0,0,.8.46c.24,0,.24,0,.37.1s.12.2.06.25a1,1,0,0,0-.19.61c0,.15-.06.2-.18.2a.67.67,0,0,0-.31.5c-.06.15.31.46.49.51s.19.1.07.3-.07.15-.07.25-.06.2-.12.2-.43.26-.37.46a.43.43,0,0,0,.31.45c.12.1.18.16.18.51s.07.55.37.66c.13.05.19.05.19.3a.39.39,0,0,1-.25.4,1,1,0,0,0-.31.66.27.27,0,0,1-.18.25,1.42,1.42,0,0,0-.56.81c-.06.25.25.61.62.76.12.05.12.05,0,.2s-.25.15-.37.25a.76.76,0,0,0-.37.36c-.12.15-.18.2-.12.4a.82.82,0,0,0,.12.4.63.63,0,0,0,.56.31c.24,0,.18.05-.19.2s-.55.25-.49,1v.66c.06.05.18.1.24.15s.25.2.25.45a1.08,1.08,0,0,0,.43.86.46.46,0,0,1,.25.2s-.06.1-.13.2a3.58,3.58,0,0,0-.06,1.06c0,.81,0,.86.13,1s.06.21.06.31,0,.15-.19.25l-.24.2c0,.05-.06.15-.13.15a.77.77,0,0,0-.3.05c-.13.05-.31.16-.44.21a.45.45,0,0,0-.3.5.58.58,0,0,0,.61.41h.31v.25a.85.85,0,0,0,.12.5c.13.36.13.46,0,.51s-.37.35-.3.55.12.15.18.26a.32.32,0,0,0,.19.1c-.07.1-.07.15-.13.25a1.18,1.18,0,0,1-.37.4c-.31.26-.31.41,0,.76a1.32,1.32,0,0,1,.25.46.51.51,0,0,0,.37.45c.06.05.12.05.18.1v.56c0,.55-.06.6-.18.65a.43.43,0,0,0-.25.21c-.12.1-.18.2-.24.25a.44.44,0,0,0-.13.3c0,.15.06.25.31.4s.25.36,0,.31a.69.69,0,0,0-.68.25c-.06.05-.06.25-.06.4s0,.31.25.51a.62.62,0,0,1,.24.35.8.8,0,0,0,.25.61c.19.1.19.15.06.35-.12.36-.37.51-.86.56-.31.05-.49.1-.55.2a.52.52,0,0,0-.07.66.64.64,0,0,0,.74.3h.37v.4c.06.41,0,.41-.12.51a.47.47,0,0,0-.19.81.75.75,0,0,0,.62.1c.19,0,.43,0,.43,0s.06.1.06.2,0,.25.13.4.06.11.12.21-.12.05-.19.1-.18.25-.24.35a.67.67,0,0,1-.19.25.5.5,0,0,0-.24.1l-.43.21c-.19.1-.31.15-.31.2a1.5,1.5,0,0,0-.12.66,1.49,1.49,0,0,1-.07.55.43.43,0,0,1,.25.2c.25.15.31.2.31.51s0,.4.12.5a1,1,0,0,1,.06.46.39.39,0,0,0,.06.25,3.68,3.68,0,0,0-.49.25c-.61.26-.86.46-.92.71a.63.63,0,0,0,.12.3.89.89,0,0,0,.56.26c.18,0,.24,0,.24.1a1.15,1.15,0,0,0,.25.7c.18.15.18.26.18.56s.13.66.43.76c.13,0,.13.05.13.1v.4c0,.36-.06.36-.25.41a.88.88,0,0,0-.31.15c-.12.1-.18.15-.12.45s.06.41.55.61.37.15.19.15a1,1,0,0,0-.37.1c-.19.05-.49.4-.43.56s.18.4.49.5a3,3,0,0,0,.31.1l-.19.15c-.12.1-.12.15-.12.71s0,.81.31.91a.25.25,0,0,1,.18.05.33.33,0,0,0-.18.1c-.25.15-.37.35-.31.86s.06.86.49,1.06a1.24,1.24,0,0,0,.25.15c.06.05-.25.41-.31.41s-.18.1-.31.15a.42.42,0,0,0-.12.35.77.77,0,0,0,.31.61c.06.1.06.1-.12.2a.83.83,0,0,1-.37.15,1.24,1.24,0,0,0-.74.56,1.14,1.14,0,0,0-.06.8,5.13,5.13,0,0,0,1.1.91c.13,0,.19.15.31.21-.06.1-.18.25-.24.35a2.93,2.93,0,0,1-.25.35c-.06,0-.12-.05-.25-.1a.89.89,0,0,0-.8,0,.54.54,0,0,0,0,.76,1.56,1.56,0,0,1,.19.3.67.67,0,0,0,.24.36c.56.45.74.65.68.75V396c-.12,0-.18.05-.25.05s-.3.05-.3.1a.57.57,0,0,1-.31.1c-.56,0-.86.46-.43.81a.53.53,0,0,0,.31.15.72.72,0,0,1,.24.05l-.12.21c-.12.2-.12.3-.12.75s0,.51.12.61.31.15.55.2a.81.81,0,0,1,.31.05v.41c0,.1-.06.25-.06.4h-.19a2.28,2.28,0,0,0-.55.05,2.87,2.87,0,0,1-.49.15.47.47,0,0,0-.43.61.45.45,0,0,0,.18.4c.12.15.19.15.8.2h.68v.61c0,.61,0,.86-.19.86a1.35,1.35,0,0,0-.61.3c-.06,0-.06.15-.12.25a.52.52,0,0,0,.36.66,2,2,0,0,1,.37.15c.13.1.13.1.07.2a.53.53,0,0,0,.06.61c.12,0,.12.1,0,.2s-.13.41.12.61.19.2.25.5a3.83,3.83,0,0,0,.06.41c.06.05,0,.1-.12.1s-.56.1-.62.25a.7.7,0,0,0,.06.76.81.81,0,0,1,.12.35,1,1,0,0,0,.25.71.48.48,0,0,1,.19.25c.06.05.06.15.18.25a1,1,0,0,1,.12.31,1.3,1.3,0,0,0,.06.45,1.35,1.35,0,0,1,.13.46v.2a1.42,1.42,0,0,0-.43.05c-.43,0-.56.05-.68.3a.54.54,0,0,0,.25.81c.18,0,.18.05.12.66v.6a.29.29,0,0,0-.19.05.5.5,0,0,0-.37.86c.19.25.62.66.74.66a.13.13,0,0,1,.13.15v.25c.06.05,0,.1-.19.1a.6.6,0,0,0-.43.1c-.61.41-.74.56-.8.66a.75.75,0,0,0,.31.71c.12.1.24.25.37.35a.84.84,0,0,0,.37.25,1,1,0,0,1,.24.1c-.06.06-.12.16-.18.21a.87.87,0,0,0-.19.5c-.06.3-.06.3-.3.41a.65.65,0,0,0-.31.25.58.58,0,0,0,0,.76,1.6,1.6,0,0,1,.12.45c0,.15,0,.2.25.4s.31.21.31.26.06.15-.19.4a.48.48,0,0,0-.12.3c0,.1-.06.16-.25.16a.57.57,0,0,0-.55.35c-.06.35-.13.4-.37.45a.51.51,0,0,0-.37.1,2.16,2.16,0,0,1-.68.05,1.56,1.56,0,0,0-.74.16c-.06.05-.18.1-.25.15a.33.33,0,0,1-.18-.1c-.12-.05-.25-.21-.37-.26a1.17,1.17,0,0,0-.68-.3,1.84,1.84,0,0,0-.8.25c-.12.16-.24.16-.49-.05l-.25-.2h-.55a1.74,1.74,0,0,0-.8.1c-.06.05-.19.05-.31.1s-.06,0-.06-.1a2,2,0,0,0-.49-.3,1.06,1.06,0,0,0-.74-.2c-.43,0-.62.1-.68.4a.75.75,0,0,0-.06.25,1,1,0,0,0-.31-.15.66.66,0,0,0-.56-.1c-.18,0-.43.05-.49.05s-.12,0-.18-.1c-.19-.3-.37-.35-1.23-.35a4.74,4.74,0,0,1-.87-.05,1,1,0,0,1-.43.2l-.37.15a2.7,2.7,0,0,1-.43-.35c-.37-.36-.49-.36-.68-.36a.69.69,0,0,0-.61.31.43.43,0,0,1-.19.25,1.58,1.58,0,0,0-.18.3c-.06.15-.13.2-.25.2a4.71,4.71,0,0,0-1-.05,2.48,2.48,0,0,0-1.1.05c-.13.05-.13.05-.44-.1s-.3-.15-1.23-.15c-.37,0-.68-.05-1-.05a.91.91,0,0,0-.25-.15.68.68,0,0,0-.37-.2c-.06,0-.18-.1-.25-.15a.77.77,0,0,0-.3,0c-.31,0-.74.2-.8.45,0,.05-.13.2-.25.25l-.19.15c0-.05-.06-.1-.12-.2s-.31-.25-.74-.25a.78.78,0,0,0-.49.1.42.42,0,0,0-.12.35c0,.16-.07.21-.19.21a1,1,0,0,1-.37-.21,2.2,2.2,0,0,0-1-.3,1.68,1.68,0,0,1-.56,0,2.84,2.84,0,0,0-1-.1c-.25,0-.5-.05-.74-.05l-.19.15a.28.28,0,0,0-.18.3c0,.21-.13.26-.19.1a.64.64,0,0,0-.55-.3,3.92,3.92,0,0,1-1.17-.5.71.71,0,0,0-.49-.1,1.85,1.85,0,0,0-1.05.3l-.37.15a.67.67,0,0,0-.25.15c-.06.1-.06.1-.18.05a4.37,4.37,0,0,0-1.17-.05.88.88,0,0,0-.31.15c-.12.15-.19.15-.31.1a.8.8,0,0,0-.68,0l-.37.16c-.12,0-.12,0-.18-.16-.19-.4-.31-.45-1-.45a4.71,4.71,0,0,0-.86,0,.44.44,0,0,1-.43-.05,2.77,2.77,0,0,0-1.6-.35c-.62,0-.62,0-.87.1a3.17,3.17,0,0,0-.37.25.17.17,0,0,1-.18.1,2.29,2.29,0,0,0-.8-.1c-.62,0-.68,0-.86.15a.85.85,0,0,0-.13.25c0,.15-.06.15-.55,0a2.4,2.4,0,0,0-1-.15c-.61-.05-.61-.05-.8.1s-.24.2-.24.46c0,.1-.06.2-.06.3h-.25c-.25,0-.31-.05-.31-.15a.47.47,0,0,0-.06-.25,4.71,4.71,0,0,0-1.17-.66,1.09,1.09,0,0,0-.68-.1c-.31.05-.37.05-.49.15a4.71,4.71,0,0,0-.68.71,5,5,0,0,1-.92,0c-.06,0-.19-.1-.25-.26s-.31-.3-.37-.4-.25-.1-.86-.1a3.4,3.4,0,0,0-.86.05c-.25.1-.44.3-.44.45s-.06.16-.24.11-.31-.06-.37-.21-.31-.4-.68-.65a1.32,1.32,0,0,0-.74-.15.86.86,0,0,0-.55.1.66.66,0,0,0-.13.3c0,.05-.06.15-.12.15a2.13,2.13,0,0,1-.74.05,1.57,1.57,0,0,0-.8.05c-.18.1-.18.1-.37-.05a1,1,0,0,0-.37-.2,1.12,1.12,0,0,1-.49-.15,1.62,1.62,0,0,0-1.11,0c-.18.1-.25.1-1,.1-.31,0-.56-.05-.81-.05a.83.83,0,0,0-.24.15c-.13.15-.19.2-.31.15a2.1,2.1,0,0,0-.62-.05c-.49,0-.49,0-.67.15l-.19.15a1.36,1.36,0,0,1-.49-.2,1.59,1.59,0,0,1-.62-.3,1.17,1.17,0,0,0-.8-.4.68.68,0,0,0-.43.1c-.18.15-.18.2-.18.5s-.13.41-.31.25c0-.05-.19-.2-.37-.3a.67.67,0,0,0-.93,0c-.12.1-.18.15-.12.35s0,.26-.06.26l-.18-.15c-.19-.16-.19-.21-.13-.26a.49.49,0,0,0,.13-.3.53.53,0,0,0-.62-.45,2,2,0,0,0-.86.3c0,.05-.31.1-.74.1-.68,0-.74,0-.93.1s-.24.1-.61.1a5.46,5.46,0,0,1-.68-.1,2.9,2.9,0,0,0-.62-.15,2.94,2.94,0,0,1-.61-.15,1.77,1.77,0,0,0-.8-.2.61.61,0,0,0-.62.5c0,.2,0,.2.49.56.07.1.19.15.19.2s-.06.1-.19.05a2.5,2.5,0,0,1-1-.66.7.7,0,0,0-1-.1c-.24.25-.31.4-.18.66.06.1.12.15.12.25-.06-.05-.06-.05-.12-.05a.52.52,0,0,1-.31-.1" transform="translate(-36 -293.79)"/>
      <path id="path7" class="cls-1" d="M86,422.43a1.2,1.2,0,0,1-.31-.25,2,2,0,0,0-1.3-.26,2.37,2.37,0,0,0-1,.1,3.36,3.36,0,0,1-1.23.1c-1.11-.05-1.73-.15-2-.4a1.27,1.27,0,0,0-.74-.2c-.31,0-.56.1-.62.4-.06.15-.06.15-.31.15s-.31,0-.37-.1c-.12-.25-.37-.25-1.35-.25h-.93c-.06-.1-.18-.15-.24-.2a1,1,0,0,0-.37-.2,1.07,1.07,0,0,1-.37-.15,1.44,1.44,0,0,0-.56-.06c-.3,0-.37,0-.55.16s-.19.15-.12.4,0,.25-.19.25-.12-.05-.12-.1-.19-.3-.49-.45a2.63,2.63,0,0,0-.74-.05h-.74a1.17,1.17,0,0,0-.62.55c-.06.2-.12.2-.25.1s-.55-.25-1.1-.25-.5,0-.68.1a2,2,0,0,1-.31.15.84.84,0,0,0-.31,0c-.12.05-.31.1-.43.16a1,1,0,0,1-.55,0,3.72,3.72,0,0,1-1.24-.51,1.25,1.25,0,0,0-.43-.61c-.24-.15-.24-.15-1.11-.15a2.43,2.43,0,0,0-1.23.15,1.83,1.83,0,0,0-.55.31c-.19.15-.19.15-.86.15H61c-.06,0-.06-.1-.06-.2a.56.56,0,0,0-.56-.41.85.85,0,0,0-.74.41c-.12.15-.12.2-.37.15s-.24,0-.3-.2a.6.6,0,0,0-.5-.51.92.92,0,0,0-.74,0c-.12.1-.3.1-.86.15s-.68,0-.8.15a.4.4,0,0,0-.18.41,1,1,0,0,0,.06.45.72.72,0,0,1,.12.15,6.7,6.7,0,0,1-.8.05,2.1,2.1,0,0,1-.92-.1c-.13-.1-.25-.1-.87-.1s-.86,0-1.11.26a1,1,0,0,1-.36.1c-.13,0-.19,0-.19-.16s-.25-.6-.43-.75a3.18,3.18,0,0,0-1-.05c-.67,0-.86,0-1,.1a2.33,2.33,0,0,1-.68.1c-.49,0-.56,0-.56-.35s-.18-.61-.43-.71a1.69,1.69,0,0,0-1.66.15.84.84,0,0,0-.49.71c0,.15-.13.15-.31.05a2.59,2.59,0,0,0-.74-.05,2.12,2.12,0,0,1-.74-.1,1.8,1.8,0,0,0-.61-.11c-.62-.05-1,.21-1,.56,0,.15-.13.25-.19.15s-.12-.1-.24-.1a.44.44,0,0,1-.25-.2c-.06-.1-.25-.2-.62-.35s-.55-.21-.61-.31a.84.84,0,0,0-.43-.1.4.4,0,0,0-.43.1c-.19.15-.25.2-.25.36s0,.15-.18.2a1.1,1.1,0,0,1-.44.1c-.18,0-.24,0-.43-.41s-.31-.45-.31-.45-.12-.1-.18-.15l-.18-.15c.12-.05.18-.1.24-.1.37-.16.49-.31.49-.56a.64.64,0,0,0-.12-.35,1.84,1.84,0,0,0-.68-.26c-.06,0-.18-.15-.37-.25a2.56,2.56,0,0,0-.49-.35c-.18-.1-.06-.25.37-.3a.63.63,0,0,0,.68-.36,2.19,2.19,0,0,0,.12-1,3.21,3.21,0,0,1-.06-.76c0-.05-.06-.1-.12-.15a1,1,0,0,0-.62-.1h-.37c0-.1.06-.15.06-.2a1,1,0,0,0,.13-.4.37.37,0,0,1,.18-.36,1.38,1.38,0,0,0,.25-.4,3.72,3.72,0,0,1,.24-.41.86.86,0,0,0-.12-.7c-.06-.05-.25-.15-.31-.26a.83.83,0,0,1-.24-.15l.49-.15c.43-.2.74-.45.74-.65a1.24,1.24,0,0,0-.49-.71.65.65,0,0,1-.25-.2s.12-.1.31-.16c.67-.15.86-.45.86-1.21,0-.3,0-.4-.12-.55a1.26,1.26,0,0,0-1-.36h-.31c.06-.05.06-.1.13-.15a.77.77,0,0,0,.12-.25.47.47,0,0,1,.06-.25c.19-.15.19-.61.12-.91a2.22,2.22,0,0,0-.8-.81.22.22,0,0,1-.12-.05.77.77,0,0,1,.12-.25,1.78,1.78,0,0,0,.37-.71c0-.1,0-.25.06-.3a.44.44,0,0,0,.07-.26c.06-.2-.25-.6-.68-1a1.27,1.27,0,0,1-.31-.3c0-.1.12-.15.18-.2a.41.41,0,0,1,.19-.2c.06,0,.12.05.25.1a.62.62,0,0,0,.92.05c.18-.15.18-.1.06-.86-.12-.5-.37-.76-.86-.76a1,1,0,0,0-.37-.05v-.2c0-.05-.06-.1-.06-.15h.37c.8,0,1.41-.25,1.48-.61a.79.79,0,0,0-.31-.91c-.19-.1-.19-.15-.13-.3a1.11,1.11,0,0,0,0-.91,1.83,1.83,0,0,1-.12-.6.75.75,0,0,0-.31-.66.64.64,0,0,1-.18-.51.41.41,0,0,0-.19-.35c-.06-.05-.12-.1-.12-.15a.36.36,0,0,1,.12-.2.57.57,0,0,0,.13-.46.66.66,0,0,0-.31-.7c-.25-.16-.25-.16.06-.21a.84.84,0,0,0,.43-.2c.19-.15.25-.2.25-.4a2.61,2.61,0,0,1,.12-.61.92.92,0,0,0,.12-1,1.25,1.25,0,0,0-.43-.35c-.24-.1-.24-.15-.24-.25a.74.74,0,0,1,.55-.46c.37-.05.49-.2.43-.76s-.06-.75-.43-.91a2.28,2.28,0,0,0-.55-.05c-.19,0-.25-.05-.19-.1a1.8,1.8,0,0,0,.19-.55c0-.1.12-.21.18-.31a.44.44,0,0,0,.06-.75,1,1,0,0,0-.37-.1,1,1,0,0,1-.55-.26.12.12,0,0,1,.12-.1.58.58,0,0,0,.37-.6c0-.16,0-.36.06-.41s.19-.1.31-.1c.43-.1.86-.4.86-.66s-.12-.4-.61-.85a1.61,1.61,0,0,1-.43-.46,2.43,2.43,0,0,0,.43-.05c.31,0,.43,0,.55-.1.5-.35.31-1-.31-1.26-.12,0-.12,0-.12-.21a1,1,0,0,0-.55-.55c-.19-.05-.25-.1-.25-.2a.69.69,0,0,0-.06-.31c0-.05-.06-.1-.06-.15a.52.52,0,0,1,.31-.1l.61-.35a1.88,1.88,0,0,0,.68-.81c.06-.2.06-.25-.12-.45a1.76,1.76,0,0,0-.25-.31c-.06,0-.06-.15-.06-.3a.57.57,0,0,0-.19-.4.72.72,0,0,0-.61-.31c-.13,0-.25-.05-.19-.05a.75.75,0,0,1,.06-.25.4.4,0,0,0,.13-.35c0-.16.06-.16.24-.16a.57.57,0,0,0,.37-.15c.13-.15.13-.2.13-.7,0-.81,0-.91-.56-1.17-.12-.1-.24-.15-.37-.25a2,2,0,0,1-.06-.6,3.05,3.05,0,0,0-.06-.91c-.12-.26-.12-.26-.06-.31a.66.66,0,0,0,.49-.25,1.76,1.76,0,0,0,.19-.76c0-.65-.07-.75-.5-.86a.72.72,0,0,1-.24-.05l.12-.2a.45.45,0,0,0,.06-.4v-.3h.49c.5,0,.74-.06.93-.31a1.2,1.2,0,0,0-.06-1,2.38,2.38,0,0,0-1-.4c-.31,0-.37-.05-.37-.31a1,1,0,0,0-.06-.45c-.06-.1-.12-.25-.19-.35v-.21c.07,0,.19.06.31.06a.89.89,0,0,0,.56-.16c.37-.35.12-.8-.5-.85-.3-.06-.37-.06-.55-.31s-.25-.3-.12-.3a.67.67,0,0,0,.49-.35c0-.11.12-.26.31-.36a1,1,0,0,0,.49-1,1,1,0,0,0-.12-.65,2.13,2.13,0,0,1-.37-.36c-.19-.1-.19-.1-.19-.4a.29.29,0,0,1,0-.31,1,1,0,0,1,.37-.05c.74,0,1-.15,1.05-.6.06-.25,0-.3-.12-.51a1.82,1.82,0,0,0-.5-.4c-.18-.1-.3-.2-.3-.25h.3a1.1,1.1,0,0,0,.5-.15.5.5,0,0,0,.12-.56c0-.1,0-.1.18-.15s.44-.3.44-.46a.88.88,0,0,0-.44-.45c-.06,0-.12-.05-.18-.05V359c.06-.25.06-.4.12-.4s.13-.1.25-.2.18-.15.12-.41,0-.35-.12-.45-.12-.2-.12-.66,0-.7-.31-.91a1.63,1.63,0,0,0-.8-.1c-.68,0-.74-.05-.37-.35a.46.46,0,0,0,.24-.25c0-.05.13-.15.19-.21a.52.52,0,0,0-.06-.7c-.13,0-.19-.1-.25-.1s-.12-.1.25-.36l.37-.3v-.51c.06-.7-.07-.9-.37-1s-.25-.1-.56,0-.49.16-.43.06a2.65,2.65,0,0,0,.19-.56c0-.15.06-.2.24-.3a.76.76,0,0,0,.43-.61c.07-.2-.24-.45-.49-.45a.22.22,0,0,1-.12-.05,2.46,2.46,0,0,1,.18-.36,1.22,1.22,0,0,0,.13-.55,1.25,1.25,0,0,1,0-.51.56.56,0,0,0-.19-.45.6.6,0,0,0-.43-.1c-.25-.05-.37-.16-.37-.26s.12-.15.37-.2a1,1,0,0,0,.55-.25c.13-.1.13-.2.13-.66s0-.55-.13-.65a.61.61,0,0,0-.37-.21c-.24-.05-.24-.05-.18-.25s0-.2.18-.25a.74.74,0,0,0,.37-.15c.13-.1.13-.2.13-.51s-.06-.6-.31-.7-.19-.31.06-.76a2,2,0,0,0,.31-1.11v-.56l-.19-.15a1.9,1.9,0,0,0-.37-.15h-.12a.43.43,0,0,1,.06-.2A4.75,4.75,0,0,1,38,340.05a.74.74,0,0,0,.37-.15c.13-.15.19-.2.13-.4a1.83,1.83,0,0,0-1.36-1.31c-.25-.06-.31-.06-.31-.16s0-.1.19-.15c.37-.1.49-.25.49-.7a.82.82,0,0,0-.06-.56,2.14,2.14,0,0,1-.12-.25,1.07,1.07,0,0,1-.44-.26,1.42,1.42,0,0,0-.37-.25l.19-.15a1.38,1.38,0,0,0,.55-1.06.8.8,0,0,0-.3-.76c-.13-.1-.13-.1-.13-.5a1,1,0,0,0-.12-.56c0-.05,0-.1.18-.25a.4.4,0,0,0,.13-.46.38.38,0,0,1,.12-.35,1.25,1.25,0,0,0,.06-1.16,1,1,0,0,0-.55-.4c-.06,0,.12-.41.43-.76a.76.76,0,0,0,.18-.56,1.08,1.08,0,0,0-.24-.81c-.19-.15-.19-.2-.25-.55a2.42,2.42,0,0,0-.43-1.36l-.19-.16c.07-.05.13-.05.19-.1.31-.1.43-.35.43-.81a2.21,2.21,0,0,0-.06-.65c-.12-.25-.12-.25,0-.46s.12-.2.37-.25a.67.67,0,0,0,.49-.15.5.5,0,0,0,.12-.56.13.13,0,0,1,0-.2c.19-.25.07-.65-.36-.81-.13,0-.13-.1-.07-.2a1.13,1.13,0,0,1,.62-.3.94.94,0,0,0,.43-.51c0-.2-.37-.45-.62-.45-.06-.05-.18-.05-.18-.1a2.87,2.87,0,0,0-.31,0c-.18-.05-.18-.05-.18-.25s.12-.31.18-.41a.86.86,0,0,0,.13-.45c0-.21-.07-.26-.25-.41s-.19-.15-.49-.1h-.31a.72.72,0,0,1,.06-.35c0-.36,0-.36.18-.51.37-.25.56-.7.37-1a2.48,2.48,0,0,1-.12-.7c0-.56,0-.66.12-.81a.68.68,0,0,0,.13-.46c.06-.3.06-.3.31-.4s.43-.25.43-.86c.06-.45.06-.5-.13-.66s-.43-.2-.86-.2h-.25v-.6c.07-.56.07-.66-.06-.76s-.18-.25-.06-.3a.52.52,0,0,0,.43-.51c0-.2,0-.25.13-.35s.24-.15.8-.15.67,0,.86-.11a.45.45,0,0,0-.25-.8,4.31,4.31,0,0,0-1-.05c-.87-.05-.87,0-.87-.41,0-.2.07-.2.25-.25.49-.15.56-.51.25-1.11a1.64,1.64,0,0,1-.19-.76,4.88,4.88,0,0,0-.12-.55c-.12-.16-.12-.16,0-.21a2.88,2.88,0,0,0,.43-.1l.37-.1c.06,0,.25-.1.43-.15.56-.2.68-.56.37-.86a1,1,0,0,0-.62-.15c-.12,0-.24-.05-.36-.05V304a1.63,1.63,0,0,0-.19-.8c-.18-.26-.18-.36-.12-.46a1.5,1.5,0,0,0,.06-.3c-.06-.15,0-.25.12-.36.31-.25.13-.85-.31-1.16a.45.45,0,0,1-.18-.25s.18-.2.37-.3c.49-.25.61-.36.61-.61s-.43-.5-1-.45c-.31,0-.31,0-.31-.15s0-.16.06-.16a1.19,1.19,0,0,0,.43-.6c0-.05-.06-.15-.06-.2s0-.16.25-.26a.89.89,0,0,0,.55-.85.69.69,0,0,0-.12-.41c-.19-.15-.19-.2,0-.25.43-.05.61-.36.43-.71,0-.15-.06-.35-.06-.5s-.06-.16-.06-.26c.06.05.12.05.18.1a2.05,2.05,0,0,0,1.11.41,1,1,0,0,0,.86-.25.59.59,0,0,1,.25-.05,2.74,2.74,0,0,0,.86.1c.68,0,.74,0,.8.05.12.35.68.4,1,.2.12-.15.12-.2.12-.71s.06-.55.12-.55.25.1.25.35a1.09,1.09,0,0,0,.31.86c.24.15.31.2.49.2a.85.85,0,0,0,.74-.3c.06-.05.06-.25.06-.46s0-.2.06-.25h.5a1.15,1.15,0,0,0,.74-.15.63.63,0,0,0,.12-.3c.06-.16.06-.16.31-.05a.92.92,0,0,0,.37.05c.18,0,.24.05.24.15a1.78,1.78,0,0,0,1,.65.89.89,0,0,0,.43-.1,2.07,2.07,0,0,1,.92-.05h.74a.15.15,0,0,0,.07.15.56.56,0,0,0,.67.36.56.56,0,0,0,.5-.61c0-.25,0-.3.12-.3a5,5,0,0,1,1.54.05c.12.05.12.05,0,.3a.42.42,0,0,0-.12.46c.06.5.43.6,1.54.55a1.65,1.65,0,0,0,1-.2,1.06,1.06,0,0,0,.56-.35c.31-.41.37-.46.8-.41a.7.7,0,0,0,.61-.2.27.27,0,0,0,.19-.2c0-.05.06-.1.12-.15s.06-.1.19,0a.63.63,0,0,1,.12.3c0,.15.31.4.55.4s.62-.25.62-.45v-.15c.06,0,.25.2.43.45.43.51.56.61.86.66s.56,0,1.17-.51c.19-.15.31-.3.5-.45h.3c.31.05.31.05.62-.15a.74.74,0,0,1,.68-.25c.49.05.49,0,.68-.16s.3-.2.74.16a.53.53,0,0,0,.49.2c.18,0,.24.05.43.2a.68.68,0,0,0,.43.2.75.75,0,0,1,.31.1.57.57,0,0,0,.37.15,1.59,1.59,0,0,0,.74-.3c.12-.1.18-.15.92-.15a3.23,3.23,0,0,0,1,0,.59.59,0,0,1,.43-.1,1.39,1.39,0,0,0,.92-.3l.25-.11c.06,0,.12.16.12.46a1.67,1.67,0,0,0,.06.61,1.6,1.6,0,0,0,.74.35c.37-.05.8-.3.8-.56.06,0,.06-.1.13-.15a.21.21,0,0,1,.24,0,2.17,2.17,0,0,0,.93.1c.67,0,.8,0,.92-.15s.19-.1.19-.2.06-.05.18-.05a1.11,1.11,0,0,0,.37-.05,1.71,1.71,0,0,1,.43-.05,8.77,8.77,0,0,0,2,.05h1.79l.37-.15a2.75,2.75,0,0,1,.68-.21c.24,0,.24,0,.37.11a2.71,2.71,0,0,0,1.35.9.82.82,0,0,1,.43.11A1,1,0,0,0,85,295c.12-.1.12-.15.56-.15s.55,0,.67-.1c.37-.15.43-.15.43.56-.06.91.07,1,1,1a2.32,2.32,0,0,0,.93-.16c.43-.2.61-.35.55-.6v-.2h.25a1.25,1.25,0,0,0,.37-.15,1,1,0,0,1,.49-.11.72.72,0,0,0,.8-.45l.18-.3h.44a1.61,1.61,0,0,1,1,.25,1.4,1.4,0,0,0,1.36-.1.85.85,0,0,1,.61-.3.88.88,0,0,1,.19.1,3.85,3.85,0,0,0,1.42.6.55.55,0,0,0,.37-.2c.18-.15.24-.15.61-.2h.49a2.65,2.65,0,0,1,.43.4c.5.36.56.36.74.36a.75.75,0,0,0,.5-.11.6.6,0,0,0,.18-.5v-.3c.25,0,.56-.05.8-.05h.86a1.09,1.09,0,0,0,.25.15c.31.25.37.3,1.29.3a4.66,4.66,0,0,0,1.18-.1,1.31,1.31,0,0,1,.61-.1h.25v.4c0,.46.06.66.31.71.43.2.8-.05,1.23-.71.24-.5.43-.6.74-.6a.37.37,0,0,1,.37.15c.12.2.49.35,1,.5a1.23,1.23,0,0,0,1.42-.25c.25-.25.31-.25.68-.25a1,1,0,0,1,.68.15,1.43,1.43,0,0,1,.67.61,1.12,1.12,0,0,0,.74.45,1.27,1.27,0,0,0,.86-.2.82.82,0,0,0,.56-.76v-.25l.25.1c.12.1.3.1.67.1h.56l.24-.2a.74.74,0,0,0,.19-.2c.12.05.18.1.24.1a1.36,1.36,0,0,0,1,0,5.68,5.68,0,0,1,1.23-.2,1.05,1.05,0,0,1,.56.2.74.74,0,0,0,.92-.25l.25-.21c.12-.1.18-.1.3.05s.31.16.5.26l.43.2a3.53,3.53,0,0,0,1.29.4.5.5,0,0,0,.5-.2c.18-.15.24-.25.24-.4V294a.46.46,0,0,1,.31.21.9.9,0,0,0,.74.2c.18-.05.25-.05.37.05a.77.77,0,0,0,.86.1c.25-.15.43-.15.49-.05s.31.3.62.3a.77.77,0,0,1,.37.1,2.29,2.29,0,0,0,.8.1c.62.05.62.05.8-.1s.25-.2.25-.25.12-.2.37-.3a.51.51,0,0,1,.3-.1.32.32,0,0,1,.19.1.63.63,0,0,0,.8-.15c.12-.1.18-.16.25-.05a1,1,0,0,1,.37.35,1.39,1.39,0,0,0,.55.45,1.63,1.63,0,0,0,1.05-.1l.68-.2a.56.56,0,0,1,.43.05.51.51,0,0,0,.37.1.63.63,0,0,0,.55-.25,2.42,2.42,0,0,1,.68-.4c.55-.16.68-.16.61.05a.43.43,0,0,0,.19.3,1.11,1.11,0,0,0,.74.15c.49,0,.55,0,.61.05a.66.66,0,0,0,.87.25c.12-.1.18-.05.43.1a.59.59,0,0,0,.74.11.55.55,0,0,0,.37-.56.24.24,0,0,1-.07-.2h.31a.4.4,0,0,0,.43-.1c.13-.1.25-.2.25-.26v0a1.45,1.45,0,0,1,.68.46c.12.2.49.3.86.35a.65.65,0,0,0,.55-.2c.31-.2.62-.25.74-.1a1.5,1.5,0,0,0,.31.15c.12,0,.37.2.74.51a7.15,7.15,0,0,0,.62.55.66.66,0,0,0,.74,0c.18-.1.18-.15.24-.55a1.16,1.16,0,0,1,.25-.81c.12-.15.31-.41.37-.46s.06-.1.12-.15.12.15.19.25c.18.31.37.36.8.41a.84.84,0,0,1,.43.1c0,.05.24.15.43.2a1.51,1.51,0,0,0,1,.1,6.73,6.73,0,0,1,1.42,0c.8,0,1-.05,1.11-.4,0-.1.06-.15.43-.25a3.4,3.4,0,0,1,.62-.11h.24v.21c0,.6.93.7,1.24.1a1.81,1.81,0,0,0,.12-.36c.06-.1.12-.1.31.11a2.22,2.22,0,0,0,1,.35h.37c.13.1.19.2.31.3a1,1,0,0,0,.8.46,2.57,2.57,0,0,0,1.29-.41,1,1,0,0,1,.56-.15,10,10,0,0,1,2.22.05,3.68,3.68,0,0,0-.43.15c-.44.1-.62.26-.62.51s.31.45.68.45a2.51,2.51,0,0,0,.61-.05c.31-.1.37-.1.56,0a2.88,2.88,0,0,0,.43.1c.18,0,.18,0,.31.26a.71.71,0,0,0,.37.35,1.12,1.12,0,0,1,.24.15c.13,0,.06.05-.12.15a1.09,1.09,0,0,1-.62.15.63.63,0,0,0-.55.1l-.19.16a2.22,2.22,0,0,1,.07.65,2.5,2.5,0,0,0,.18,1.06,1,1,0,0,0,.25.46c.12.1.12.1-.19.25-.49.2-.55.3-.49.81.06.35.06.4.25.55a.86.86,0,0,0,.36.16,1.51,1.51,0,0,1,.5.05c.06,0,.12,0,.18.1a.5.5,0,0,0-.24.1c-.13.05-.25.1-.25.15a.47.47,0,0,0,.06.61c.12.15.19.2.49.2s.37,0,.37.05-.12.2-.3.3a1.12,1.12,0,0,0-.37.41c-.13.2-.13.2-.07.5s.07.25-.12.4a.59.59,0,0,0-.18.46.64.64,0,0,0,.55.66c.19,0,.25,0,.25.3s-.06.25-.25.2a.53.53,0,0,0-.49.51c0,.2-.06.2-.25.25a.51.51,0,0,0-.37.86.54.54,0,0,0,.37.1c.19.05.25.05.25.25-.06.35.12.51.49.56.12.05.31.1.31.15a.87.87,0,0,1-.31.15c-.55.2-.62.3-.62.6a.38.38,0,0,0,.19.41.63.63,0,0,0,.43.15h.25c-.25.45-.31.56-.25.71s.12.2.19.2.06.2.12.35a.41.41,0,0,0,.18.41c.19.15.19.2,0,.2a1,1,0,0,0-.67.25.89.89,0,0,0,0,.81,1.27,1.27,0,0,0,.67.25.68.68,0,0,1,.19.05,5.3,5.3,0,0,1-.74.41c-.62.35-.68.4-.8.35a.78.78,0,0,0-.74.05c-.19.2-.19.2-.19.76.07.3.07.45.19.55a.38.38,0,0,1,.12.26c.06.2.19.3.5.45a.83.83,0,0,1,.24.15l-.18.15c-.13.05-.25.16-.31.16a1.5,1.5,0,0,0-.49.75c0,.36.43.81,1.1,1,.13.05.13.05,0,.1a.7.7,0,0,0-.3,1c.18.41.18.36,0,.36a.77.77,0,0,0-.56.45,1,1,0,0,0,.06.35,1,1,0,0,1,.19.66,1.15,1.15,0,0,0,.68,1.11c.18.15.3.25.3.31a2.62,2.62,0,0,0,.37.85c.13.05.13.11-.06.31-.49.5-.55.65-.55,1s0,.35.18.45a.54.54,0,0,0,.62.1c.12,0,.12,0,.12.15a.41.41,0,0,0,.19.36c.06.1.12.2.12.76a2.78,2.78,0,0,0,.25,1.36c.12.2.06.3-.25.25a.53.53,0,0,0-.49.51.54.54,0,0,0,.06.3,1,1,0,0,0,.68.25h.3v.2a.52.52,0,0,1-.18.41c-.12.1-.12.2-.12.76s0,.6-.56.65a1.23,1.23,0,0,0-.8.51.61.61,0,0,0-.06.7c.06.16.55.36.86.41h.25a.12.12,0,0,0-.12.1.84.84,0,0,1-.31.05c-.25.05-.62.2-.68.35s-.12.36.12.61.25.35.13.4c-.31.1-.44.71-.25,1.06a1.73,1.73,0,0,0,.68.71c.06.1.12.15.06.15a1.29,1.29,0,0,0-.56.51,1.09,1.09,0,0,0,.07.76,3,3,0,0,0,.74.35h.12a2.75,2.75,0,0,1-.74.5c-.37.16-.49.31-.43.81,0,.31,0,.41.12.56s.06.15.06.25a.69.69,0,0,0,.8.45c.25-.05.25,0,.37.11s.13.2.06.25a.93.93,0,0,0-.18.6c0,.16-.06.21-.18.21a.64.64,0,0,0-.31.5c-.06.15.31.46.49.51s.18.1.06.3-.06.15-.06.25-.06.2-.12.2-.43.26-.37.46a.43.43,0,0,0,.31.45c.12.1.18.15.18.51s.06.55.37.65c.12.06.18.06.18.31a.39.39,0,0,1-.24.4,1,1,0,0,0-.31.66.27.27,0,0,1-.18.25,1.42,1.42,0,0,0-.56.81c-.06.25.25.6.62.76.12,0,.12,0,0,.2s-.25.15-.37.25a.74.74,0,0,0-.37.35c-.13.16-.19.21-.13.41a.82.82,0,0,0,.13.4.64.64,0,0,0,.55.31c.25,0,.19.05-.18.2s-.56.25-.5,1v.65c.07.05.19.11.25.16s.25.2.25.45a1.08,1.08,0,0,0,.43.86.44.44,0,0,1,.24.2c0,.05-.06.1-.12.2a3.54,3.54,0,0,0-.06,1.06c0,.81,0,.86.12,1s.06.21.06.31,0,.15-.18.25l-.25.2c0,.05-.06.15-.12.15a.84.84,0,0,0-.31.05l-.43.21a.46.46,0,0,0-.31.5.59.59,0,0,0,.62.4h.31v.26a.85.85,0,0,0,.12.5c.12.36.12.46,0,.51s-.37.35-.31.55.13.15.19.26a.33.33,0,0,0,.18.1c-.06.1-.06.15-.12.25a1.28,1.28,0,0,1-.37.4c-.31.26-.31.41,0,.76a1.51,1.51,0,0,1,.25.45.51.51,0,0,0,.37.46c.06.05.12.05.18.1v.56c0,.55-.06.6-.18.65a.41.41,0,0,0-.25.2c-.12.11-.19.21-.25.26a.48.48,0,0,0-.12.3c0,.15.06.25.31.4s.24.36,0,.31a.68.68,0,0,0-.68.25c-.06.05-.06.25-.06.4a.48.48,0,0,0,.24.51.59.59,0,0,1,.25.35.78.78,0,0,0,.25.61c.18.1.18.15.06.35-.12.36-.37.51-.86.56-.31.05-.5.1-.56.2a.53.53,0,0,0-.06.66.64.64,0,0,0,.74.3H164v.4c.06.41,0,.41-.12.51a.46.46,0,0,0-.19.81.75.75,0,0,0,.62.1c.18,0,.43,0,.43.05s.06.1.06.2,0,.25.12.4.06.1.13.21-.13,0-.19.1-.18.25-.24.35a.81.81,0,0,1-.19.25.57.57,0,0,0-.25.1c-.12.05-.3.16-.43.21s-.31.15-.31.2a1.48,1.48,0,0,0-.12.65,1.75,1.75,0,0,1-.06.56.5.5,0,0,1,.25.2c.24.15.3.2.3.51s0,.4.13.5a1,1,0,0,1,.06.46.39.39,0,0,0,.06.25,3.68,3.68,0,0,0-.49.25c-.62.25-.86.46-.93.71a.66.66,0,0,0,.13.3.89.89,0,0,0,.55.25c.19,0,.25,0,.25.11a1.2,1.2,0,0,0,.24.7c.19.15.19.25.19.56s.12.65.43.76c.12,0,.12.05.12.1v.4c0,.35-.06.35-.24.4a.92.92,0,0,0-.31.16c-.12.1-.19.15-.12.45s.06.4.55.61.37.15.19.15a1,1,0,0,0-.37.1c-.19.05-.5.4-.44.55s.19.41.5.51a3,3,0,0,0,.31.1l-.19.15c-.12.1-.12.15-.12.71s0,.81.31.91a.25.25,0,0,1,.18.05.33.33,0,0,0-.18.1c-.25.15-.37.35-.31.86s.06.86.49,1.06a1,1,0,0,0,.25.15c.06,0-.25.4-.31.4s-.19.11-.31.16a.42.42,0,0,0-.12.35.78.78,0,0,0,.31.61c.06.1.06.1-.13.2a.74.74,0,0,1-.37.15,1.24,1.24,0,0,0-.74.56,1.27,1.27,0,0,0-.06.8,5.59,5.59,0,0,0,1.11.91c.12.05.19.15.31.2-.06.11-.19.26-.25.36a2.12,2.12,0,0,1-.24.35c-.07,0-.13,0-.25-.1a.89.89,0,0,0-.8.05.52.52,0,0,0,0,.76,1.58,1.58,0,0,1,.18.3c0,.1.13.25.25.35.55.46.74.66.68.76v.71a1.52,1.52,0,0,0-.25.05c-.12,0-.31,0-.31.1a.52.52,0,0,1-.31.1c-.55,0-.86.46-.43.81a.6.6,0,0,0,.31.15.82.82,0,0,1,.25.05l-.13.2c-.12.21-.12.31-.12.76s0,.51.12.61.31.15.56.2a.84.84,0,0,1,.31.05v.4c0,.11-.06.26-.06.41h-.19a2.28,2.28,0,0,0-.55.05,2.94,2.94,0,0,1-.5.15.48.48,0,0,0-.43.61.44.44,0,0,0,.19.4c.12.15.18.15.8.2h.68v.61c0,.6,0,.86-.19.86a1.44,1.44,0,0,0-.62.3c-.06,0-.06.15-.12.25a.53.53,0,0,0,.37.66,2.34,2.34,0,0,1,.37.15c.12.1.12.1.06.2a.57.57,0,0,0,.06.61c.13.05.13.1,0,.2s-.12.41.13.61.18.2.24.5a3.32,3.32,0,0,0,.07.41c.06.05,0,.1-.13.1s-.55.1-.61.25a.67.67,0,0,0,.06.76.81.81,0,0,1,.12.35.93.93,0,0,0,.25.71.45.45,0,0,1,.18.25c.06.05.06.15.19.25a1,1,0,0,1,.12.31,1.3,1.3,0,0,0,.06.45,1.6,1.6,0,0,1,.12.45v.21a1.48,1.48,0,0,0-.43.05c-.43,0-.55,0-.67.3a.53.53,0,0,0,.24.81c.19,0,.19.05.13.66v.6a.26.26,0,0,0-.19.05.5.5,0,0,0-.37.86c.19.25.62.66.74.66s.12,0,.12.15v.25c.07.05,0,.1-.18.1a.59.59,0,0,0-.43.1c-.62.41-.74.56-.8.66a.77.77,0,0,0,.3.71c.13.1.25.25.37.35a1,1,0,0,0,.37.25c.13.05.19.05.25.1s-.12.16-.18.21a.8.8,0,0,0-.19.5c-.06.3-.06.3-.31.4a.88.88,0,0,0-.31.26.59.59,0,0,0,0,.75,1.48,1.48,0,0,1,.13.46c0,.15,0,.2.24.4s.31.21.31.26.06.15-.18.4a.49.49,0,0,0-.13.3c0,.1-.06.15-.24.15a.59.59,0,0,0-.56.36c-.06.35-.12.4-.37.45a.54.54,0,0,0-.37.1,2,2,0,0,1-.67.05,1.43,1.43,0,0,0-.74.16c-.06,0-.19.1-.25.15a.33.33,0,0,1-.18-.1c-.13,0-.25-.21-.37-.26a1.19,1.19,0,0,0-.68-.3,1.76,1.76,0,0,0-.8.25c-.12.15-.25.15-.49-.05l-.25-.2h-.55a1.79,1.79,0,0,0-.81.1c-.06.05-.18.05-.3.1s-.07-.05-.07-.1a1.84,1.84,0,0,0-.49-.3,1,1,0,0,0-.74-.2c-.43,0-.61.1-.67.4a.66.66,0,0,0-.07.25.88.88,0,0,0-.3-.15.66.66,0,0,0-.56-.1c-.18,0-.43,0-.49,0s-.12,0-.19-.1c-.18-.3-.37-.35-1.23-.35a4.63,4.63,0,0,1-.86-.05,1.07,1.07,0,0,1-.43.2l-.37.15a2.31,2.31,0,0,1-.43-.35c-.37-.36-.5-.36-.68-.36a.71.71,0,0,0-.62.31.45.45,0,0,1-.18.25,2.28,2.28,0,0,0-.19.3c-.06.15-.12.2-.24.2a4.76,4.76,0,0,0-1.05-.05,2.56,2.56,0,0,0-1.11.05c-.12,0-.12,0-.43-.1s-.31-.15-1.23-.15c-.37,0-.68-.05-1-.05a.83.83,0,0,0-.24-.15.72.72,0,0,0-.37-.2.67.67,0,0,1-.25-.15.69.69,0,0,0-.31-.06c-.3,0-.74.21-.8.46a.46.46,0,0,1-.24.25l-.19.15c0-.05-.06-.1-.12-.2s-.31-.25-.74-.25a.76.76,0,0,0-.49.1.4.4,0,0,0-.13.35c0,.15-.06.21-.18.21a1,1,0,0,1-.37-.21,2.25,2.25,0,0,0-1-.3,1.65,1.65,0,0,1-.55-.05,2.87,2.87,0,0,0-1-.1c-.24,0-.49,0-.74,0l-.18.15a.28.28,0,0,0-.19.3c0,.2-.12.26-.18.1a.64.64,0,0,0-.56-.3,4,4,0,0,1-1.17-.5c-.12-.11-.24-.11-.49-.11a1.82,1.82,0,0,0-1.05.31l-.36.15c-.07,0-.19.1-.25.15s-.06.1-.19,0a4.33,4.33,0,0,0-1.17,0,.84.84,0,0,0-.3.15c-.13.15-.19.15-.31.1a.81.81,0,0,0-.68,0l-.37.15c-.12,0-.12,0-.18-.15-.19-.4-.31-.45-1-.45a4.71,4.71,0,0,0-.86,0,.47.47,0,0,1-.44,0,2.71,2.71,0,0,0-1.6-.36c-.61,0-.61,0-.86.11a2.47,2.47,0,0,0-.37.25.17.17,0,0,1-.18.1,2.29,2.29,0,0,0-.8-.1c-.62,0-.68,0-.87.15a.77.77,0,0,0-.12.25c0,.15-.06.15-.55,0a2.44,2.44,0,0,0-1-.15c-.62-.05-.62-.05-.8.1s-.25.2-.25.46c0,.1-.06.2-.06.3h-.24c-.25,0-.31-.05-.31-.15a.47.47,0,0,0-.06-.25,4.71,4.71,0,0,0-1.17-.66,1.09,1.09,0,0,0-.68-.1c-.31.05-.37.05-.49.15a4.19,4.19,0,0,0-.68.71,5.08,5.08,0,0,1-.93,0c-.06,0-.18-.1-.24-.26s-.31-.3-.37-.4-.25-.1-.86-.1a3.49,3.49,0,0,0-.87.05c-.24.1-.43.3-.43.45s-.06.16-.24.1-.31-.05-.37-.2-.31-.4-.68-.65a1.25,1.25,0,0,0-.74-.16.84.84,0,0,0-.56.11.63.63,0,0,0-.12.3c0,.05-.06.15-.12.15a2.13,2.13,0,0,1-.74.05,1.57,1.57,0,0,0-.8,0c-.19.1-.19.1-.37,0a1,1,0,0,0-.37-.2,1.12,1.12,0,0,1-.49-.15,1.62,1.62,0,0,0-1.11.05c-.19.1-.25.1-1,.1-.31,0-.55,0-.8,0a1.09,1.09,0,0,0-.25.15c-.12.15-.18.2-.3.15a2.14,2.14,0,0,0-.62,0c-.49,0-.49,0-.68.15l-.18.15a1.29,1.29,0,0,1-.49-.2,1.59,1.59,0,0,1-.62-.3,1.18,1.18,0,0,0-.8-.41.63.63,0,0,0-.43.11c-.19.15-.19.2-.19.5s-.12.4-.31.25c0-.05-.18-.2-.36-.3a.67.67,0,0,0-.93,0c-.12.1-.18.15-.12.35s0,.26-.06.26l-.19-.16c-.18-.15-.18-.2-.12-.25a.48.48,0,0,0,.12-.3.54.54,0,0,0-.61-.46,2.13,2.13,0,0,0-.87.31c0,.05-.3.1-.74.1-.67,0-.73,0-.92.1s-.25.1-.62.1a5.54,5.54,0,0,1-.67-.1,2.9,2.9,0,0,0-.62-.15,3.08,3.08,0,0,1-.62-.15,1.62,1.62,0,0,0-.8-.21.62.62,0,0,0-.61.51c0,.2,0,.2.49.56.06.1.19.15.19.2s-.07.1-.19.05a2.62,2.62,0,0,1-1-.66.69.69,0,0,0-1-.1c-.25.25-.31.4-.19.66.07.1.13.15.13.25s-.06-.05-.13-.05a.51.51,0,0,1-.3-.1" transform="translate(-36 -293.79)"/>
    </g>
    <g id="g2674">
      <path id="path2776" class="cls-2" d="M123,362.1l-10.82-3.41L110.34,354l-.33,2.41-4.33-2.77,1.69-1.94-2.52-6.28,9.78,7.62.49,3.9ZM69.49,357l-.15.15-.35-.19Zm56.75,13.53a38.8,38.8,0,0,1-16.09-5.16A59.66,59.66,0,0,0,94,359.14L99,355.67l-5.07-7.84,3.43-4.14-2.14-5.13-9.7,4.56,9.81-9.38,32.82,27.39-.47,2.37,1.53-.4-1.74,1.46-.52,2.55-.24,1.21,1.81-.62-2.11,2.13Zm5.27-.34-1.74-1,1.9.15Zm-73-6.22c39.61-9.9,40,24.79,70.32,17.22C99.59,394.7,96.31,359.61,58.5,363.94M142,359.77l-25.53-23.21L109.3,343,95.46,331,75.8,350.66l-.07-.36-1.94-.74,1.79.09L75.07,347l-1.28-.46H75l-1.19-5.91-.92,4.6.92-.25-1,.63-.54,2.66,1.53-.4-1.74,1.46-.51,2.55-.24,1.21,1.81-.62L71,354.62l-.19,1-.15-.76-.32-1.59-1.94-.74,1.79.09L69.67,350l-1.28-.46h1.18l-1.18-5.91-.92,4.6.92-.25-1,.63-.53,2.66,1.53-.4-1.74,1.46-.51,2.55-.24,1.21,1.81-.62-2.12,2.14-.45,2.25-.75.21-2.23-1.24,2.11.18-.45-2.26-.32-1.6-1.94-.74,1.79.1-.51-2.64-1.28-.47h1.19l-1.19-5.9-.92,4.59.92-.24-1,.63L60,353.09l1.53-.4-1.74,1.46-.51,2.56-.24,1.2,1.81-.62-2.12,2.14-.55,2.76a58.89,58.89,0,0,0-6.5,3.15c10-3.14,18.51-5,26.76-4.63l.2-1,1-1.07-.9.31.12-.61.26-1.27.87-.73-.77.2.27-1.33.5-.32-.46.13.46-2.3.59,2.95h-.59l.64.24.25,1.32-.89-.05,1,.37.16.79.23,1.14-1-.09,1.16.65.19.91c.78.09,1.57.2,2.36.34l2.11-2.14-1.81.62.25-1.2.51-2.56,1.74-1.45-1.53.39.53-2.65,1-.63-.92.24.92-4.59,1.18,5.9H86.88l1.28.47.51,2.64-1.79-.1,1.93.75.32,1.59.46,2.26-2.11-.18,2.33,1.3.16.78a60.66,60.66,0,0,1,15.77,8c14.38,9.8,37.15,6.09,47.89-7.71A64.76,64.76,0,0,1,140,369l-.08-.39-1.17-.65,1.06.09-.23-1.13-.16-.8-1-.37.89,0-.26-1.32-.63-.24H139l-.59-2.95-.46,2.3.46-.12-.5.31-.27,1.33.77-.2-.88.73-.25,1.28-.12.6.9-.31L137,368.25l-.31,1.53h0l-.28.06-.11-.53-1.85-1,1.68.14-.36-1.8-.26-1.26-1.53-.59,1.42.07-.41-2.09-1-.37H135l-.94-4.69-.73,3.65.73-.2-.8.5-.42,2.11,1.22-.31-1.39,1.15-.4,2-.19,1,1.43-.49-1.68,1.69v.07l-.35-1.74-.32-1.59-1.93-.75,1.79.1-.52-2.64-1.27-.46h1.18l-1.18-5.91-.92,4.59.92-.24-1,.63,0,.26-8.5-8.05,11.14,1.34-10.34-5.85.61,2.53-5.6-4.88-2.86.19L111,344.9l9.13,1.22-.71-4Z" transform="translate(-36 -293.79)"/>
    </g>
  </g>
  <g id="Layer_2" data-name="Layer 2">
    <g>
      <path class="cls-3" d="M214.7,378c-.36-1.23-.75-2.5-1.17-3.79s-.84-2.59-1.25-3.88H199.51c-.41,1.29-.82,2.59-1.24,3.89s-.8,2.56-1.16,3.78h-7.64q1.84-5.73,3.5-10.58t3.24-9.16q1.59-4.29,3.12-8.15c1-2.58,2.1-5.09,3.2-7.55h7c1.08,2.46,2.14,5,3.18,7.55s2.09,5.29,3.15,8.15,2.14,5.92,3.25,9.16,2.27,6.76,3.5,10.58Zm-8.84-27.41q-.24.78-.72,2.1c-.32.89-.67,1.91-1.08,3.07s-.85,2.44-1.35,3.84-1,2.86-1.52,4.39h9.34c-.5-1.54-1-3-1.45-4.41s-.92-2.68-1.34-3.84l-1.11-3.07C206.31,351.79,206.06,351.09,205.86,350.59Z" transform="translate(-36 -293.79)"/>
      <path class="cls-3" d="M250.13,371.15V378H228.29V342.56h7.36v28.59Z" transform="translate(-36 -293.79)"/>
      <path class="cls-3" d="M256.35,378V342.56h21.89v6.7H263.71v7.42h12.92v6.7H263.71V378Z" transform="translate(-36 -293.79)"/>
      <path class="cls-3" d="M304.6,378c-.37-1.23-.76-2.5-1.18-3.79s-.83-2.59-1.25-3.88H289.41c-.41,1.29-.83,2.59-1.24,3.89s-.8,2.56-1.16,3.78h-7.64q1.85-5.73,3.5-10.58t3.24-9.16q1.59-4.29,3.12-8.15c1-2.58,2.09-5.09,3.2-7.55h7c1.07,2.46,2.13,5,3.18,7.55s2.09,5.29,3.15,8.15,2.14,5.92,3.24,9.16,2.28,6.76,3.51,10.58Zm-8.84-27.41q-.25.78-.72,2.1c-.32.89-.68,1.91-1.08,3.07s-.86,2.44-1.36,3.84-1,2.86-1.52,4.39h9.35c-.5-1.54-1-3-1.45-4.41s-.92-2.68-1.34-3.84l-1.11-3.07C296.21,351.79,296,351.09,295.76,350.59Z" transform="translate(-36 -293.79)"/>
      <path class="cls-3" d="M328.89,368.6a11.39,11.39,0,0,1,1.91-6.46,11.15,11.15,0,0,1,2-2.3,17.84,17.84,0,0,1,2.42-1.77,24.81,24.81,0,0,1-2-3.21,7.94,7.94,0,0,1-.9-3.76,9.25,9.25,0,0,1,2.5-6.93,9.48,9.48,0,0,1,6.89-2.43,10.82,10.82,0,0,1,3.87.64,8,8,0,0,1,2.76,1.74,7.51,7.51,0,0,1,1.67,2.56,8.56,8.56,0,0,1,.57,3.15,9.78,9.78,0,0,1-1.63,5.55,14.4,14.4,0,0,1-4.13,4.06l5.31,5.7a18.87,18.87,0,0,0,.81-2.57,17.77,17.77,0,0,0,.49-2.72l5.85.82c-.07.64-.18,1.35-.34,2.12a23.4,23.4,0,0,1-.59,2.33c-.23.78-.5,1.57-.8,2.35a18,18,0,0,1-1,2.15,48.42,48.42,0,0,1,3,4A35.13,35.13,0,0,1,360,378h-7.19c-.26-.45-.62-1-1.05-1.67a13.53,13.53,0,0,0-1.32-1.72,17.2,17.2,0,0,1-4.39,2.75,13.88,13.88,0,0,1-5.62,1.1,15,15,0,0,1-5.52-.89,10.11,10.11,0,0,1-3.56-2.3,8.08,8.08,0,0,1-1.91-3.17A11.34,11.34,0,0,1,328.89,368.6Zm6.56-.77a4.85,4.85,0,0,0,.28,1.59,4.38,4.38,0,0,0,.92,1.5,4.87,4.87,0,0,0,1.63,1.12,6,6,0,0,0,2.42.44,9.67,9.67,0,0,0,3.47-.57,7.36,7.36,0,0,0,2.48-1.51l-7.59-8.18a8.59,8.59,0,0,0-1.29.87,6.57,6.57,0,0,0-1.15,1.2,5.94,5.94,0,0,0-.84,1.55A5.61,5.61,0,0,0,335.45,367.83Zm9.15-17.64a3.35,3.35,0,0,0-.71-2.1,2.78,2.78,0,0,0-2.36-.92,2.86,2.86,0,0,0-2.33,1,3.94,3.94,0,0,0-.83,2.58,5.24,5.24,0,0,0,.71,2.59,11.73,11.73,0,0,0,1.82,2.39,10.74,10.74,0,0,0,2.61-2.2A5,5,0,0,0,344.6,350.19Z" transform="translate(-36 -293.79)"/>
      <path class="cls-3" d="M409.73,360.26a23.29,23.29,0,0,1-1.25,8,16.57,16.57,0,0,1-3.42,5.78,13.88,13.88,0,0,1-5.16,3.5,17.55,17.55,0,0,1-6.44,1.18,17.11,17.11,0,0,1-6.32-1.18A14.4,14.4,0,0,1,382,374a16.55,16.55,0,0,1-3.49-5.78,23,23,0,0,1-1.27-8,22.34,22.34,0,0,1,1.32-8,17.27,17.27,0,0,1,3.56-5.8,14.52,14.52,0,0,1,5.19-3.53,16.63,16.63,0,0,1,6.2-1.18,17.11,17.11,0,0,1,6.32,1.18,14.35,14.35,0,0,1,5.19,3.53,16.82,16.82,0,0,1,3.49,5.8A23.06,23.06,0,0,1,409.73,360.26Zm-25,0a17.52,17.52,0,0,0,.59,4.7,11.07,11.07,0,0,0,1.7,3.61,7.63,7.63,0,0,0,2.71,2.32,8.62,8.62,0,0,0,7.34,0,7.6,7.6,0,0,0,2.73-2.32,11.07,11.07,0,0,0,1.7-3.61,17.52,17.52,0,0,0,.59-4.7,17.75,17.75,0,0,0-.59-4.73,10.89,10.89,0,0,0-1.7-3.63,7.53,7.53,0,0,0-2.73-2.33,8,8,0,0,0-3.66-.82,7.83,7.83,0,0,0-3.68.84,8,8,0,0,0-2.71,2.36,10.89,10.89,0,0,0-1.7,3.63A17.53,17.53,0,0,0,384.78,360.26Z" transform="translate(-36 -293.79)"/>
      <path class="cls-3" d="M426.05,342.56q.85,1.69,2,4.17c.74,1.65,1.52,3.44,2.32,5.37s1.6,3.89,2.39,5.91l2.22,5.67,2.23-5.67c.78-2,1.58-4,2.38-5.91s1.58-3.72,2.32-5.37,1.4-3,2-4.17h6.7c.31,2.36.61,5,.87,7.9s.51,6,.71,9.11.39,6.31.57,9.48.32,6.16.44,8.95H446q-.15-5.16-.38-11.25t-.71-12.27L443,359.23c-.7,1.74-1.38,3.48-2.06,5.22s-1.33,3.4-2,5l-1.61,4.07h-5.14c-.45-1.12-1-2.48-1.61-4.07s-1.29-3.24-2-5-1.36-3.48-2.05-5.22l-1.9-4.75q-.46,6.18-.7,12.27T423.6,378h-7.17c.12-2.79.27-5.78.45-8.95s.36-6.33.56-9.48.44-6.19.71-9.11.56-5.54.87-7.9Z" transform="translate(-36 -293.79)"/>
      <path class="cls-3" d="M461.19,378V342.56h22.07v6.7H468.55v7h13.06v6.54H468.55v8.54h15.8V378Z" transform="translate(-36 -293.79)"/>
      <path class="cls-3" d="M507.22,348.7c-3.43,0-5.9,1-7.43,3.09s-2.28,4.89-2.28,8.47a18.32,18.32,0,0,0,.56,4.73,10.89,10.89,0,0,0,1.7,3.65A7.66,7.66,0,0,0,502.6,371a8.82,8.82,0,0,0,4,.84c.82,0,1.52,0,2.1-.05a9,9,0,0,0,1.53-.2V359.28h7.36v17.54a25.61,25.61,0,0,1-4.24,1.21,35,35,0,0,1-7.22.63,17.38,17.38,0,0,1-6.67-1.22,13.83,13.83,0,0,1-5.12-3.58,16.23,16.23,0,0,1-3.28-5.78,24.42,24.42,0,0,1-1.15-7.82,22.54,22.54,0,0,1,1.27-7.88,17.11,17.11,0,0,1,3.49-5.8,14.59,14.59,0,0,1,5.21-3.61,16.68,16.68,0,0,1,6.39-1.23,24.64,24.64,0,0,1,7.38,1.1,13.7,13.7,0,0,1,2.22.9,12.89,12.89,0,0,1,1.25.72L515,350.85a18.87,18.87,0,0,0-3.47-1.51A13.56,13.56,0,0,0,507.22,348.7Z" transform="translate(-36 -293.79)"/>
      <path class="cls-3" d="M547.83,378c-.37-1.23-.76-2.5-1.18-3.79s-.83-2.59-1.25-3.88H532.64c-.41,1.29-.83,2.59-1.24,3.89s-.8,2.56-1.16,3.78H522.6q1.85-5.73,3.5-10.58t3.24-9.16q1.59-4.29,3.12-8.15c1-2.58,2.09-5.09,3.2-7.55h7c1.07,2.46,2.13,5,3.17,7.55s2.1,5.29,3.16,8.15,2.14,5.92,3.24,9.16,2.28,6.76,3.51,10.58ZM539,350.59q-.25.78-.72,2.1c-.32.89-.68,1.91-1.08,3.07s-.86,2.44-1.36,3.84-1,2.86-1.52,4.39h9.35c-.5-1.54-1-3-1.45-4.41s-.92-2.68-1.34-3.84l-1.11-3.07C539.44,351.79,539.18,351.09,539,350.59Z" transform="translate(-36 -293.79)"/>
    </g>
  </g>
</svg>
