<svg xmlns="http://www.w3.org/2000/svg" height="800" width="1200" id="svg8" version="1.1" viewBox="-23.8125 -39.6875 206.375 238.125"><g transform="translate(0 -158.75)" id="layer2" display="inline" fill-opacity="1" fill-rule="nonzero" stroke="none" stroke-width="0" stroke-miterlimit="4" stroke-dasharray="none" stroke-opacity="1"><path d="M8.651 274.16a79.375 79.375 0 0120.772-97.721 79.375 79.375 0 0199.904 0A79.375 79.375 0 01150.1 274.16" id="path977" fill="#8ab73f"/><path d="M150.099 274.16a79.375 79.375 0 01-70.724 43.34 79.375 79.375 0 01-70.724-43.34" id="path987" fill="#fff"/></g><g transform="translate(-36.286 -241.815)" id="layer1" display="inline"><g transform="translate(-423.145 329.786) scale(2.4091)" id="g964"><path class="st2" d="M228.522-21.603c-1.27 0-12.886 40.375-11.695 41.75 1.19 1.403 5.953 3.229 11.51 3.229 5.556 0 10.477-2.646 10.874-3.704.397-1.059-8.732-41.275-10.69-41.275z" id="path832" fill="#263754" stroke-width=".265"/><path d="M233.152 10.676l-.37-.37-4.26 4.233V-8.64h-.503V7.29l-4.234-4.26-.37.37 4.604 4.604v2.461l-4.234-4.26-.37.37 4.604 4.604v17.94h.502V15.278z" id="path834" fill="#8ab73f" stroke-width=".265"/></g><g transform="translate(-386.708 339.811) scale(2.35416)" id="g972"><path class="st2" d="M204.713-5.592c-.768 0-7.7 24.077-6.985 24.923.714.82 3.545 1.932 6.879 1.932 3.307 0 6.244-1.588 6.509-2.223.211-.635-5.24-24.632-6.403-24.632z" id="path836" fill="#263754" stroke-width=".265"/><path d="M207.464 13.67l-.211-.212-2.54 2.513V2.133h-.291v9.499l-2.54-2.514-.212.212 2.752 2.752v1.455l-2.54-2.54-.212.238 2.752 2.752v10.689h.29V16.42z" id="path968" fill="#8ab73f" stroke-width=".265"/></g><path d="M170.027 311.632l-4.288 1.332-4.01-12.914 15.318-4.757 3.972 12.79-4.288 1.331-2.479-7.981-1.462.454 1.562 5.032-3.767 1.17-1.563-5.032-1.512.47zm-2.202 3.69l4.119 2.17c-1.425 1.672-2.025 3.577-2.09 5.834-.042 1.453.089 2.314.764 2.333.493.015.637-.5 1.128-3.11.673-3.512 1.283-6.662 5.071-6.553 3.607.104 5.596 3.174 5.475 7.351-.11 3.814-1.813 6.128-3.941 7.002l-1.883-4.054c1.206-.406 1.505-1.774 1.545-3.15.05-1.712-.38-2.114-.873-2.128-.467-.013-.663.474-1.128 3.084-.618 3.436-1.465 6.683-5.253 6.574-3.685-.106-5.383-3.35-5.252-7.89.085-2.958.881-5.35 2.318-7.464zm-3.986-20.993l-3.6 2.684-8.082-10.841 12.859-9.588 8.005 10.737-3.6 2.684-4.995-6.7-1.228.915 3.15 4.224-3.163 2.358-3.15-4.224-1.269.947zm-17.703-32.44l-8.775 13.382 4.2 2.755 2.528-3.854 1.862 1.22.006 5.517 4.396 2.882.128-.195-.156-6.326c1.89.094 3.708-.79 4.9-2.608 1.875-2.858 1.045-6.127-1.834-8.015zm1.801 6.415l2.425 1.59c.866.568 1.074 1.385.591 2.121-.483.737-1.293.886-2.18.304l-2.426-1.59zm-10.56-5.444l-4.702-1.12-2.67 11.207-4.93-1.174 2.67-11.207-4.702-1.12 1.072-4.498 14.333 3.413zm-23.11-8.468l2.22 15.898-1.827.255-1.784-12.785-4.951 9.057-.232.032-7.268-7.351 1.785 12.785-1.827.255-2.219-15.898 1.647-.23 7.634 7.72 5.254-9.519zM80.7 264.9l1.833 17.518.08.134 1.627-.983-.461-4.135 8-4.839 3.446 2.328 1.627-.984-.081-.134-14.644-9.768zm1.828 1.512l7.598 5.113-6.595 3.99zm-3.408 17.043l1.368 1.09-7.7 9.656-12.431-9.914 7.62-9.555 1.347 1.075-6.48 8.127 4.163 3.32 4.171-5.23 1.348 1.075-4.17 5.23 4.203 3.353zm-22.161 9.88l-2.058 5.987 13.466 4.627-.597 1.735-13.465-4.627-2.049 5.963-1.637-.563 4.702-13.685zm-7.54 32.15l4.566.673.105 3.386 1.452.244-.105-3.412 4.275.63.104 3.385 1.427.245-.107-3.438 4.592.673-.046-1.496-4.592-.673-.144-4.672 4.592.673-.046-1.496-4.592-.673-.109-3.516-1.426-.246.11 3.57-4.275-.63-.11-3.543-1.452-.244.11 3.57-4.565-.674.046 1.496 4.566.673.144 4.672-4.566-.673zm5.972-.579l-.144-4.672 4.275.63.144 4.672z" id="path921-1" fill="#273755" fill-opacity="1" stroke-width=".26"/></g><style id="style826">.st2{fill:#263754}</style></svg>